<svg width="22" height="22" viewBox="0 0 22 22" fill="none" xmlns="http://www.w3.org/2000/svg">
<path d="M5.17 4.125V5.87583H2.0625V7.59C2.0625 10.4592 2.915 12.0587 4.96375 13.0533C5.72541 13.4628 6.4284 13.9731 7.05375 14.5704C7.55638 15.1065 8.16937 15.5272 8.85042 15.8033L9.625 16.0417V18.1179H8.4425C7.0125 18.1179 6.53125 18.4433 6.53125 19.4104V20.0613H15.4688V19.4792C15.4688 18.5304 14.8821 18.1042 13.5254 18.1042H12.375V16.0417L13.1633 15.8079C13.8454 15.5315 14.4586 15.1091 14.96 14.5704C15.6124 13.9486 16.3426 13.414 17.1325 12.98C17.7458 12.6849 18.2935 12.2695 18.7431 11.7585C19.1927 11.2475 19.535 10.6513 19.7496 10.0054C19.8955 9.2057 19.963 8.39366 19.9512 7.58083V5.88042H16.83V4.125H5.17ZM11 7.04458L11.9396 8.98792H14.2038L12.43 10.6242L12.9388 12.7142L11 11.6737L9.06125 12.7279L9.57 10.6379L7.79167 9.00167H10.0604L11 7.04458ZM3.69417 7.62667H5.1425V11.2383C4.99125 11.33 4.51917 10.78 4.17542 10.1521C3.98026 9.67135 3.85523 9.16506 3.80417 8.64875L3.69417 7.62667ZM16.8575 7.62667H18.4342L18.3013 8.635C18.27 9.47438 17.9325 10.2733 17.3525 10.8808C17.216 11.0668 17.0429 11.2228 16.8438 11.3392L16.8575 7.62667Z" stroke="black" stroke-linecap="round" stroke-linejoin="round"/>
</svg>
