<svg width="193" height="187" viewBox="0 0 193 187" fill="none" xmlns="http://www.w3.org/2000/svg">
<path d="M72.7435 181.443L1.17969 145.416L73.9686 0.763672L145.532 36.7903L72.7435 181.443Z" fill="#FFC727" stroke="#263238" stroke-miterlimit="10"/>
<path d="M129.649 50.9562C128.511 50.3847 127.497 49.5947 126.665 48.6315C125.834 47.6683 125.202 46.5509 124.804 45.3433C124.407 44.1358 124.253 42.8619 124.351 41.5948C124.448 40.3277 124.796 39.0924 125.374 37.9596C125.558 37.6081 125.761 37.2668 125.982 36.9372L84.926 16.2812C84.798 16.6582 84.6441 17.0258 84.4655 17.3816C83.3096 19.6645 81.2917 21.396 78.8556 22.1954C76.4195 22.9949 73.7647 22.7967 71.4752 21.6445C71.2957 21.5567 71.1216 21.4583 70.9539 21.3499L15.9863 130.738L16.5337 130.981C18.8231 132.133 20.5596 134.146 21.3613 136.575C22.163 139.004 21.9643 141.651 20.8088 143.934C20.6271 144.291 20.4209 144.636 20.1919 144.965L61.2828 165.647C61.414 165.271 61.5678 164.904 61.7434 164.547C62.3174 163.412 63.1101 162.402 64.0762 161.574C65.0423 160.745 66.1627 160.115 67.3734 159.719C68.5841 159.323 69.8612 159.169 71.1316 159.266C72.4021 159.363 73.6408 159.709 74.7771 160.284C75.1326 160.465 75.4752 160.671 75.8024 160.899L130.753 51.3895C130.375 51.2703 130.007 51.1255 129.649 50.9562ZM65.5318 105.265C62.7344 103.855 60.419 101.65 58.8783 98.9283C57.3376 96.2066 56.6408 93.0904 56.8759 89.9738C57.1111 86.8572 58.2678 83.8801 60.1996 81.419C62.1314 78.9578 64.7518 77.1231 67.7292 76.1467C70.7067 75.1704 73.9076 75.0963 76.9273 75.9338C79.947 76.7713 82.6498 78.4828 84.6941 80.852C86.7384 83.2211 88.0324 86.1414 88.4124 89.2438C88.7923 92.3461 88.2413 95.4912 86.8289 98.2813C84.9324 102.023 81.6238 104.86 77.6302 106.169C73.6366 107.479 69.2849 107.153 65.5318 105.265Z" fill="white" stroke="#263238" stroke-linecap="round" stroke-linejoin="round"/>
<path d="M71.7455 181.755L4.51758 138.216L92.582 2.2627L159.81 45.8014L71.7455 181.755Z" fill="#FFC727" stroke="#263238" stroke-miterlimit="10"/>
<path d="M142.483 58.1739C140.332 56.7803 138.823 54.5923 138.289 52.0904C137.754 49.5885 138.238 46.9774 139.633 44.8307C139.856 44.5006 140.097 44.1825 140.354 43.8776L101.757 18.8721C101.583 19.2325 101.389 19.5825 101.175 19.9205C100.486 20.9863 99.5937 21.9064 98.5483 22.6279C97.5029 23.3495 96.3251 23.8584 95.0822 24.1256C93.8394 24.3928 92.5558 24.413 91.3051 24.185C90.0544 23.957 88.8611 23.4854 87.7934 22.797C87.6283 22.6931 87.4719 22.5631 87.3068 22.4505L20.8262 125.219C21 125.314 21.1737 125.41 21.3388 125.522C22.4097 126.212 23.3333 127.105 24.0566 128.152C24.7799 129.198 25.2886 130.377 25.5535 131.62C25.8184 132.864 25.8341 134.147 25.5999 135.396C25.3658 136.645 24.8862 137.836 24.1889 138.9C23.9675 139.235 23.7266 139.556 23.4677 139.862L62.0648 164.859C62.2403 164.499 62.4346 164.149 62.647 163.81C64.0459 161.667 66.2408 160.164 68.7498 159.633C71.2587 159.102 73.8765 159.585 76.0283 160.977C76.3593 161.2 76.6783 161.44 76.9841 161.696L143.526 58.7544C143.167 58.5812 142.819 58.3874 142.483 58.1739ZM72.8481 105.248C70.2169 103.545 68.1511 101.103 66.912 98.2295C65.673 95.3563 65.3162 92.1811 65.887 89.1057C66.4577 86.0302 67.9303 83.1926 70.1184 80.9518C72.3066 78.7109 75.112 77.1674 78.1799 76.5166C81.2478 75.8657 84.4404 76.1367 87.3539 77.2952C90.2674 78.4538 92.7708 80.4478 94.5477 83.0252C96.3245 85.6026 97.295 88.6476 97.3362 91.775C97.3775 94.9024 96.4877 97.9717 94.7794 100.595C92.4894 104.111 88.8926 106.577 84.7799 107.449C80.6672 108.322 76.3753 107.53 72.8481 105.248Z" fill="white" stroke="#263238" stroke-linecap="round" stroke-linejoin="round"/>
<path d="M70.4327 181.988L9.88672 129.586L115.981 7.10547L176.518 59.4992L70.4327 181.988Z" fill="#FFC727" stroke="#263238" stroke-miterlimit="10"/>
<path d="M157.637 69.3603C156.598 68.4671 155.762 67.3628 155.185 66.1214C154.608 64.8799 154.303 63.5299 154.292 62.1617C154.28 60.7934 154.562 59.4385 155.118 58.1875C155.674 56.9366 156.491 55.8185 157.516 54.908L122.759 24.8252C122.538 25.1567 122.297 25.4749 122.038 25.7783C121.205 26.7358 120.192 27.5203 119.055 28.087C117.918 28.6536 116.68 28.9912 115.413 29.0805C114.145 29.1698 112.872 29.0091 111.666 28.6075C110.461 28.2059 109.347 27.5713 108.387 26.74C108.231 26.6014 108.092 26.4628 107.953 26.3241L27.8477 118.973C28.0041 119.094 28.1692 119.207 28.3169 119.345C29.3564 120.238 30.1926 121.343 30.7696 122.584C31.3466 123.826 31.6511 125.176 31.6626 126.544C31.6741 127.912 31.3924 129.267 30.8364 130.518C30.2804 131.769 29.4629 132.887 28.4385 133.798L63.1951 163.88C63.418 163.55 63.6587 163.232 63.9163 162.927C64.8048 161.879 65.9098 161.035 67.1557 160.452C68.4015 159.869 69.759 159.562 71.1351 159.55C72.5113 159.539 73.8737 159.824 75.1292 160.385C76.3847 160.947 77.5037 161.773 78.4098 162.806L158.593 70.0968C158.257 69.8746 157.938 69.6285 157.637 69.3603ZM82.1461 106.375C79.7768 104.325 78.0704 101.621 77.2426 98.604C76.4147 95.5872 76.5027 92.3933 77.4954 89.4264C78.488 86.4595 80.3408 83.8527 82.8193 81.9358C85.2978 80.019 88.2907 78.8781 91.4195 78.6575C94.5483 78.4369 97.6725 79.1465 100.397 80.6965C103.121 82.2466 105.323 84.5674 106.725 87.3656C108.126 90.1637 108.664 93.3134 108.27 96.4164C107.876 99.5193 106.568 102.436 104.512 104.798C103.148 106.366 101.487 107.651 99.6241 108.58C97.7615 109.508 95.7338 110.061 93.6567 110.207C91.5796 110.354 89.494 110.091 87.5189 109.433C85.5439 108.775 83.7182 107.736 82.1461 106.375Z" fill="white" stroke="#263238" stroke-linecap="round" stroke-linejoin="round"/>
<path d="M70.2503 185.922L17.2812 125.93L138.842 18.6816L191.811 78.6827L70.2503 185.922Z" fill="#FFC727" stroke="#263238" stroke-miterlimit="10"/>
<path d="M171.818 85.9349C170.125 84.0141 169.266 81.5019 169.429 78.9498C169.592 76.3977 170.764 74.0144 172.687 72.3231C172.99 72.0602 173.309 71.8171 173.643 71.5953L143.231 37.1456C142.329 38.1783 141.216 39.0063 139.965 39.5736C138.715 40.1409 137.358 40.4345 135.984 40.4345C134.611 40.4345 133.253 40.1409 132.003 39.5736C130.753 39.0063 129.64 38.1783 128.738 37.1456C128.599 36.9897 128.486 36.8337 128.364 36.6777L36.5025 117.794C36.6415 117.941 36.7892 118.071 36.9195 118.227C37.7589 119.178 38.4023 120.284 38.8129 121.483C39.2235 122.681 39.3933 123.949 39.3126 125.213C39.2319 126.477 38.9023 127.712 38.3426 128.849C37.7829 129.986 37.0041 131.002 36.0506 131.839C35.7489 132.099 35.4327 132.342 35.1035 132.567L65.5155 167.017C65.7843 166.708 66.0746 166.418 66.3844 166.15C67.3372 165.312 68.4464 164.67 69.6485 164.259C70.8506 163.849 72.122 163.68 73.39 163.76C74.6579 163.841 75.8975 164.17 77.0377 164.729C78.178 165.287 79.1965 166.065 80.0351 167.017C80.298 167.316 80.5418 167.631 80.7649 167.961L172.661 86.7581C172.364 86.5007 172.083 86.2259 171.818 85.9349ZM92.0435 112.543C89.9732 110.197 88.6471 107.291 88.2329 104.193C87.8186 101.095 88.3349 97.9442 89.7163 95.1388C91.0978 92.3334 93.2824 89.9994 95.994 88.4319C98.7055 86.8644 101.822 86.1338 104.95 86.3324C108.078 86.5311 111.077 87.6501 113.567 89.5479C116.057 91.4458 117.927 94.0373 118.941 96.9948C119.954 99.9523 120.065 103.143 119.26 106.163C118.455 109.184 116.77 111.899 114.418 113.964C112.854 115.342 111.033 116.398 109.058 117.073C107.084 117.747 104.996 118.026 102.913 117.894C100.831 117.762 98.7945 117.222 96.9217 116.303C95.049 115.385 93.3765 114.107 92 112.543H92.0435Z" fill="white" stroke="#263238" stroke-linecap="round" stroke-linejoin="round"/>
</svg>
