<svg width="20" height="20" viewBox="0 0 20 20" fill="none" xmlns="http://www.w3.org/2000/svg">
<path d="M16.2501 15H3.75015C3.64076 14.9993 3.53345 14.97 3.43896 14.9149C3.34448 14.8597 3.26611 14.7808 3.2117 14.6859C3.15729 14.591 3.12874 14.4835 3.12891 14.3741C3.12907 14.2647 3.15795 14.1572 3.21265 14.0625C3.72749 13.1719 4.37515 10.9227 4.37515 8.125C4.37515 6.63316 4.96778 5.20242 6.02267 4.14752C7.07756 3.09263 8.5083 2.5 10.0001 2.5C11.492 2.5 12.9227 3.09263 13.9776 4.14752C15.0325 5.20242 15.6251 6.63316 15.6251 8.125C15.6251 10.9234 16.2736 13.1719 16.7892 14.0625C16.844 14.1574 16.8728 14.2649 16.8729 14.3745C16.873 14.484 16.8444 14.5916 16.7898 14.6865C16.7352 14.7815 16.6566 14.8604 16.5619 14.9154C16.4672 14.9705 16.3597 14.9996 16.2501 15Z" fill="#1C1C1C" fill-opacity="0.1"/>
<path d="M17.3272 13.7453C16.8936 12.9984 16.2491 10.8852 16.2491 8.125C16.2491 6.4674 15.5906 4.87769 14.4185 3.70558C13.2464 2.53348 11.6567 1.875 9.99909 1.875C8.34149 1.875 6.75178 2.53348 5.57968 3.70558C4.40757 4.87769 3.74909 6.4674 3.74909 8.125C3.74909 10.8859 3.10378 12.9984 2.67019 13.7453C2.55946 13.9352 2.50076 14.1509 2.50001 14.3707C2.49925 14.5905 2.55647 14.8066 2.66589 14.9973C2.77531 15.1879 2.93306 15.3463 3.12324 15.4565C3.31342 15.5667 3.52929 15.6248 3.74909 15.625H6.93738C7.08157 16.3306 7.46505 16.9647 8.02295 17.4201C8.58085 17.8756 9.27892 18.1243 9.99909 18.1243C10.7193 18.1243 11.4173 17.8756 11.9752 17.4201C12.5331 16.9647 12.9166 16.3306 13.0608 15.625H16.2491C16.4688 15.6247 16.6846 15.5665 16.8747 15.4562C17.0647 15.346 17.2224 15.1875 17.3317 14.9969C17.441 14.8063 17.4982 14.5903 17.4974 14.3705C17.4966 14.1508 17.4379 13.9351 17.3272 13.7453ZM9.99909 16.875C9.61145 16.8749 9.23338 16.7546 8.91691 16.5308C8.60043 16.3069 8.36112 15.9905 8.23191 15.625H11.7663C11.6371 15.9905 11.3978 16.3069 11.0813 16.5308C10.7648 16.7546 10.3867 16.8749 9.99909 16.875ZM3.74909 14.375C4.35066 13.3406 4.99909 10.9438 4.99909 8.125C4.99909 6.79892 5.52588 5.52715 6.46356 4.58947C7.40124 3.65178 8.67301 3.125 9.99909 3.125C11.3252 3.125 12.5969 3.65178 13.5346 4.58947C14.4723 5.52715 14.9991 6.79892 14.9991 8.125C14.9991 10.9414 15.646 13.3383 16.2491 14.375H3.74909Z" fill="#1C1C1C"/>
</svg>
