<svg width="35" height="35" viewBox="0 0 35 35" fill="none" xmlns="http://www.w3.org/2000/svg">
<path d="M4.375 8.75033H32.0833L27.7083 23.3337H8.75L4.375 8.75033ZM4.375 8.75033L3.28125 5.10449M14.5717 16.042H17.4883M17.4883 16.042H20.405M17.4883 16.042V13.1253M17.4883 16.042V18.9587M16.0417 28.4378C16.0417 29.018 15.8112 29.5744 15.401 29.9846C14.9907 30.3949 14.4343 30.6253 13.8542 30.6253C13.274 30.6253 12.7176 30.3949 12.3074 29.9846C11.8971 29.5744 11.6667 29.018 11.6667 28.4378M24.7917 28.4378C24.7917 29.018 24.5612 29.5744 24.151 29.9846C23.7407 30.3949 23.1843 30.6253 22.6042 30.6253C22.024 30.6253 21.4676 30.3949 21.0574 29.9846C20.6471 29.5744 20.4167 29.018 20.4167 28.4378" stroke="white" stroke-width="1.5" stroke-linecap="round" stroke-linejoin="round"/>
</svg>
