<svg width="30" height="30" viewBox="0 0 30 30" fill="none" xmlns="http://www.w3.org/2000/svg">
<path d="M3.75 7.5H27.5L23.75 20H7.5L3.75 7.5ZM3.75 7.5L2.8125 4.375M12.49 13.75H14.99M14.99 13.75H17.49M14.99 13.75V11.25M14.99 13.75V16.25M13.75 24.375C13.75 24.8723 13.5525 25.3492 13.2008 25.7008C12.8492 26.0525 12.3723 26.25 11.875 26.25C11.3777 26.25 10.9008 26.0525 10.5492 25.7008C10.1975 25.3492 10 24.8723 10 24.375M21.25 24.375C21.25 24.8723 21.0525 25.3492 20.7008 25.7008C20.3492 26.0525 19.8723 26.25 19.375 26.25C18.8777 26.25 18.4008 26.0525 18.0492 25.7008C17.6975 25.3492 17.5 24.8723 17.5 24.375" stroke="black" stroke-width="1.5" stroke-linecap="round" stroke-linejoin="round"/>
</svg>
