<svg width="121" height="229" viewBox="0 0 121 229" fill="none" xmlns="http://www.w3.org/2000/svg">
<path d="M48.9996 215.184C48.9996 215.184 52.8576 220.478 54.5433 221.197C56.2289 221.916 59.3657 222.401 60.3302 224.567C60.8659 225.619 61.1962 226.763 61.3034 227.938H37.4169C37.4169 227.938 36.4525 224.81 37.4169 222.886C38.0116 221.672 38.4188 220.375 38.6247 219.039L48.9996 215.184Z" fill="white" stroke="#263238" stroke-linecap="round" stroke-linejoin="round"/>
<path d="M37.0078 225.529H60.7205C61.0379 226.297 61.2343 227.11 61.3027 227.938H37.4162C37.1934 227.152 37.0565 226.345 37.0078 225.529Z" fill="white" stroke="#263238" stroke-linecap="round" stroke-linejoin="round"/>
<path d="M23.4269 220.478L22.949 228.172H11.3664C11.0959 226.729 11.1793 225.243 11.6097 223.84C12.3309 221.674 13.0607 219.75 13.0607 219.75L23.4269 220.478Z" fill="white" stroke="#263238" stroke-linecap="round" stroke-linejoin="round"/>
<path d="M22.9497 228.171H11.367C11.1896 227.22 11.1633 226.246 11.2888 225.286H23.1321L22.9497 228.171Z" fill="white" stroke="#263238" stroke-linecap="round" stroke-linejoin="round"/>
<path d="M58.4005 103.075C58.4005 103.075 56.4715 128.089 55.9936 136.988C55.5157 145.886 48.9988 215.167 48.9988 215.167C48.9988 215.167 39.5885 220.946 38.3807 220.946C37.1729 220.946 35.774 137.473 35.774 137.473L23.4267 220.478C22.0987 220.902 20.7189 221.144 19.3254 221.197C17.3964 221.197 13.0605 219.759 13.0605 219.759L17.1358 119.694V103.075C17.1358 103.075 41.4654 106.446 48.0083 105.484C51.542 105.016 55.0222 104.21 58.4005 103.075Z" fill="#263238" stroke="#263238" stroke-linecap="round" stroke-linejoin="round"/>
<path d="M28.9805 118.246L34.2809 122.336L35.7319 137.49" stroke="#808080" stroke-linecap="round" stroke-linejoin="round"/>
<path d="M26.7921 1.45869C26.7921 1.45869 36.6282 0.228337 39.5217 3.58147C42.4152 6.93459 42.9973 13.4329 45.0045 14.9925C47.0117 16.5521 48.1326 14.6113 49.0276 16.6387C49.9226 18.6662 48.4628 21.1702 48.4628 21.1702C48.4628 21.1702 48.7061 30.935 47.5939 31.4029C46.4817 31.8708 41.5115 31.8794 41.5115 31.8794L42.3196 35.8911L29.8767 36.4109L28.7906 32.2174C28.7906 32.2174 19.3281 26.7414 16.7735 22.5912C14.2189 18.4409 14.8271 9.24799 17.3817 6.0335C19.9363 2.819 26.7921 1.45869 26.7921 1.45869Z" fill="white" stroke="#263238" stroke-linecap="round" stroke-linejoin="round"/>
<path d="M48.4614 21.1701C48.4614 21.1701 42.6918 19.3592 42.379 20.217C42.0662 21.0748 43.0654 32.0266 43.0654 32.0266C43.0654 32.0266 47.1406 32.4945 47.5925 31.4027C48.0443 30.311 48.9132 28.968 48.4614 21.1701ZM47.2449 30.363C46.9147 31.2295 43.9952 30.8656 43.9952 30.8656C43.9952 30.8656 43.2566 22.0452 43.4999 21.3347C43.7432 20.6242 47.8445 22.1058 47.8445 22.1058C48.2007 28.4049 47.549 29.4879 47.2449 30.363Z" fill="#263238"/>
<path d="M42.0315 14.5155C42.3356 15.252 42.8222 15.7459 43.1176 15.6246C43.4131 15.5033 43.4044 14.8101 43.1176 14.0736C42.8309 13.3372 42.3269 12.8433 42.0315 12.9646C41.7361 13.0859 41.7274 13.7791 42.0315 14.5155Z" fill="#263238"/>
<path d="M47.4713 22.7473C46.9533 23.0092 46.3549 23.0655 45.7969 22.9047C45.2389 22.7439 44.7629 22.378 44.4648 21.8809" stroke="#263238" stroke-linecap="round" stroke-linejoin="round"/>
<path d="M41.9272 11.1025C41.9272 11.1025 40.6672 10.418 40.5195 12.5061" stroke="#263238" stroke-linecap="round" stroke-linejoin="round"/>
<path d="M17.3785 6.0335C19.9331 2.82766 26.7888 1.45869 26.7888 1.45869C26.7888 1.45869 36.6249 0.228337 39.5184 3.58147C39.5184 3.58147 34.079 2.21248 34.7828 4.52588C35.4867 6.83928 41.1259 10.3744 39.1882 11.7433C37.2506 13.1123 35.0696 12.0726 35.9733 14.1001C36.8769 16.1275 38.0065 18.1117 37.0594 18.2936C36.1123 18.4756 33.4621 16.3182 32.3325 16.786C31.2029 17.2539 29.9169 20.7023 31.0031 22.4526C31.7335 23.5248 32.8567 24.2683 34.1312 24.5234C34.1312 24.5234 32.1935 29.5747 30.4904 30.8917C29.7524 31.4738 28.8221 31.7583 27.8837 31.6888C25.4768 30.2245 18.8209 25.9703 16.7442 22.5912C14.2157 18.4409 14.8239 9.24799 17.3785 6.0335Z" fill="#263238" stroke="#263238" stroke-linecap="round" stroke-linejoin="round"/>
<path d="M16.7633 42.9697C16.7633 42.9697 9.75115 47.5445 7.86561 51.0363C5.98006 54.5281 1.3922 87.3228 0.853469 90.8233C0.314742 94.3237 8.54336 118.922 8.54336 118.922C8.54336 118.922 7.8656 124.554 8.54336 127.586C9.22111 130.619 11.2283 132.386 12.2449 132.56C13.2616 132.733 14.1218 129.675 14.1218 129.675C14.7995 130.35 15.6511 129.501 15.6511 128.661C15.6511 127.82 16.1637 121.729 15.99 120.863C15.8162 119.996 15.0602 117.198 15.0602 117.198L16.798 95.6407L16.7633 42.9697Z" fill="white" stroke="#263238" stroke-linecap="round" stroke-linejoin="round"/>
<path d="M1.49609 87.7741C4.33561 88.9263 7.35619 89.5715 10.4198 89.6803C14.8861 89.6803 16.1547 89.0478 16.1547 89.0478L16.3719 83.3293C16.3719 83.3293 6.17085 83.3293 5.07602 82.9047C3.98119 82.4802 2.09565 81.8477 2.09565 81.8477L1.49609 87.7741Z" fill="#FFC727" stroke="#263238" stroke-linecap="round" stroke-linejoin="round"/>
<path d="M7.86756 51.0363C6.41647 53.7136 3.39265 73.5638 1.78516 84.3163C6.60671 85.8704 11.6887 86.4593 16.7392 86.0492V42.9697C16.7392 42.9697 9.7531 47.5445 7.86756 51.0363Z" fill="#FFC727" stroke="#263238" stroke-linecap="round" stroke-linejoin="round"/>
<path d="M12.427 71.9696L6.33594 68.2266" stroke="#263238" stroke-linecap="round" stroke-linejoin="round"/>
<path d="M8.66602 74.1182L12.9585 73.5811" stroke="#263238" stroke-linecap="round" stroke-linejoin="round"/>
<path d="M13.7742 121.556C13.5907 122.388 13.1785 123.153 12.5838 123.765L11.7149 124.441L11.2109 127.499C11.2109 127.499 11.5498 129.362 11.7149 130.376" stroke="#263238" stroke-linecap="round" stroke-linejoin="round"/>
<path d="M14.121 129.7L13.9473 125.29" stroke="#263238" stroke-linecap="round" stroke-linejoin="round"/>
<path d="M13.6115 82.202C13.2813 70.3145 10.6659 60.3244 10.466 58.3749C10.2401 56.0788 9.64926 50.239 13.9938 45.153C16.2036 43.0066 18.7295 41.2097 21.4839 39.8244C23.0218 39.3652 24.2036 39.1486 24.2036 39.1486L23.4302 38.906C24.7762 38.33 26.1612 37.8493 27.575 37.4677C31.1983 36.5059 40.8433 36.0207 43.7368 38.672C43.7368 38.672 52.0957 41.2713 56.2057 44.2519C58.2753 46.8294 59.5707 49.9385 59.942 53.2196C60.3765 57.9936 61.228 81.0757 61.5408 89.7921C61.6103 91.7676 61.7667 93.717 62.01 95.6752C62.5574 100.007 63.2613 114.876 63.2613 114.876C63.2613 114.876 54.1116 118.029 39.3922 117.553C24.6728 117.076 15.6969 113.307 15.6969 113.307L13.5333 112.164C13.5333 112.164 13.5333 98.0666 13.5333 95.7012C13.5594 91.083 13.6636 82.28 13.6115 82.202Z" fill="#FFC727" stroke="#263238" stroke-linecap="round" stroke-linejoin="round"/>
<path d="M39.7285 73.0176C40.3766 74.2001 41.1422 75.3147 42.0138 76.3447L39.7285 73.0176Z" fill="#FFC727"/>
<path d="M39.7285 73.0176C40.3766 74.2001 41.1422 75.3147 42.0138 76.3447" stroke="#263238" stroke-linecap="round" stroke-linejoin="round"/>
<path d="M33.002 54.1729C34.3147 59.8209 36.1592 65.3329 38.5109 70.6352L33.002 54.1729Z" fill="#FFC727"/>
<path d="M33.002 54.1729C34.3147 59.8209 36.1592 65.3329 38.5109 70.6352" stroke="#263238" stroke-linecap="round" stroke-linejoin="round"/>
<path d="M33.5508 64.4658C34.133 65.5749 34.6717 66.5799 35.0974 67.3511L33.5508 64.4658Z" fill="#FFC727"/>
<path d="M33.5508 64.4658C34.133 65.5749 34.6717 66.5799 35.0974 67.3511" stroke="#263238" stroke-linecap="round" stroke-linejoin="round"/>
<path d="M28.3809 54.3809C28.3809 54.3809 30.223 58.0546 32.1085 61.711L28.3809 54.3809Z" fill="#FFC727"/>
<path d="M28.3809 54.3809C28.3809 54.3809 30.223 58.0546 32.1085 61.711" stroke="#263238" stroke-linecap="round" stroke-linejoin="round"/>
<path d="M49.5551 40.7432C49.5551 40.7432 46.0273 35.7092 45.3061 35.2326C44.5849 34.7561 29.9524 33.2051 26.8156 34.1669C23.6788 35.1286 21.4805 39.8248 21.4805 39.8248C21.4805 39.8248 37.008 38.811 49.5551 40.7432Z" fill="white" stroke="#263238" stroke-linecap="round" stroke-linejoin="round"/>
<path d="M52.6484 66.5545L66.664 78.9186C66.664 78.9186 74.2061 84.2906 77.1778 83.2509C79.7846 82.2978 103.124 61.7544 108.546 56.963L110.657 55.7673C110.657 55.7673 113.672 55.7673 114.55 55.2128C115.427 54.6583 116.739 53.6099 116.739 53.6099H117.469C118.199 53.6099 118.642 52.5875 118.938 51.5651C119.233 50.5427 120.102 47.6315 119.807 46.9036C119.511 46.1758 115.705 43.6891 115.705 43.6891C115.705 43.6891 116.731 42.2335 117.174 41.653C117.617 41.0725 119.068 39.4609 118.912 38.0053C118.755 36.5497 117.174 35.8132 115.836 37.4248C114.498 39.0364 107.937 43.9837 107.06 45.7339C106.443 46.9556 105.548 48.9311 105.053 50.0055L78.4986 64.6743C78.4986 64.6743 63.1275 46.6697 61.5113 45.6126C59.8951 44.5556 47.8867 40.9339 47.8867 40.9339" fill="white"/>
<path d="M52.6484 66.5545L66.664 78.9186C66.664 78.9186 74.2061 84.2906 77.1778 83.2509C79.7846 82.2978 103.124 61.7544 108.546 56.963L110.657 55.7673C110.657 55.7673 113.672 55.7673 114.55 55.2128C115.427 54.6583 116.739 53.6099 116.739 53.6099H117.469C118.199 53.6099 118.642 52.5875 118.938 51.5651C119.233 50.5427 120.102 47.6315 119.807 46.9036C119.511 46.1758 115.705 43.6891 115.705 43.6891C115.705 43.6891 116.731 42.2335 117.174 41.653C117.617 41.0725 119.068 39.4609 118.912 38.0053C118.755 36.5497 117.174 35.8132 115.836 37.4248C114.498 39.0364 107.937 43.9837 107.06 45.7339C106.443 46.9556 105.548 48.9311 105.053 50.0055L78.4986 64.6743C78.4986 64.6743 63.1275 46.6697 61.5113 45.6126C59.8951 44.5556 47.8867 40.9339 47.8867 40.9339" stroke="#263238" stroke-linecap="round" stroke-linejoin="round"/>
<path d="M52.6477 66.5546L66.6633 78.9188C66.6633 78.9188 74.2055 84.2907 77.1771 83.251C78.2198 82.8697 82.5905 79.352 87.7953 74.9591C87.7308 72.589 87.2697 70.2462 86.4311 68.0276C85.7154 65.8598 84.4703 63.9036 82.8077 62.3351L78.524 64.7005C78.524 64.7005 63.1529 46.6958 61.5367 45.6387C59.9205 44.5817 47.9121 40.96 47.9121 40.96" fill="#FFC727"/>
<path d="M52.6477 66.5546L66.6633 78.9188C66.6633 78.9188 74.2055 84.2907 77.1771 83.251C78.2198 82.8697 82.5905 79.352 87.7953 74.9591C87.7308 72.589 87.2697 70.2462 86.4311 68.0276C85.7154 65.8598 84.4703 63.9036 82.8077 62.3351L78.524 64.7005C78.524 64.7005 63.1529 46.6958 61.5367 45.6387C59.9205 44.5817 47.9121 40.96 47.9121 40.96" stroke="#263238" stroke-linecap="round" stroke-linejoin="round"/>
<path d="M80.2031 62.8719C80.2031 62.8719 81.0025 61.7975 83.3138 64.6654C85.6252 67.5333 86.7895 74.2482 86.7895 75.2013C86.7895 76.1544 88.3275 75.7732 89.2833 74.6295C90.2391 73.4858 93.315 73.0959 93.706 70.0287C94.0971 66.9615 92.7416 62.7506 91.0124 60.0733C89.2833 57.396 89.4744 57.3873 87.7453 57.7685C86.0162 58.1498 80.7505 61.4856 80.2031 62.8719Z" fill="#FFC727" stroke="#263238" stroke-linecap="round" stroke-linejoin="round"/>
<path d="M78.5352 64.666C78.5352 64.666 80.3164 67.1527 79.6039 71.9701L78.5352 64.666Z" fill="#FFC727"/>
<path d="M78.5352 64.666C78.5352 64.666 80.3164 67.1527 79.6039 71.9701" stroke="#263238" stroke-linecap="round" stroke-linejoin="round"/>
<path d="M81.436 69.4746C81.436 69.4746 82.1486 71.2595 80.7148 75.1931L81.436 69.4746Z" fill="#FFC727"/>
<path d="M81.436 69.4746C81.436 69.4746 82.1486 71.2595 80.7148 75.1931" stroke="#263238" stroke-linecap="round" stroke-linejoin="round"/>
<path d="M116.193 53.4103C116.571 52.5341 116.769 51.5914 116.776 50.6377L116.193 53.4103Z" fill="white"/>
<path d="M116.193 53.4103C116.571 52.5341 116.769 51.5914 116.776 50.6377" stroke="#263238" stroke-linecap="round" stroke-linejoin="round"/>
</svg>
