<svg width="40" height="40" viewBox="0 0 40 40" fill="none" xmlns="http://www.w3.org/2000/svg">
<path fill-rule="evenodd" clip-rule="evenodd" d="M25 2.08301H18.24C15.1767 2.08301 12.75 2.08301 10.8517 2.33801C8.89833 2.60134 7.31667 3.15467 6.06833 4.40134C4.82167 5.64967 4.26833 7.23134 4.005 9.18467C3.75 11.0847 3.75 13.5097 3.75 16.573V26.6663C3.75004 28.1554 4.28156 29.5955 5.2489 30.7275C6.21623 31.8595 7.55586 32.6091 9.02667 32.8413C9.255 34.1147 9.69667 35.2013 10.58 36.0863C11.5833 37.0897 12.8467 37.5197 14.3467 37.723C15.7917 37.9163 17.63 37.9163 19.9083 37.9163H25.0917C27.37 37.9163 29.2083 37.9163 30.6533 37.723C32.1533 37.5197 33.4167 37.0897 34.42 36.0863C35.4233 35.083 35.8533 33.8197 36.0567 32.3197C36.25 30.8747 36.25 29.0363 36.25 26.758V18.2413C36.25 15.963 36.25 14.1247 36.0567 12.6797C35.8533 11.1797 35.4233 9.91634 34.42 8.91301C33.535 8.02967 32.4483 7.58801 31.175 7.35967C30.9428 5.88886 30.1932 4.54924 29.0612 3.5819C27.9292 2.61457 26.489 2.08305 25 2.08301ZM28.55 7.11801C28.2966 6.37801 27.8181 5.73577 27.1815 5.28122C26.545 4.82666 25.7822 4.58253 25 4.58301H18.3333C15.155 4.58301 12.8983 4.58634 11.1833 4.81634C9.50833 5.04134 8.54167 5.46467 7.83667 6.16967C7.13167 6.87467 6.70833 7.84134 6.48333 9.51801C6.25333 11.2313 6.25 13.488 6.25 16.6663V26.6663C6.24952 27.4485 6.49365 28.2113 6.94821 28.8479C7.40277 29.4844 8.045 29.9629 8.785 30.2163C8.75 29.1997 8.75 28.0497 8.75 26.758V18.2413C8.75 15.963 8.75 14.1247 8.945 12.6797C9.145 11.1797 9.57833 9.91634 10.58 8.91301C11.5833 7.90967 12.8467 7.47967 14.3467 7.27801C15.7917 7.08301 17.63 7.08301 19.9083 7.08301H25.0917C26.3833 7.08301 27.5333 7.08301 28.55 7.11801ZM12.3467 10.683C12.8083 10.2213 13.455 9.92134 14.68 9.75634C15.9367 9.58801 17.6067 9.58467 19.9983 9.58467H24.9983C27.39 9.58467 29.0583 9.58801 30.3183 9.75634C31.5417 9.92134 32.1883 10.223 32.65 10.683C33.1117 11.1447 33.4117 11.7913 33.5767 13.0163C33.745 14.273 33.7483 15.943 33.7483 18.3347V26.668C33.7483 29.0597 33.745 30.728 33.5767 31.988C33.4117 33.2113 33.11 33.858 32.65 34.3197C32.1883 34.7813 31.5417 35.0813 30.3167 35.2463C29.0583 35.4147 27.39 35.418 24.9983 35.418H19.9983C17.6067 35.418 15.9367 35.4147 14.6783 35.2463C13.455 35.0813 12.8083 34.7797 12.3467 34.3197C11.885 33.858 11.585 33.2113 11.42 31.9863C11.2517 30.728 11.2483 29.0597 11.2483 26.668V18.3347C11.2483 15.943 11.2517 14.273 11.42 13.0147C11.585 11.7913 11.8867 11.1447 12.3467 10.683Z" fill="black"/>
</svg>
