<svg width="199" height="164" viewBox="0 0 199 164" fill="none" xmlns="http://www.w3.org/2000/svg">
<path d="M45.7214 162.17L194.818 100.02C196.084 99.4858 197.087 98.4754 197.609 97.2083C198.131 95.9411 198.131 94.5196 197.608 93.2528L160.47 4.65043C159.935 3.38658 158.92 2.38501 157.647 1.86402C156.375 1.34303 154.947 1.34488 153.675 1.86916L4.57835 64.0017C3.31304 64.5356 2.3102 65.5459 1.78789 66.8131C1.26559 68.0802 1.26603 69.5018 1.78911 70.7686L38.9265 159.388C39.4619 160.652 40.4766 161.654 41.7494 162.175C43.0222 162.696 44.4499 162.694 45.7214 162.17Z" fill="#263238" stroke="#263238" stroke-linecap="round" stroke-linejoin="round"/>
<path d="M20.35 82.3809L29.3272 86.273C31.5347 87.23 34.1023 86.2214 35.062 84.0202L38.9652 75.0685C39.925 72.8673 38.9135 70.307 36.706 69.35L27.7288 65.4579C25.5213 64.5009 22.9537 65.5095 21.9939 67.7107L18.0908 76.6624C17.131 78.8636 18.1425 81.4239 20.35 82.3809Z" fill="white" stroke="#263238" stroke-width="1.00319" stroke-miterlimit="10"/>
<path d="M164.843 96.2501L181.639 89.251L178.734 82.3198L161.938 89.3189L164.843 96.2501Z" fill="white" stroke="#263238" stroke-miterlimit="10"/>
<path d="M142.548 105.552L159.344 98.5527L156.439 91.6216L139.643 98.6207L142.548 105.552Z" fill="white" stroke="#263238" stroke-miterlimit="10"/>
<path d="M120.251 114.836L137.047 107.837L134.142 100.906L117.346 107.905L120.251 114.836Z" fill="white" stroke="#263238" stroke-miterlimit="10"/>
<path d="M97.9558 124.128L114.752 117.129L111.847 110.198L95.0511 117.197L97.9558 124.128Z" fill="white" stroke="#263238" stroke-miterlimit="10"/>
<path d="M75.6609 133.421L92.457 126.422L89.5522 119.491L72.7561 126.49L75.6609 133.421Z" fill="white" stroke="#263238" stroke-miterlimit="10"/>
<path d="M53.3601 142.713L70.1562 135.714L67.2515 128.783L50.4553 135.782L53.3601 142.713Z" fill="white" stroke="#263238" stroke-miterlimit="10"/>
<path d="M138.128 80.2576L169.307 67.265C170.773 66.6543 171.464 64.9745 170.852 63.513L161.695 41.6643C161.083 40.2028 159.398 39.5132 157.933 40.124L126.754 53.1165C125.288 53.7273 124.596 55.4071 125.209 56.8685L134.366 78.7173C134.978 80.1787 136.663 80.8683 138.128 80.2576Z" fill="white" stroke="#263238" stroke-miterlimit="10"/>
<path d="M72.916 53.8412L152.84 20.5361L151.145 16.491L71.2207 49.796L72.916 53.8412Z" fill="white" stroke="#263238" stroke-miterlimit="10"/>
</svg>
