<svg width="120" height="120" viewBox="0 0 120 120" fill="none" xmlns="http://www.w3.org/2000/svg">
<path fill-rule="evenodd" clip-rule="evenodd" d="M104.67 19.9321C100.925 15.7479 94.5127 15.4057 90.3475 19.1678C86.1822 22.93 85.8416 29.3717 89.5867 33.5559C95.892 40.6006 99.7163 49.8948 99.7163 60.1104C99.7163 75.2198 91.3211 88.3594 78.9609 95.0788C82.6334 96.7795 85.5615 100.036 86.7156 104.26C87.6891 107.824 87.2274 111.442 85.6822 114.496C105.966 104.874 120 84.1387 120 60.1104C120 44.672 114.193 30.572 104.67 19.9321Z" fill="#1C1C1C"/>
<path d="M36.992 27.4926C43.3947 23.0062 51.1702 20.3765 59.5874 20.3765C68.0046 20.3765 75.78 23.0062 82.1827 27.4926C82.3344 27.5989 82.488 27.7005 82.6432 27.7973C82.3332 23.5486 83.913 19.2063 87.3106 16.1376C89.7302 13.9521 92.6916 12.756 95.703 12.5229C95.1534 11.8765 94.5136 11.2892 93.7872 10.7801C84.0908 3.98588 72.2873 0 59.5874 0C46.8875 0 35.0839 3.98588 25.3876 10.7801C20.7935 13.9992 19.667 20.35 22.8714 24.9651C26.0759 29.5801 32.3979 30.7117 36.992 27.4926Z" fill="#95A4FC"/>
<path fill-rule="evenodd" clip-rule="evenodd" d="M17.0111 18.3467C16.366 18.7929 15.7625 19.3218 15.2158 19.9326C10.6464 25.0379 6.93048 30.9403 4.30113 37.4138C2.18506 42.6236 4.67389 48.5703 9.8601 50.696C15.0463 52.8217 20.966 50.3215 23.082 45.1117C24.8151 40.8449 27.2699 36.9413 30.2994 33.5565C30.3512 33.4986 30.4021 33.4404 30.4524 33.3817C26.2296 33.1584 22.1497 31.0507 19.5431 27.2968C17.6531 24.5749 16.8392 21.4217 17.0111 18.3467Z" fill="#B1E3FF"/>
<path fill-rule="evenodd" clip-rule="evenodd" d="M1.81254 47.2354C3.26614 50.4039 5.87327 53.0472 9.34258 54.4692C13.1587 56.0333 17.2585 55.8085 20.7197 54.1841C20.4333 56.1124 20.2841 58.091 20.2841 60.1108C20.2841 72.9643 26.3595 84.3923 35.7831 91.655C36.2843 91.8942 36.7726 92.1781 37.2428 92.5076C43.6455 96.994 51.4209 99.6237 59.8382 99.6237C63.4875 99.6237 67.0059 99.1299 70.3383 98.2111C75.7398 96.7218 81.3205 99.9133 82.803 105.339C84.2856 110.766 81.1086 116.372 75.7071 117.861C70.6418 119.258 65.3183 120 59.8382 120C56.1352 120 52.5085 119.661 48.988 119.013C49.0629 119.102 49.1388 119.19 49.2158 119.277C21.2354 114.242 0 89.6674 0 60.1108C0 56.78 0.270663 53.5052 0.793098 50.3093C0.973374 49.2065 1.32363 48.1743 1.81254 47.2354Z" fill="#BAEDBD"/>
</svg>
