<svg width="24" height="24" viewBox="0 0 24 24" fill="none" xmlns="http://www.w3.org/2000/svg">
<g clip-path="url(#clip0_97_7668)">
<path d="M15 2.99959C16.296 2.99959 17.496 3.40959 18.477 4.10959L9.343 13.2426C9.24749 13.3348 9.17131 13.4452 9.1189 13.5672C9.06649 13.6892 9.0389 13.8204 9.03775 13.9532C9.0366 14.086 9.0619 14.2176 9.11218 14.3405C9.16246 14.4634 9.23671 14.5751 9.3306 14.669C9.4245 14.7629 9.53615 14.8371 9.65905 14.8874C9.78194 14.9377 9.91362 14.963 10.0464 14.9618C10.1792 14.9607 10.3104 14.9331 10.4324 14.8807C10.5544 14.8283 10.6648 14.7521 10.757 14.6566L19.891 5.52259C20.6141 6.53763 21.0019 7.75332 21 8.99959V18.9996C21 19.53 20.7893 20.0387 20.4142 20.4138C20.0391 20.7889 19.5304 20.9996 19 20.9996H5C4.46957 20.9996 3.96086 20.7889 3.58579 20.4138C3.21071 20.0387 3 19.53 3 18.9996V4.99959C3 4.46916 3.21071 3.96045 3.58579 3.58538C3.96086 3.2103 4.46957 2.99959 5 2.99959H15ZM21.657 2.34259C21.8445 2.53012 21.9498 2.78443 21.9498 3.04959C21.9498 3.31476 21.8445 3.56906 21.657 3.75659L19.89 5.52259C19.5006 4.97591 19.0227 4.49801 18.476 4.10859L20.242 2.34259C20.4295 2.15512 20.6838 2.0498 20.949 2.0498C21.2142 2.0498 21.4695 2.15512 21.657 2.34259Z" fill="#515151"/>
</g>
<defs>
<clipPath id="clip0_97_7668">
<rect width="24" height="24" fill="white"/>
</clipPath>
</defs>
</svg>
