<svg width="22" height="22" viewBox="0 0 22 22" fill="none" xmlns="http://www.w3.org/2000/svg">
<path d="M6.87565 7.33301C7.605 7.33301 8.30447 7.04328 8.82019 6.52755C9.33592 6.01183 9.62565 5.31235 9.62565 4.58301C9.62565 3.85366 9.33592 3.15419 8.82019 2.63846C8.30447 2.12274 7.605 1.83301 6.87565 1.83301C6.14631 1.83301 5.44683 2.12274 4.93111 2.63846C4.41538 3.15419 4.12565 3.85366 4.12565 4.58301C4.12565 5.31235 4.41538 6.01183 4.93111 6.52755C5.44683 7.04328 6.14631 7.33301 6.87565 7.33301ZM1.83398 9.87034C1.83398 8.97384 2.55907 8.24967 3.45465 8.24967H7.8244C7.5021 8.80684 7.33291 9.43934 7.33398 10.083C7.33337 10.6033 7.44376 11.1177 7.65779 11.592C7.87183 12.0662 8.18457 12.4893 8.57515 12.833H7.57965C7.06302 12.833 6.55868 12.9906 6.13397 13.2848C5.70927 13.579 5.3844 13.9957 5.20273 14.4793C3.82957 14.1438 2.97798 13.3949 2.47657 12.5608C1.83398 11.491 1.83398 10.391 1.83398 10.1994V9.87034ZM14.6673 10.083C14.6684 9.43933 14.4992 8.80682 14.1769 8.24967H18.5466C19.4432 8.24967 20.1673 8.97476 20.1673 9.87034V10.2003C20.1673 10.3901 20.1673 11.491 19.5257 12.5608C19.0233 13.3949 18.1717 14.1438 16.7986 14.4793C16.617 13.9956 16.2922 13.5788 15.8674 13.2846C15.4427 12.9905 14.9383 12.8329 14.4217 12.833H13.4262C13.8167 12.4893 14.1295 12.0662 14.3435 11.592C14.5575 11.1177 14.6679 10.6033 14.6673 10.083ZM17.8757 4.58301C17.8757 5.31235 17.5859 6.01183 17.0702 6.52755C16.5545 7.04328 15.855 7.33301 15.1257 7.33301C14.3963 7.33301 13.6968 7.04328 13.1811 6.52755C12.6654 6.01183 12.3757 5.31235 12.3757 4.58301C12.3757 3.85366 12.6654 3.15419 13.1811 2.63846C13.6968 2.12274 14.3963 1.83301 15.1257 1.83301C15.855 1.83301 16.5545 2.12274 17.0702 2.63846C17.5859 3.15419 17.8757 3.85366 17.8757 4.58301ZM5.95898 15.3703C5.95898 14.4738 6.68407 13.7497 7.57965 13.7497H14.4217C15.3172 13.7497 16.0423 14.4748 16.0423 15.3703V15.7003C16.0423 15.8901 16.0423 16.991 15.4007 18.0608C14.7196 19.1919 13.3959 20.1663 11.0007 20.1663C8.6054 20.1663 7.28082 19.1919 6.60065 18.0608C5.95898 16.991 5.95898 15.891 5.95898 15.6994V15.3703ZM11.0007 12.833C11.3618 12.833 11.7194 12.7619 12.053 12.6237C12.3867 12.4855 12.6898 12.2829 12.9452 12.0276C13.2006 11.7722 13.4031 11.469 13.5413 11.1354C13.6795 10.8017 13.7507 10.4441 13.7507 10.083C13.7507 9.72187 13.6795 9.36427 13.5413 9.03063C13.4031 8.69698 13.2006 8.39382 12.9452 8.13846C12.6898 7.8831 12.3867 7.68054 12.053 7.54234C11.7194 7.40414 11.3618 7.33301 11.0007 7.33301C10.2713 7.33301 9.57183 7.62274 9.05611 8.13846C8.54038 8.65419 8.25065 9.35366 8.25065 10.083C8.25065 10.8124 8.54038 11.5118 9.05611 12.0276C9.57183 12.5433 10.2713 12.833 11.0007 12.833Z" fill="black"/>
</svg>
