<svg width="168" height="31" viewBox="0 0 168 31" fill="none" xmlns="http://www.w3.org/2000/svg">
<path d="M3.825 19.75L5.45 12.4477L0 7.53618L7.2 6.88651L10 0L12.8 6.88651L20 7.53618L14.55 12.4477L16.175 19.75L10 15.878L3.825 19.75Z" fill="black"/>
<path d="M37.4246 19.75L39.0496 12.4477L33.5996 7.53618L40.7996 6.88651L43.5996 0L46.3996 6.88651L53.5996 7.53618L48.1496 12.4477L49.7746 19.75L43.5996 15.878L37.4246 19.75Z" fill="black"/>
<path d="M71.8055 19.75L73.4305 12.4477L67.9805 7.53618L75.1805 6.88651L77.9805 0L80.7805 6.88651L87.9805 7.53618L82.5305 12.4477L84.1555 19.75L77.9805 15.878L71.8055 19.75Z" fill="black"/>
<path d="M106.188 19.75L107.813 12.4477L102.363 7.53618L109.563 6.88651L112.363 0L115.163 6.88651L122.363 7.53618L116.913 12.4477L118.538 19.75L112.363 15.878L106.188 19.75Z" fill="black"/>
<path d="M140.569 19.75L142.194 12.4477L136.744 7.53618L143.944 6.88651L146.744 0L149.544 6.88651L156.744 7.53618L151.294 12.4477L152.919 19.75L146.744 15.878L140.569 19.75Z" fill="black"/>
</svg>
