<svg width="108" height="20" viewBox="0 0 108 20" fill="none" xmlns="http://www.w3.org/2000/svg">
<path d="M4.325 19.75L5.95 12.4477L0.5 7.53618L7.7 6.88651L10.5 0L13.3 6.88651L20.5 7.53618L15.05 12.4477L16.675 19.75L10.5 15.878L4.325 19.75Z" fill="black"/>
<path d="M25.825 19.75L27.45 12.4477L22 7.53618L29.2 6.88651L32 0L34.8 6.88651L42 7.53618L36.55 12.4477L38.175 19.75L32 15.878L25.825 19.75Z" fill="black"/>
<path d="M47.825 19.75L49.45 12.4477L44 7.53618L51.2 6.88651L54 0L56.8 6.88651L64 7.53618L58.55 12.4477L60.175 19.75L54 15.878L47.825 19.75Z" fill="black"/>
<path d="M69.825 19.75L71.45 12.4477L66 7.53618L73.2 6.88651L76 0L78.8 6.88651L86 7.53618L80.55 12.4477L82.175 19.75L76 15.878L69.825 19.75Z" fill="black"/>
<path d="M91.825 19.75L93.45 12.4477L88 7.53618L95.2 6.88651L98 0L100.8 6.88651L108 7.53618L102.55 12.4477L104.175 19.75L98 15.878L91.825 19.75Z" fill="black"/>
</svg>
