<svg width="276" height="276" viewBox="0 0 276 276" fill="none" xmlns="http://www.w3.org/2000/svg">
<g filter="url(#filter0_d_97_7055)">
<circle cx="138" cy="134" r="134" fill="#FFDB58"/>
</g>
<g clip-path="url(#clip0_97_7055)">
<path d="M204.625 138.562C205.945 138.562 207.088 139.011 208.053 139.908C209.018 140.805 209.5 141.867 209.5 143.094C209.5 144.321 209.018 145.383 208.053 146.28C207.088 147.177 205.945 147.625 204.625 147.625C203.305 147.625 202.162 147.177 201.197 146.28C200.232 145.383 199.75 144.321 199.75 143.094C199.75 141.867 200.232 140.805 201.197 139.908C202.162 139.011 203.305 138.562 204.625 138.562ZM158.693 137.217C154.682 134.668 150.365 132.757 145.744 131.482C141.123 130.208 136.375 129.547 131.5 129.5C127.031 129.5 122.715 130.043 118.551 131.128C114.387 132.214 110.502 133.724 106.896 135.66C103.291 137.595 100.016 139.955 97.0703 142.74C94.125 145.525 91.5859 148.593 89.4531 151.944C87.3203 155.295 85.6699 158.906 84.502 162.776C83.334 166.647 82.75 170.659 82.75 174.812H73C73 169.29 73.8887 163.886 75.666 158.599C77.4434 153.313 80.0078 148.427 83.3594 143.943C86.7109 139.459 90.6973 135.471 95.3184 131.978C99.9395 128.485 105.094 125.818 110.781 123.978C107.938 122.278 105.398 120.319 103.164 118.101C100.93 115.883 99 113.452 97.375 110.809C95.75 108.165 94.5566 105.381 93.7949 102.454C93.0332 99.5277 92.6016 96.4596 92.5 93.25C92.5 88.2467 93.5156 83.5503 95.5469 79.1606C97.5781 74.771 100.346 70.9242 103.85 67.6201C107.354 64.3161 111.492 61.7201 116.266 59.832C121.039 57.944 126.117 57 131.5 57C136.883 57 141.936 57.944 146.658 59.832C151.381 61.7201 155.52 64.2925 159.074 67.5493C162.629 70.8062 165.422 74.653 167.453 79.0898C169.484 83.5267 170.5 88.2467 170.5 93.25C170.5 96.4124 170.094 99.4569 169.281 102.383C168.469 105.31 167.25 108.118 165.625 110.809C164 113.499 162.096 115.93 159.912 118.101C157.729 120.272 155.164 122.231 152.219 123.978C156.332 125.346 160.293 127.234 164.102 129.642L158.693 137.217ZM102.25 93.25C102.25 97.026 103.012 100.542 104.535 103.799C106.059 107.056 108.141 109.935 110.781 112.437C113.422 114.939 116.52 116.897 120.074 118.313C123.629 119.729 127.438 120.438 131.5 120.438C135.512 120.438 139.295 119.729 142.85 118.313C146.404 116.897 149.502 114.962 152.143 112.508C154.783 110.053 156.891 107.174 158.465 103.87C160.039 100.566 160.801 97.026 160.75 93.25C160.75 89.5212 159.988 86.0047 158.465 82.7007C156.941 79.3966 154.859 76.5174 152.219 74.063C149.578 71.6086 146.455 69.6497 142.85 68.1865C139.244 66.7233 135.461 66.0153 131.5 66.0625C127.438 66.0625 123.654 66.7705 120.15 68.1865C116.646 69.6025 113.549 71.5378 110.857 73.9922C108.166 76.4466 106.059 79.3494 104.535 82.7007C103.012 86.0519 102.25 89.5684 102.25 93.25ZM199.75 120.438C203.762 120.438 207.545 121.146 211.1 122.562C214.654 123.978 217.752 125.913 220.393 128.367C223.033 130.822 225.141 133.724 226.715 137.076C228.289 140.427 229.051 143.943 229 147.625C229 151.401 228.238 154.917 226.715 158.174C225.191 161.431 223.109 164.31 220.469 166.812C217.828 169.314 214.705 171.272 211.1 172.688C207.494 174.104 203.711 174.812 199.75 174.812C196.449 174.812 193.199 174.27 190 173.184V183.875H180.25V192.938H170.5V202H141.25V182.034L171.338 153.997C170.779 151.826 170.5 149.702 170.5 147.625C170.5 143.896 171.262 140.38 172.785 137.076C174.309 133.772 176.391 130.892 179.031 128.438C181.672 125.984 184.77 124.025 188.324 122.562C191.879 121.098 195.688 120.39 199.75 120.438ZM199.75 165.75C202.441 165.75 204.955 165.278 207.291 164.334C209.627 163.39 211.709 162.092 213.537 160.44C215.365 158.788 216.762 156.876 217.727 154.705C218.691 152.534 219.199 150.174 219.25 147.625C219.25 145.123 218.742 142.787 217.727 140.616C216.711 138.444 215.314 136.509 213.537 134.81C211.76 133.111 209.703 131.813 207.367 130.916C205.031 130.019 202.492 129.547 199.75 129.5C197.059 129.5 194.545 129.972 192.209 130.916C189.873 131.86 187.791 133.158 185.963 134.81C184.135 136.462 182.738 138.374 181.773 140.545C180.809 142.716 180.301 145.076 180.25 147.625C180.25 149.277 180.479 150.787 180.936 152.156C181.393 153.525 181.926 154.965 182.535 156.475L151 185.716V192.938H160.75V183.875H170.5V174.812H180.25V168.37L187.334 161.856C189.365 162.942 191.32 163.862 193.199 164.617C195.078 165.372 197.262 165.75 199.75 165.75Z" fill="black"/>
</g>
<defs>
<filter id="filter0_d_97_7055" x="0" y="0" width="276" height="276" filterUnits="userSpaceOnUse" color-interpolation-filters="sRGB">
<feFlood flood-opacity="0" result="BackgroundImageFix"/>
<feColorMatrix in="SourceAlpha" type="matrix" values="0 0 0 0 0 0 0 0 0 0 0 0 0 0 0 0 0 0 127 0" result="hardAlpha"/>
<feOffset dy="4"/>
<feGaussianBlur stdDeviation="2"/>
<feComposite in2="hardAlpha" operator="out"/>
<feColorMatrix type="matrix" values="0 0 0 0 0 0 0 0 0 0 0 0 0 0 0 0 0 0 0.25 0"/>
<feBlend mode="normal" in2="BackgroundImageFix" result="effect1_dropShadow_97_7055"/>
<feBlend mode="normal" in="SourceGraphic" in2="effect1_dropShadow_97_7055" result="shape"/>
</filter>
<clipPath id="clip0_97_7055">
<rect width="156" height="145" fill="white" transform="translate(73 57)"/>
</clipPath>
</defs>
</svg>
