<svg width="276" height="276" viewBox="0 0 276 276" fill="none" xmlns="http://www.w3.org/2000/svg">
<g filter="url(#filter0_d_97_7070)">
<circle cx="138" cy="134" r="134" fill="#FFDB58"/>
</g>
<path d="M120.002 57.1428C108.111 57.0799 96.5339 68.5308 101.819 82.7499H81.8743C78.537 82.7499 75.3364 84.0757 72.9766 86.4355C70.6168 88.7953 69.291 91.9959 69.291 95.3333V107.917C69.291 109.585 69.9539 111.186 71.1338 112.365C72.3137 113.545 73.914 114.208 75.5827 114.208H132.208V95.3333H144.791V114.208H201.416C203.085 114.208 204.685 113.545 205.865 112.365C207.045 111.186 207.708 109.585 207.708 107.917V95.3333C207.708 91.9959 206.382 88.7953 204.022 86.4355C201.662 84.0757 198.462 82.7499 195.124 82.7499H175.18C182.541 62.1762 154.858 47.6424 142.086 65.3849L138.499 70.1666L134.913 65.2591C130.949 59.6595 125.476 57.2058 120.002 57.1428ZM119.624 70.1666C125.224 70.1666 128.055 76.9616 124.091 80.9253C120.128 84.8891 113.333 82.0578 113.333 76.4583C113.333 74.7896 113.996 73.1893 115.175 72.0094C116.355 70.8295 117.956 70.1666 119.624 70.1666ZM157.374 70.1666C162.974 70.1666 165.805 76.9616 161.841 80.9253C157.878 84.8891 151.083 82.0578 151.083 76.4583C151.083 74.7896 151.746 73.1893 152.925 72.0094C154.105 70.8295 155.706 70.1666 157.374 70.1666ZM75.5827 120.5V170.833C75.5827 174.171 76.9084 177.371 79.2683 179.731C81.6281 182.091 84.8287 183.417 88.166 183.417H188.833C192.17 183.417 195.371 182.091 197.73 179.731C200.09 177.371 201.416 174.171 201.416 170.833V120.5H144.791V170.833H132.208V120.5H75.5827Z" fill="black"/>
<defs>
<filter id="filter0_d_97_7070" x="0" y="0" width="276" height="276" filterUnits="userSpaceOnUse" color-interpolation-filters="sRGB">
<feFlood flood-opacity="0" result="BackgroundImageFix"/>
<feColorMatrix in="SourceAlpha" type="matrix" values="0 0 0 0 0 0 0 0 0 0 0 0 0 0 0 0 0 0 127 0" result="hardAlpha"/>
<feOffset dy="4"/>
<feGaussianBlur stdDeviation="2"/>
<feComposite in2="hardAlpha" operator="out"/>
<feColorMatrix type="matrix" values="0 0 0 0 0 0 0 0 0 0 0 0 0 0 0 0 0 0 0.25 0"/>
<feBlend mode="normal" in2="BackgroundImageFix" result="effect1_dropShadow_97_7070"/>
<feBlend mode="normal" in="SourceGraphic" in2="effect1_dropShadow_97_7070" result="shape"/>
</filter>
</defs>
</svg>
