<svg width="276" height="276" viewBox="0 0 276 276" fill="none" xmlns="http://www.w3.org/2000/svg">
<g filter="url(#filter0_d_97_7063)">
<circle cx="138" cy="134" r="134" fill="#FFDB58"/>
</g>
<path d="M155.878 44.8604C172.195 44.8526 188.022 50.4392 200.718 60.6886C213.415 70.9379 222.214 85.2303 225.648 101.182C229.082 117.134 226.943 133.781 219.588 148.347C212.233 162.912 200.107 174.516 185.232 181.223C180.477 191.735 173.243 200.937 164.151 208.039C155.059 215.142 144.38 219.933 133.03 222.002C121.68 224.071 109.997 223.356 98.9839 219.918C87.9706 216.481 77.9554 210.423 69.7974 202.265C61.6393 194.107 55.5817 184.092 52.1442 173.079C48.7066 162.066 47.9917 150.383 50.0607 139.033C52.1298 127.682 56.921 117.003 64.0234 107.911C71.1259 98.8194 80.3277 91.5859 90.8397 86.8311C96.4941 74.32 105.638 63.7057 117.174 56.2613C128.71 48.8168 142.148 44.8582 155.878 44.8604ZM129.128 107.277H111.295V116.194C105.5 116.18 99.9271 118.423 95.758 122.447C91.5888 126.472 89.1508 131.962 88.9606 137.754C88.7705 143.546 90.8431 149.184 94.7393 153.473C98.6355 157.763 104.049 160.366 109.832 160.732L111.295 160.777H129.128L129.93 160.848C130.958 161.034 131.888 161.576 132.558 162.377C133.228 163.179 133.594 164.191 133.594 165.235C133.594 166.28 133.228 167.291 132.558 168.093C131.888 168.895 130.958 169.436 129.93 169.622L129.128 169.694H93.4612V187.527H111.295V196.444H129.128V187.527C134.923 187.541 140.495 185.298 144.664 181.273C148.834 177.249 151.272 171.759 151.462 165.967C151.652 160.175 149.579 154.537 145.683 150.248C141.787 145.958 136.373 143.354 130.59 142.988L129.128 142.944H111.295L110.492 142.872C109.464 142.686 108.534 142.145 107.865 141.343C107.195 140.541 106.828 139.53 106.828 138.485C106.828 137.441 107.195 136.429 107.865 135.627C108.534 134.826 109.464 134.284 110.492 134.098L111.295 134.027H146.961V116.194H129.128V107.277ZM155.878 62.6937C148.321 62.6836 140.848 64.2785 133.954 67.3728C127.06 70.4671 120.902 74.9902 115.887 80.6429C125.965 80.0311 136.058 81.5658 145.499 85.1454C154.94 88.725 163.513 94.268 170.652 101.408C177.791 108.548 183.333 117.122 186.912 126.563C190.49 136.004 192.024 146.098 191.411 156.176C199.518 148.968 205.242 139.466 207.825 128.929C210.407 118.393 209.726 107.321 205.87 97.1809C202.015 87.0409 195.169 78.3125 186.239 72.1532C177.309 65.994 166.717 62.695 155.869 62.6937H155.878Z" fill="black"/>
<defs>
<filter id="filter0_d_97_7063" x="0" y="0" width="276" height="276" filterUnits="userSpaceOnUse" color-interpolation-filters="sRGB">
<feFlood flood-opacity="0" result="BackgroundImageFix"/>
<feColorMatrix in="SourceAlpha" type="matrix" values="0 0 0 0 0 0 0 0 0 0 0 0 0 0 0 0 0 0 127 0" result="hardAlpha"/>
<feOffset dy="4"/>
<feGaussianBlur stdDeviation="2"/>
<feComposite in2="hardAlpha" operator="out"/>
<feColorMatrix type="matrix" values="0 0 0 0 0 0 0 0 0 0 0 0 0 0 0 0 0 0 0.25 0"/>
<feBlend mode="normal" in2="BackgroundImageFix" result="effect1_dropShadow_97_7063"/>
<feBlend mode="normal" in="SourceGraphic" in2="effect1_dropShadow_97_7063" result="shape"/>
</filter>
</defs>
</svg>
