<svg width="22" height="22" viewBox="0 0 22 22" fill="none" xmlns="http://www.w3.org/2000/svg">
<path d="M5.54007 0.92607C5.51828 0.926585 5.49667 0.927917 5.47544 0.930796C4.2012 1.09631 3.20635 2.48141 3.20635 4.15298C3.20635 5.07883 3.52389 5.90555 4.01274 6.49478C1.36252 6.99291 1.16211 11.4551 1.16211 14.5878H2.99997L3.48758 21.1259H8.15742L8.58861 14.5879H10.3328C10.3328 11.4465 10.396 6.90577 7.50103 6.45731C7.96896 5.87091 8.26987 5.05597 8.26987 4.15298C8.26987 2.36995 7.13356 0.930753 5.73802 0.930753C5.67258 0.930753 5.60538 0.92448 5.54002 0.926027L5.54007 0.92607ZM15.8452 0.92607C15.8234 0.926585 15.8018 0.927917 15.7806 0.930796C14.5063 1.09635 13.5115 2.48141 13.5115 4.15302C13.5115 5.07887 13.829 5.90559 14.3179 6.49482C11.6676 6.99296 11.4673 11.4551 11.4673 14.5879H12.7702L12.3333 14.0971C12.3199 11.8697 12.4131 10.0073 13.3648 8.27549L13.2985 14.5879H13.3051L13.7927 21.1259H17.4886L14.6513 20.61C14.141 16.1254 13.8606 11.778 14.4756 7.36017C14.4756 7.36017 14.8819 7.09935 15.5081 6.78456C14.8998 6.2655 14.4961 5.35628 14.4961 4.32052C14.4961 2.70644 15.4757 1.39808 16.684 1.39808C17.0659 1.39808 17.4248 1.52896 17.7372 1.75868C17.2882 1.24391 16.6939 0.930753 16.0432 0.930753C15.9777 0.930753 15.9105 0.924523 15.8452 0.92607ZM18.8183 8.28696L18.8907 14.6126L19.8499 14.6013C19.8632 12.374 19.77 10.0188 18.8183 8.28705L18.8183 8.28696ZM18.8907 14.6126H18.8906L18.8907 14.6128V14.6126Z" fill="black"/>
</svg>
