<svg width="22" height="22" viewBox="0 0 22 22" fill="none" xmlns="http://www.w3.org/2000/svg">
<path d="M20.1673 2.75H1.83398V8.25H2.75065V18.3333C2.75065 18.8196 2.94381 19.2859 3.28762 19.6297C3.63144 19.9735 4.09775 20.1667 4.58398 20.1667H17.4173C17.9035 20.1667 18.3699 19.9735 18.7137 19.6297C19.0575 19.2859 19.2507 18.8196 19.2507 18.3333V8.25H20.1673V2.75ZM3.66732 4.58333H18.334V6.41667H3.66732V4.58333ZM17.4173 18.3333H4.58398V8.25H17.4173V18.3333ZM8.25065 10.0833H13.7507C13.7507 10.5696 13.5575 11.0359 13.2137 11.3797C12.8699 11.7235 12.4035 11.9167 11.9173 11.9167H10.084C9.59775 11.9167 9.13144 11.7235 8.78762 11.3797C8.44381 11.0359 8.25065 10.5696 8.25065 10.0833Z" fill="black"/>
</svg>
