<svg width="24" height="24" viewBox="0 0 24 24" fill="none" xmlns="http://www.w3.org/2000/svg">
<path d="M11 15.3584H10.949C10.6973 15.3584 10.4559 15.2584 10.278 15.0804C10.1 14.9025 10 14.6611 10 14.4094C10 14.1442 9.89464 13.8898 9.70711 13.7023C9.51957 13.5148 9.26522 13.4094 9 13.4094C8.73478 13.4094 8.48043 13.5148 8.29289 13.7023C8.10536 13.8898 8 14.1442 8 14.4094C8 15.1915 8.3107 15.9416 8.86374 16.4947C9.41679 17.0477 10.1669 17.3584 10.949 17.3584H11V18.3584C11 18.6236 11.1054 18.878 11.2929 19.0655C11.4804 19.253 11.7348 19.3584 12 19.3584C12.2652 19.3584 12.5196 19.253 12.7071 19.0655C12.8946 18.878 13 18.6236 13 18.3584V17.3584C13.7956 17.3584 14.5587 17.0423 15.1213 16.4797C15.6839 15.9171 16 15.154 16 14.3584C16 13.5627 15.6839 12.7997 15.1213 12.2371C14.5587 11.6745 13.7956 11.3584 13 11.3584V9.3584H13.022C13.562 9.3584 14 9.7964 14 10.3364C14 10.6016 14.1054 10.856 14.2929 11.0435C14.4804 11.231 14.7348 11.3364 15 11.3364C15.2652 11.3364 15.5196 11.231 15.7071 11.0435C15.8946 10.856 16 10.6016 16 10.3364C16 9.54658 15.6862 8.78912 15.1278 8.23063C14.5693 7.67215 13.8118 7.3584 13.022 7.3584H13V6.3584C13 6.09318 12.8946 5.83883 12.7071 5.65129C12.5196 5.46376 12.2652 5.3584 12 5.3584C11.7348 5.3584 11.4804 5.46376 11.2929 5.65129C11.1054 5.83883 11 6.09318 11 6.3584V7.3584C10.606 7.3584 10.2159 7.436 9.85195 7.58676C9.48797 7.73752 9.15726 7.9585 8.87868 8.23708C8.6001 8.51565 8.37913 8.84637 8.22836 9.21035C8.0776 9.57433 8 9.96443 8 10.3584C8 10.7524 8.0776 11.1425 8.22836 11.5064C8.37913 11.8704 8.6001 12.2011 8.87868 12.4797C9.15726 12.7583 9.48797 12.9793 9.85195 13.13C10.2159 13.2808 10.606 13.3584 11 13.3584V15.3584ZM13 15.3584V13.3584C13.2652 13.3584 13.5196 13.4638 13.7071 13.6513C13.8946 13.8388 14 14.0932 14 14.3584C14 14.6236 13.8946 14.878 13.7071 15.0655C13.5196 15.253 13.2652 15.3584 13 15.3584ZM11 9.3584V11.3584C10.7348 11.3584 10.4804 11.253 10.2929 11.0655C10.1054 10.878 10 10.6236 10 10.3584C10 10.0932 10.1054 9.83883 10.2929 9.65129C10.4804 9.46376 10.7348 9.3584 11 9.3584ZM12 22.3584C6.477 22.3584 2 17.8814 2 12.3584C2 6.8354 6.477 2.3584 12 2.3584C17.523 2.3584 22 6.8354 22 12.3584C22 17.8814 17.523 22.3584 12 22.3584Z" fill="black"/>
</svg>
