<svg width="50" height="50" viewBox="0 0 50 50" fill="none" xmlns="http://www.w3.org/2000/svg">
<g clip-path="url(#clip0_97_7726)">
<path d="M1.06641 24.7003C1.06523 28.9013 2.17148 33.0032 4.275 36.6187L0.865234 48.9718L13.6059 45.6571C17.1297 47.5606 21.078 48.558 25.0902 48.5582H25.1008C38.3459 48.5582 49.1277 37.8638 49.1334 24.7191C49.1359 18.3495 46.6383 12.36 42.1004 7.85378C37.5633 3.34796 31.5291 0.865212 25.0998 0.862305C11.8531 0.862305 1.07207 11.5561 1.0666 24.7003" fill="url(#paint0_linear_97_7726)"/>
<path d="M0.208984 24.693C0.207617 29.0452 1.35352 33.2938 3.53203 37.0388L0 49.8347L13.1975 46.4012C16.8338 48.3684 20.9279 49.4056 25.0939 49.4072H25.1047C38.825 49.4072 49.9941 38.3281 50 24.7128C50.0023 18.1143 47.4148 11.9095 42.7148 7.24186C38.0143 2.57481 31.7643 0.00271318 25.1047 0C11.382 0 0.214453 11.0775 0.208984 24.693ZM8.06836 36.3938L7.57559 35.6176C5.5041 32.3494 4.41074 28.5727 4.4123 24.6946C4.4168 13.3777 13.6988 4.17054 25.1125 4.17054C30.6398 4.17287 35.8344 6.31085 39.7414 10.1899C43.6482 14.0694 45.798 19.2264 45.7967 24.7112C45.7916 36.0281 36.5094 45.2364 25.1047 45.2364H25.0965C21.383 45.2345 17.741 44.245 14.5648 42.375L13.809 41.9302L5.97734 43.9676L8.06836 36.3936V36.3938Z" fill="url(#paint1_linear_97_7726)"/>
<path d="M18.8828 14.3699C18.4168 13.3422 17.9264 13.3214 17.4832 13.3034C17.1203 13.2879 16.7055 13.2891 16.291 13.2891C15.8762 13.2891 15.2021 13.4439 14.6324 14.0612C14.0621 14.679 12.4551 16.172 12.4551 19.2087C12.4551 22.2455 14.6842 25.1802 14.9949 25.5924C15.3061 26.0038 19.2982 32.4348 25.6209 34.9089C30.8756 36.9649 31.9449 36.5559 33.0854 36.4528C34.226 36.3501 36.7658 34.9602 37.284 33.5189C37.8025 32.0778 37.8025 30.8426 37.6471 30.5844C37.4916 30.3273 37.0768 30.1728 36.4547 29.8643C35.8324 29.5556 32.7742 28.0623 32.2041 27.8563C31.6338 27.6505 31.2191 27.5478 30.8043 28.1658C30.3895 28.7829 29.1982 30.1728 28.8352 30.5844C28.4725 30.997 28.1094 31.0484 27.4875 30.7397C26.865 30.43 24.8617 29.779 22.485 27.6765C20.6357 26.0404 19.3873 24.0201 19.0244 23.4021C18.6615 22.785 18.9855 22.4505 19.2975 22.143C19.577 21.8664 19.9197 21.4222 20.2311 21.062C20.5412 20.7015 20.6447 20.4443 20.8521 20.0327C21.0598 19.6207 20.9559 19.2602 20.8006 18.9515C20.6447 18.6428 19.4359 15.5902 18.8828 14.3699Z" fill="white"/>
</g>
<defs>
<linearGradient id="paint0_linear_97_7726" x1="2414.27" y1="4811.81" x2="2414.27" y2="0.862305" gradientUnits="userSpaceOnUse">
<stop stop-color="#1FAF38"/>
<stop offset="1" stop-color="#60D669"/>
</linearGradient>
<linearGradient id="paint1_linear_97_7726" x1="2500" y1="4983.47" x2="2500" y2="0" gradientUnits="userSpaceOnUse">
<stop stop-color="#F9F9F9"/>
<stop offset="1" stop-color="white"/>
</linearGradient>
<clipPath id="clip0_97_7726">
<rect width="50" height="50" fill="white"/>
</clipPath>
</defs>
</svg>
