<svg width="216" height="231" viewBox="0 0 216 231" fill="none" xmlns="http://www.w3.org/2000/svg">
<path d="M146.07 173.25L108 148.706L69.93 173.25L80.01 126.954L46.44 95.865L90.72 91.8225L108 48.125L125.28 91.7262L169.56 95.7687L135.99 126.858L146.07 173.25ZM108 19.25C58.23 19.25 18 62.5625 18 115.5C18 141.027 27.4821 165.509 44.3604 183.559C52.7177 192.497 62.6392 199.586 73.5585 204.423C84.4778 209.26 96.181 211.75 108 211.75C131.869 211.75 154.761 201.609 171.64 183.559C188.518 165.509 198 141.027 198 115.5C198 102.86 195.672 90.3443 191.149 78.6667C186.626 66.9891 179.997 56.3786 171.64 47.441C163.282 38.5033 153.361 31.4136 142.442 26.5766C131.522 21.7396 119.819 19.25 108 19.25Z" fill="#FFC727"/>
</svg>
