<svg width="376" height="288" viewBox="0 0 376 288" fill="none" xmlns="http://www.w3.org/2000/svg">
<g opacity="0.3">
<path d="M81.2534 276.257C80.6712 272.748 76.1702 266.154 76.1702 266.146C76.1702 266.137 72.6946 270.426 72.5295 270.729C70.4006 274.195 68.3413 282.114 71.313 285.562C71.8244 286.122 72.4485 286.566 73.1445 286.868C73.8404 287.17 74.5924 287.322 75.3512 287.314C76.11 287.305 76.8585 287.137 77.5477 286.821C78.2369 286.504 78.8512 286.046 79.3504 285.476C81.5488 283.188 81.7486 279.246 81.2534 276.257Z" fill="black"/>
<path d="M99.1801 261.371C97.7551 258.269 92.1332 253.417 91.6814 253.036C94.4547 249.835 97.012 246.454 99.3365 242.916C100.709 240.862 102.021 238.748 103.316 236.617C102.873 237.674 102.447 238.627 102.447 238.766C101.318 242.665 101.431 250.896 105.21 253.4C105.849 253.805 106.567 254.071 107.316 254.18C108.065 254.29 108.829 254.241 109.558 254.037C110.287 253.833 110.964 253.477 111.546 252.994C112.128 252.511 112.601 251.911 112.935 251.234C114.456 248.409 113.604 244.553 112.335 241.798C111.067 239.043 106.34 234.78 105.071 233.68C105.567 232.813 106.062 232.033 106.549 231.21C108.869 227.251 111.171 223.282 113.552 219.47C114.421 218.118 115.29 216.827 116.159 215.528C115.759 216.472 115.438 217.261 115.403 217.399C114.264 221.289 114.377 229.486 118.157 232.025C118.796 232.429 119.513 232.694 120.261 232.804C121.01 232.913 121.773 232.865 122.501 232.661C123.23 232.458 123.907 232.104 124.49 231.623C125.072 231.141 125.546 230.543 125.882 229.867C127.402 227.034 126.551 223.178 125.282 220.423C124.014 217.668 119.739 213.821 118.244 212.504C119.183 211.204 120.112 209.904 121.077 208.674C121.746 207.808 122.345 207.019 123.067 206.231L125.152 203.883C126.525 202.436 127.941 200.928 129.323 199.55C130.27 198.589 131.2 197.688 132.129 196.769C131.26 198.104 129.67 200.746 129.523 200.98C127.785 204.662 126.681 212.772 130.027 215.857C130.597 216.353 131.266 216.724 131.99 216.946C132.714 217.167 133.476 217.234 134.227 217.143C134.979 217.051 135.703 216.803 136.352 216.414C137.001 216.026 137.56 215.505 137.995 214.886C139.924 212.287 139.672 208.38 138.863 205.468C137.942 202.262 133.337 196.804 132.781 196.145C134.319 194.646 135.84 193.191 137.291 191.813C138.368 190.817 139.402 189.872 140.41 188.971L138.863 186.597C137.76 187.628 136.622 188.711 135.431 189.864C133.858 191.389 132.208 193.044 130.522 194.759C128.645 193.439 126.693 192.229 124.674 191.137C125.543 187.819 124.752 181.217 124.674 180.367C126.794 179.96 128.854 179.588 130.809 179.267L133.806 178.791L132.173 176.278L130.339 176.616C128.184 177.014 125.891 177.482 123.544 178.002C123.223 177.188 120.599 170.551 118.201 168.211C116.028 166.097 112.666 164.009 109.512 164.486C108.76 164.574 108.036 164.819 107.385 165.204C106.735 165.59 106.173 166.107 105.736 166.723C105.3 167.339 104.998 168.04 104.85 168.78C104.703 169.52 104.713 170.283 104.88 171.019C106.018 175.42 113.717 178.271 117.784 178.513C118.018 178.513 120.634 178.392 122.285 178.288C121.329 178.496 120.39 178.695 119.408 178.921C117.453 179.362 115.524 179.865 113.439 180.393L110.424 181.26C109.407 181.537 108.373 181.953 107.331 182.3C104.941 183.166 102.569 184.119 100.188 185.15C99.7971 183.417 98.3112 177.422 96.4778 174.996C94.6444 172.569 91.6466 169.996 88.423 169.996C87.6665 169.97 86.913 170.103 86.2114 170.386C85.5097 170.669 84.8757 171.096 84.3504 171.639C83.8251 172.183 83.4204 172.83 83.1624 173.54C82.9045 174.249 82.7991 175.005 82.8532 175.758C83.3137 180.272 90.491 184.258 94.4706 185.107C94.7139 185.159 97.6421 185.453 99.2496 185.583C97.8246 186.216 96.3996 186.84 94.9833 187.533C90.8907 189.517 86.8068 191.649 82.7229 193.763L78.9692 195.669C78.8388 195.062 77.2313 187.871 75.172 185.142C73.3386 182.724 70.3409 180.151 67.1172 180.142C66.3611 180.116 65.6079 180.249 64.9067 180.532C64.2055 180.815 63.5719 181.242 63.0473 181.786C62.5227 182.329 62.1188 182.977 61.8619 183.687C61.6049 184.396 61.5008 185.152 61.5561 185.904C62.008 190.418 69.1852 194.404 73.1648 195.253C73.4603 195.322 77.6658 195.738 78.7433 195.79C75.9801 197.185 73.2256 198.554 70.4451 199.793C66.7023 201.483 62.8536 202.931 58.9233 204.125C58.8625 203.839 57.1855 196.327 55.1088 193.529C53.2841 191.111 50.2776 188.529 47.0626 188.529C46.3063 188.5 45.5523 188.631 44.85 188.913C44.1478 189.194 43.513 189.621 42.9873 190.164C42.4616 190.707 42.0567 191.354 41.7992 192.064C41.5417 192.774 41.4373 193.53 41.4929 194.283C41.9447 198.805 49.122 202.791 53.1016 203.64C53.4144 203.709 57.9414 204.151 58.7669 204.177C58.5323 204.238 58.3064 204.333 58.0805 204.403C54.0997 205.496 50.0284 206.229 45.9157 206.595C43.6565 206.829 41.4755 206.924 39.3554 206.976C39.1903 205.546 38.3735 199.005 36.7486 196.284C35.1238 193.563 32.4996 190.791 29.302 190.436C28.5534 190.325 27.7898 190.374 27.0612 190.578C26.3325 190.781 25.6551 191.136 25.0731 191.618C24.491 192.101 24.0174 192.7 23.6831 193.377C23.3488 194.054 23.1613 194.793 23.1327 195.548C23.0806 200.088 29.7799 204.836 33.6379 206.118C33.8465 206.187 36.0622 206.664 37.6784 206.985C36.7226 206.985 35.732 206.985 34.811 206.985C31.3353 206.985 28.2159 206.707 25.4267 206.465C23.8453 206.317 22.4115 206.153 21.0821 205.988C20.2132 204.662 16.5116 199.377 13.8701 197.74C11.2286 196.102 7.5618 194.82 4.55536 196.007C3.84 196.253 3.18477 196.647 2.63235 197.163C2.07993 197.679 1.64273 198.305 1.34925 199.001C1.05576 199.697 0.912568 200.446 0.929005 201.201C0.945443 201.955 1.12114 202.698 1.44465 203.38C3.49528 207.426 11.637 208.579 15.6514 207.929C15.999 207.868 21.3341 206.395 21.2906 206.326L21.2385 206.248C22.5158 206.439 23.8974 206.621 25.4093 206.794C28.1985 207.097 31.3527 207.409 34.811 207.522C38.533 207.681 42.2612 207.623 45.9765 207.348C50.1429 207.067 54.2754 206.412 58.3238 205.39L58.4715 205.347C57.3332 206.057 54.2399 208.128 54.014 208.319C50.9206 210.918 46.4805 217.85 48.2183 222.035C48.5285 222.724 48.9804 223.34 49.5447 223.843C50.1091 224.347 50.7732 224.727 51.4942 224.958C52.2151 225.189 52.9767 225.267 53.7297 225.185C54.4826 225.104 55.21 224.866 55.8647 224.487C58.6887 222.962 60.1137 219.288 60.583 216.281C61.1043 212.902 59.0971 205.772 58.932 205.208C63.0267 204.071 67.0412 202.664 70.9491 200.997C73.2257 200.036 75.4935 198.996 77.7614 197.93C76.7969 198.571 75.9454 199.152 75.8324 199.247C72.7391 201.847 68.2989 208.778 70.0367 212.963C70.3425 213.647 70.7884 214.26 71.3458 214.762C71.9032 215.264 72.5597 215.645 73.2732 215.879C73.9867 216.113 74.7414 216.196 75.4889 216.122C76.2364 216.048 76.9602 215.819 77.6137 215.45C80.4463 213.933 81.8713 210.251 82.3406 207.253C82.8098 204.255 81.2197 198.095 80.7765 196.483C81.6454 196.067 82.5143 195.66 83.3833 195.236C87.5193 193.208 91.6292 191.172 95.7305 189.292C97.1729 188.633 98.624 188.035 100.075 187.429C99.2062 188.001 98.5111 188.486 98.4068 188.573C95.3134 191.172 90.8733 198.104 92.6111 202.288C92.9202 202.978 93.3716 203.595 93.9358 204.1C94.5 204.604 95.1644 204.984 95.8857 205.216C96.607 205.447 97.3691 205.524 98.1224 205.442C98.8756 205.36 99.6032 205.121 100.258 204.74C103.082 203.216 104.507 199.542 104.976 196.535C105.445 193.529 104.011 187.983 103.49 186.06C104.993 185.488 106.488 184.908 107.965 184.422C108.981 184.11 109.937 183.738 110.98 183.478L114.021 182.664C115.968 182.213 117.975 181.736 119.886 181.347C121.216 181.069 122.493 180.827 123.77 180.575C122.328 181.217 119.521 182.534 119.304 182.672C116.328 184.654 113.913 187.366 112.292 190.548C111.95 190.757 111.628 190.994 111.328 191.259C110.75 191.746 110.281 192.349 109.953 193.029C109.624 193.708 109.442 194.449 109.419 195.203C109.396 195.957 109.533 196.708 109.82 197.406C110.106 198.104 110.537 198.735 111.084 199.256C114.464 202.297 122.467 200.434 125.986 198.389C126.195 198.268 128.297 196.717 129.618 195.721C128.932 196.423 128.263 197.098 127.568 197.835C126.186 199.282 124.848 200.763 123.405 202.349L121.372 204.749C120.677 205.529 120.051 206.482 119.374 207.348C117.853 209.367 116.402 211.49 115.029 213.665C113.76 212.46 109.19 208.25 106.34 207.236C103.49 206.222 99.5451 205.728 96.8601 207.487C96.2138 207.88 95.6579 208.405 95.2286 209.027C94.7992 209.648 94.5061 210.353 94.3684 211.096C94.2307 211.838 94.2514 212.601 94.4292 213.335C94.607 214.068 94.9379 214.757 95.4003 215.354C98.2765 218.881 106.47 218.248 110.259 216.775C110.493 216.68 113.091 215.32 114.508 214.54C113.639 215.848 112.831 217.139 112.031 218.508C109.711 222.416 107.487 226.436 105.254 230.448C104.567 231.678 103.872 232.891 103.177 234.104C102.734 233.671 97.4075 228.55 94.1839 227.415C91.3164 226.401 87.389 225.908 84.704 227.675C84.0577 228.068 83.5018 228.593 83.0724 229.215C82.6431 229.836 82.35 230.541 82.2123 231.284C82.0746 232.026 82.0953 232.789 82.2731 233.523C82.4509 234.257 82.7818 234.945 83.2442 235.542C86.1203 239.06 94.3142 238.428 98.1027 236.955C98.3894 236.842 102.126 234.875 103.047 234.355C101.526 237.041 99.9795 239.701 98.346 242.266C96.1615 245.735 93.7524 249.057 91.134 252.213C90.9254 252.014 85.3904 246.642 82.0973 245.481C79.2299 244.467 75.3024 243.973 72.6174 245.732C71.9711 246.125 71.4152 246.65 70.9859 247.271C70.5565 247.893 70.2634 248.598 70.1257 249.34C69.988 250.083 70.0087 250.846 70.1865 251.579C70.3643 252.313 70.6952 253.001 71.1576 253.599C74.0337 257.126 82.2276 256.493 86.0161 255.02C86.3115 254.899 90.3606 252.785 91.0297 252.343C90.882 252.533 90.743 252.733 90.5866 252.915C87.8743 256.009 84.8908 258.857 81.6715 261.423C79.9337 262.87 78.1958 264.144 76.4059 265.348C75.4761 264.248 71.1924 259.283 68.325 257.862C65.4576 256.441 61.7386 255.618 58.8799 257.082C58.1967 257.396 57.587 257.85 57.0902 258.413C56.5934 258.976 56.2204 259.637 55.9953 260.353C55.7702 261.069 55.6979 261.824 55.7832 262.569C55.8685 263.315 56.1094 264.034 56.4904 264.681C58.9668 268.493 67.178 268.762 71.1055 267.713C71.3227 267.661 73.4255 266.847 74.9548 266.214C74.1554 266.752 73.3473 267.315 72.574 267.809C69.6805 269.672 66.9173 271.205 64.4583 272.54C63.0507 273.285 61.7647 273.934 60.5569 274.532C59.0797 273.917 53.0929 271.534 49.9822 271.621C46.8715 271.708 43.1004 272.652 41.2322 275.269C40.7724 275.868 40.4443 276.557 40.2693 277.291C40.0943 278.025 40.0763 278.787 40.2165 279.529C40.3567 280.27 40.6519 280.974 41.0829 281.594C41.5139 282.214 42.0711 282.736 42.7181 283.127C46.6716 285.38 54.0835 281.845 57.0899 279.107C57.3506 278.873 60.974 274.706 60.9044 274.671H60.8089C61.9819 274.125 63.2418 273.519 64.5973 272.834C67.0911 271.552 69.8977 270.079 72.8346 268.268C76.0322 266.354 79.1135 264.254 82.0625 261.978C85.3793 259.451 88.4618 256.632 91.273 253.556L91.3686 253.443C90.8125 254.647 89.3788 258.087 89.3006 258.365C88.171 262.264 88.2839 270.451 92.055 272.99C92.6939 273.394 93.4108 273.659 94.1592 273.769C94.9076 273.879 95.6708 273.83 96.3992 273.627C97.1276 273.423 97.8049 273.069 98.3873 272.588C98.9697 272.107 99.4441 271.509 99.7797 270.833C101.3 267.982 100.449 264.126 99.1801 261.371Z" fill="black"/>
<path d="M38.6946 207.652C38.6946 207.565 33.4811 209.315 33.1336 209.471C29.4494 211.204 23.3409 216.663 23.9057 221.177C24.0269 221.919 24.3029 222.628 24.716 223.258C25.129 223.888 25.6699 224.424 26.3036 224.832C26.9374 225.24 27.65 225.511 28.3954 225.628C29.1408 225.745 29.9024 225.704 30.6311 225.509C33.7592 224.79 36.114 221.61 37.3565 218.846C38.8076 215.631 38.6946 207.66 38.6946 207.652Z" fill="black"/>
</g>
<g opacity="0.3">
<path d="M267.726 24.4517C269.924 27.2503 277.049 30.8806 277.058 30.8806C277.066 30.8806 278.031 25.4741 278.04 25.1275C278.24 21.0725 276.232 13.1273 271.957 11.5243C271.242 11.2778 270.482 11.1843 269.728 11.2498C268.973 11.3152 268.241 11.5383 267.579 11.9044C266.917 12.2705 266.339 12.7715 265.884 13.3748C265.429 13.9781 265.106 14.6701 264.936 15.406C264.128 18.5079 265.857 22.0776 267.726 24.4517Z" fill="black"/>
<path d="M259.165 46.0867C261.911 48.1228 269.175 49.6824 269.757 49.8124C268.855 53.9504 268.236 58.1451 267.907 62.3671C267.689 64.8278 267.55 67.3058 267.446 69.8012C267.325 68.6575 267.203 67.6351 267.177 67.4965C266.308 63.5282 262.25 56.3973 257.714 55.9815C256.96 55.9321 256.203 56.0418 255.493 56.3035C254.784 56.5651 254.138 56.9728 253.597 57.5C253.056 58.0271 252.632 58.662 252.353 59.3633C252.075 60.0645 251.947 60.8164 251.98 61.57C251.98 64.7758 254.586 67.7564 257.045 69.5586C259.504 71.3608 265.682 72.8511 267.325 73.215C267.325 74.1681 267.246 75.1211 267.22 76.0829C267.09 80.675 266.968 85.2498 266.725 89.738C266.638 91.3236 266.49 92.8745 266.351 94.4341C266.247 93.4204 266.143 92.5626 266.117 92.4326C265.248 88.473 261.199 81.3422 256.654 80.9176C255.899 80.8683 255.143 80.978 254.433 81.2396C253.724 81.5013 253.077 81.9089 252.536 82.4361C251.996 82.9633 251.572 83.5982 251.293 84.2995C251.015 85.0007 250.887 85.7526 250.919 86.5062C250.919 89.712 253.526 92.6926 255.985 94.5034C258.444 96.3143 264.031 97.6486 265.969 98.0818C265.778 99.6761 265.595 101.27 265.335 102.795C265.135 103.844 265.022 104.857 264.761 105.888C264.501 106.92 264.292 107.942 264.066 108.956C263.553 110.879 263.041 112.881 262.493 114.744C262.12 116.052 261.737 117.282 261.364 118.53C261.468 116.953 261.607 113.868 261.59 113.608C261.32 109.562 258.409 101.903 253.995 100.802C253.256 100.638 252.49 100.632 251.748 100.783C251.006 100.934 250.304 101.239 249.688 101.679C249.072 102.119 248.556 102.684 248.174 103.336C247.792 103.988 247.552 104.713 247.47 105.464C247.009 108.635 249.129 111.971 251.267 114.128C253.622 116.502 260.278 119.067 261.112 119.379C260.477 121.441 259.843 123.434 259.218 125.314C258.754 126.7 258.299 128.029 257.853 129.3L260.356 130.643C260.825 129.213 261.303 127.714 261.79 126.129C262.441 124.04 263.093 121.796 263.736 119.492C266.018 119.749 268.313 119.873 270.609 119.864C271.478 123.183 275.319 128.607 275.822 129.3C274.154 130.677 272.529 131.986 270.965 133.207C270.14 133.857 269.349 134.455 268.567 135.062L271.174 136.474L272.625 135.304C274.319 133.927 276.101 132.41 277.917 130.842C278.586 131.405 284.086 135.971 287.31 136.907C290.238 137.722 294.191 137.947 296.755 136.041C297.372 135.603 297.89 135.041 298.275 134.391C298.66 133.741 298.903 133.017 298.989 132.267C299.075 131.516 299.002 130.756 298.774 130.036C298.547 129.316 298.169 128.652 297.667 128.087C294.556 124.768 286.423 125.955 282.748 127.688C282.531 127.792 280.297 129.161 278.907 130.045C279.646 129.404 280.367 128.78 281.123 128.104C282.626 126.787 284.077 125.418 285.65 123.962C286.38 123.226 287.127 122.49 287.874 121.744C288.622 120.999 289.343 120.15 290.09 119.353C291.776 117.464 293.392 115.471 294.973 113.435C296.138 114.735 300.343 119.31 303.124 120.566C305.904 121.822 309.771 122.637 312.595 121.103C313.271 120.764 313.868 120.287 314.347 119.703C314.826 119.119 315.177 118.44 315.376 117.712C315.575 116.984 315.618 116.223 315.503 115.477C315.388 114.731 315.116 114.018 314.706 113.383C312.1 109.632 303.923 109.58 300.022 110.732C299.778 110.801 297.067 111.945 295.599 112.603C296.537 111.364 297.485 110.134 298.406 108.852C301.012 105.152 303.619 101.331 306.156 97.5273L308.528 94.0616C308.946 94.5381 313.82 100.127 316.931 101.487C319.703 102.735 323.578 103.558 326.402 102.015C327.079 101.678 327.677 101.202 328.156 100.619C328.636 100.036 328.987 99.3583 329.186 98.6305C329.386 97.9027 329.429 97.1412 329.313 96.3957C329.197 95.6502 328.924 94.9375 328.513 94.3042C325.907 90.5525 317.73 90.5005 313.829 91.6529C313.533 91.7395 309.641 93.3857 308.676 93.8536C310.414 91.3063 312.152 88.7849 314.029 86.3676C316.497 83.0928 319.176 79.9814 322.049 77.0533C322.24 77.2699 327.306 83.1184 330.495 84.522C333.266 85.7697 337.142 86.5928 339.966 85.0592C340.642 84.7201 341.239 84.2429 341.718 83.6587C342.197 83.0746 342.547 82.3964 342.747 81.6684C342.946 80.9403 342.989 80.1786 342.874 79.4328C342.758 78.687 342.487 77.9737 342.077 77.3392C339.47 73.5875 331.285 73.5356 327.393 74.6879C327.08 74.7746 322.9 76.5508 322.179 76.932C322.344 76.7587 322.501 76.5681 322.674 76.4035C325.625 73.5481 328.824 70.9589 332.232 68.6662C334.109 67.3752 335.977 66.2488 337.811 65.2004C338.68 66.3788 342.503 71.7247 345.231 73.3363C347.96 74.9479 351.609 76.1176 354.581 74.9045C355.291 74.6441 355.939 74.2371 356.481 73.7102C357.022 73.1832 357.447 72.5481 357.726 71.8464C358.004 71.1447 358.132 70.3922 358.099 69.6382C358.066 68.8841 357.874 68.1454 357.535 67.4705C355.389 63.4588 347.23 62.5058 343.233 63.2249C343.016 63.2249 340.843 63.9007 339.271 64.3946C340.14 63.9267 340.965 63.4329 341.773 63.0083C344.814 61.3881 347.699 60.0971 350.262 58.9707C351.722 58.3382 353.052 57.801 354.312 57.3158C355.728 58.0436 361.497 60.9202 364.608 61.0935C367.719 61.2668 371.559 60.6342 373.627 58.1909C374.137 57.6331 374.523 56.9744 374.76 56.2577C374.997 55.541 375.08 54.7825 375.003 54.0318C374.926 53.2811 374.691 52.555 374.313 51.9011C373.935 51.2472 373.423 50.6801 372.811 50.237C369.057 47.6376 361.376 50.5575 358.152 53.0356C357.874 53.2522 353.912 57.0992 353.981 57.1425H354.068C352.852 57.593 351.548 58.0869 350.141 58.6588C347.534 59.7245 344.632 60.9635 341.547 62.5231C338.208 64.1532 334.97 65.9818 331.85 67.999C328.334 70.2428 325.024 72.7944 321.962 75.6237L321.858 75.7277C322.509 74.5666 324.23 71.2655 324.334 70.9969C325.794 67.2105 326.367 59.0313 322.822 56.1894C322.22 55.7321 321.527 55.4065 320.79 55.2339C320.053 55.0614 319.287 55.0457 318.544 55.188C317.8 55.3302 317.095 55.6272 316.474 56.0595C315.853 56.4918 315.331 57.0498 314.941 57.697C313.203 60.383 313.707 64.2993 314.741 67.1499C315.906 70.3644 321.102 75.6583 321.519 76.0829C318.474 79.037 315.63 82.1891 313.003 85.5184C311.465 87.4593 309.98 89.4521 308.511 91.4709C309.041 90.4485 309.51 89.5301 309.562 89.3914C311.014 85.6051 311.596 77.4345 308.042 74.5926C307.44 74.1354 306.748 73.81 306.012 73.6375C305.275 73.465 304.511 73.4494 303.768 73.5917C303.025 73.7339 302.32 74.0309 301.7 74.4632C301.08 74.8954 300.559 75.4533 300.169 76.1002C298.432 78.7862 298.936 82.7025 299.97 85.5531C301.004 88.4037 305.357 93.0478 306.521 94.2175C305.965 94.9973 305.4 95.7684 304.853 96.5482C302.194 100.3 299.57 104.06 296.876 107.665C295.929 108.938 294.947 110.16 293.974 111.382C294.443 110.515 294.843 109.701 294.886 109.58C296.338 105.793 296.911 97.6226 293.366 94.772C292.763 94.3147 292.071 93.9891 291.334 93.8166C290.597 93.644 289.831 93.6283 289.088 93.7706C288.344 93.9129 287.639 94.2098 287.018 94.6422C286.397 95.0745 285.875 95.6324 285.485 96.2796C283.747 98.9656 284.26 102.882 285.294 105.733C286.328 108.583 290.255 112.777 291.637 114.215C290.594 115.437 289.56 116.658 288.5 117.802C287.753 118.556 287.092 119.336 286.302 120.063L284.034 122.23C282.539 123.564 281.001 124.942 279.515 126.198C278.481 127.064 277.482 127.931 276.483 128.737C277.439 127.48 279.263 124.985 279.394 124.76C281.045 121.593 281.858 118.059 281.757 114.492C281.956 114.147 282.121 113.785 282.252 113.409C282.526 112.706 282.648 111.953 282.61 111.199C282.572 110.445 282.375 109.708 282.032 109.035C281.69 108.363 281.209 107.77 280.621 107.295C280.033 106.819 279.351 106.473 278.62 106.278C274.189 105.221 268.063 110.68 265.96 114.146C265.83 114.354 264.726 116.745 264.057 118.227C264.318 117.282 264.579 116.364 264.831 115.393C265.352 113.461 265.813 111.529 266.317 109.441C266.525 108.427 266.734 107.405 266.942 106.365C267.151 105.325 267.29 104.234 267.464 103.159C267.828 100.655 268.08 98.1078 268.272 95.5258C269.966 95.9764 275.996 97.484 279.011 96.9988C282.027 96.5136 285.702 95.0666 287.205 92.2334C287.581 91.5791 287.815 90.8534 287.892 90.1031C287.969 89.3529 287.887 88.5949 287.651 87.8784C287.415 87.1619 287.03 86.5029 286.523 85.9441C286.015 85.3853 285.395 84.9392 284.703 84.6347C280.48 82.9018 273.598 87.3986 270.983 90.5005C270.818 90.6998 269.193 93.0998 268.324 94.4948C268.428 92.9438 268.541 91.4016 268.593 89.8247C268.75 85.2932 268.758 80.6924 268.793 76.1089C268.793 74.7053 268.793 73.3103 268.854 71.9067C269.453 72.0713 276.587 74.0121 279.967 73.4749C282.965 72.9897 286.649 71.5427 288.152 68.7095C288.53 68.0556 288.765 67.3297 288.843 66.5791C288.92 65.8285 288.838 65.0701 288.602 64.3532C288.366 63.6363 287.981 62.9771 287.472 62.4184C286.964 61.8598 286.343 61.4142 285.65 61.1108C281.427 59.3779 274.545 63.8747 271.93 66.9766C271.739 67.2105 269.401 70.7283 268.854 71.6467C268.906 68.5622 268.975 65.495 269.175 62.4624C269.424 58.3729 269.937 54.3036 270.713 50.2803C270.991 50.3583 278.429 52.4204 281.888 51.8659C284.885 51.3807 288.578 49.9337 290.081 47.1004C290.459 46.4465 290.694 45.7206 290.772 44.9701C290.849 44.2195 290.767 43.461 290.531 42.7442C290.295 42.0273 289.91 41.368 289.401 40.8094C288.893 40.2507 288.272 39.8052 287.579 39.5017C283.356 37.7689 276.474 42.2657 273.859 45.3676C273.65 45.6188 271.148 49.3965 270.739 50.1157C270.783 49.8817 270.809 49.6391 270.861 49.4052C271.749 45.3924 272.994 41.4664 274.58 37.6736C275.449 35.5681 276.361 33.6013 277.317 31.7124C278.664 32.2323 284.842 34.5717 288.005 34.4071C291.168 34.2424 294.86 33.2287 296.694 30.5774C297.135 29.9691 297.443 29.2755 297.599 28.5412C297.756 27.8069 297.756 27.0482 297.6 26.3138C297.445 25.5794 297.137 24.8855 296.697 24.2768C296.256 23.6681 295.693 23.1581 295.043 22.7794C291.037 20.622 283.704 24.313 280.767 27.1116C280.602 27.2676 279.15 28.9918 278.108 30.2655C278.551 29.399 278.977 28.5326 279.428 27.7355C281.071 24.7116 282.756 22.0516 284.277 19.7036C285.146 18.3692 285.963 17.1909 286.736 16.0905C288.326 15.9172 294.73 15.1461 297.415 13.5778C300.1 12.0096 302.959 9.37558 303.332 6.19574C303.448 5.44961 303.404 4.68762 303.205 3.9593C303.006 3.23097 302.655 2.55261 302.176 1.96832C301.696 1.38402 301.099 0.906864 300.422 0.567868C299.746 0.228872 299.005 0.0356219 298.249 0.000680175C293.696 -0.0772996 288.891 6.56831 287.579 10.398C287.466 10.7359 286.284 16.1252 286.371 16.1165H286.467C285.693 17.1562 284.885 18.2826 284.025 19.5823C282.461 21.8957 280.706 24.5383 278.994 27.5275C277.113 30.7391 275.421 34.0574 273.928 37.4656C272.237 41.2697 270.888 45.2159 269.897 49.2579V49.4052C269.801 48.0795 269.401 44.3798 269.34 44.0939C268.471 40.1342 264.422 33.0034 259.887 32.5789C259.131 32.5295 258.373 32.6395 257.662 32.9016C256.952 33.1636 256.305 33.5719 255.763 34.0999C255.221 34.6279 254.797 35.2637 254.518 35.966C254.239 36.6683 254.111 37.4214 254.143 38.1761C254.117 41.3039 256.724 44.2758 259.165 46.0867Z" fill="black"/>
<path d="M338.081 64.2738C338.125 64.3431 341.878 60.2968 342.087 60.0196C344.494 56.7444 347.214 49.0158 344.546 45.2901C344.086 44.6918 343.504 44.1968 342.839 43.8375C342.174 43.4781 341.441 43.2624 340.687 43.2044C339.933 43.1464 339.175 43.2473 338.462 43.5007C337.75 43.754 337.099 44.1541 336.552 44.6749C334.145 46.8063 333.615 50.74 333.858 53.7379C334.145 57.3249 338.081 64.2651 338.081 64.2738Z" fill="black"/>
</g>
</svg>
