<svg width="122" height="154" viewBox="0 0 122 154" fill="none" xmlns="http://www.w3.org/2000/svg">
<path d="M29.2788 0.929688H0.787109V74.4212H29.2788V0.929688Z" fill="#263238" stroke="#263238" stroke-linecap="round" stroke-linejoin="round"/>
<path d="M95.8266 12.5485V11.6821C95.8266 8.82804 94.6896 6.09089 92.6657 4.07278C90.6418 2.05466 87.8969 0.920898 85.0347 0.920898H0.75V1.02487C3.34703 1.35969 5.73289 2.62615 7.46159 4.58752C9.19028 6.54888 10.1435 9.07089 10.143 11.6821V30.3972H10.3341V140.002C10.3341 141.701 10.6697 143.383 11.3216 144.952C11.9736 146.522 12.9291 147.948 14.1338 149.149C15.3384 150.35 16.7686 151.303 18.3425 151.953C19.9164 152.603 21.6034 152.938 23.307 152.938H95.8092V12.5745L95.8266 12.5485Z" fill="#DBDBDB" stroke="#263238" stroke-linecap="round" stroke-linejoin="round"/>
<path d="M38.7547 133.721V142.186C38.7524 144.598 37.9373 146.94 36.4404 148.835C34.9434 150.73 32.8513 152.068 30.5 152.635V152.947H67.733V133.721H38.7547Z" fill="#263238" stroke="#263238" stroke-linecap="round" stroke-linejoin="round"/>
<path d="M44.5601 123.471V142.186C44.5571 144.795 43.6039 147.314 41.8776 149.274C40.1514 151.234 37.7697 152.503 35.1758 152.843V152.938H109.902C111.32 152.938 112.723 152.66 114.032 152.119C115.342 151.578 116.531 150.786 117.533 149.786C118.536 148.787 119.33 147.601 119.873 146.295C120.415 144.99 120.694 143.59 120.694 142.177V123.471H44.5601Z" fill="#DBDBDB" stroke="#263238" stroke-linecap="round" stroke-linejoin="round"/>
<path d="M26.9492 15.5635H83.1071" stroke="#263238" stroke-miterlimit="10"/>
<path d="M26.9492 25.7705H83.1071" stroke="#263238" stroke-miterlimit="10"/>
<path d="M26.9492 34.4346H83.1071" stroke="#263238" stroke-miterlimit="10"/>
<path d="M26.9492 94.7656H83.1071" stroke="#263238" stroke-miterlimit="10"/>
<path d="M26.9492 109.624H83.1071" stroke="#263238" stroke-miterlimit="10"/>
<path d="M26.9492 43.4111H60.4632" stroke="#263238" stroke-miterlimit="10"/>
<path d="M26.9492 51.4512H60.4632" stroke="#263238" stroke-miterlimit="10"/>
<path d="M26.9492 59.4922H60.4632" stroke="#263238" stroke-miterlimit="10"/>
<path d="M26.9492 67.542H60.4632" stroke="#263238" stroke-miterlimit="10"/>
<path d="M26.9492 75.582H60.4632" stroke="#263238" stroke-miterlimit="10"/>
<path d="M26.9492 83.6309H60.4632" stroke="#263238" stroke-miterlimit="10"/>
</svg>
