<svg width="342" height="298" viewBox="0 0 342 298" fill="none" xmlns="http://www.w3.org/2000/svg">
<path d="M295.762 271.69H298.307L303.845 264.477V259.717C303.845 259.717 307.775 259.494 307.313 265.693C306.852 271.892 307.351 270.315 307.351 270.315C307.351 270.315 315.687 270.315 316.379 271.009C316.885 271.496 317.123 279.23 317.198 283.421C317.253 284.433 316.943 285.433 316.319 286.262C315.694 287.09 314.79 287.7 313.752 287.994C313.461 288.068 313.16 288.105 312.859 288.105C310.774 288.105 300.153 286.527 300.153 286.527H295.762V271.69Z" fill="#E0E0E0"/>
<path d="M288.49 270.391L290.053 286.61H294.407V270.717L288.49 270.391Z" fill="#E0E0E0"/>
<path d="M165.873 27.7766L176.814 42.3702C177.095 42.7344 177.466 43.0297 177.896 43.231C178.325 43.4322 178.8 43.5334 179.281 43.5259C179.761 43.5184 180.233 43.4024 180.655 43.1878C181.077 42.9733 181.437 42.6665 181.705 42.2937L192.296 27.1025L165.873 27.7766Z" fill="#E0E0E0"/>
<path d="M193.621 3.32227H162.903C158.151 3.32227 154.299 6.91894 154.299 11.3557V27.8325C154.299 32.2692 158.151 35.8658 162.903 35.8658H193.621C198.373 35.8658 202.225 32.2692 202.225 27.8325V11.3557C202.225 6.91894 198.373 3.32227 193.621 3.32227Z" fill="#E0E0E0"/>
<path d="M187.653 16.6027C186.112 13.9828 183.567 13.5728 181.855 14.1704C180.647 14.6632 179.651 15.5195 179.026 16.6027C178.401 15.5195 177.405 14.6632 176.198 14.1704C174.486 13.5728 171.94 13.9828 170.407 16.6027C167.207 22.0509 179.026 29.1948 179.026 29.1948C179.026 29.1948 190.853 22.0509 187.653 16.6027Z" fill="white"/>
<path d="M45.734 255.485H70.9736C73.6681 255.485 76.2523 256.484 78.1576 258.263C80.063 260.042 81.1334 262.455 81.1334 264.971V276.937C81.1334 279.453 80.063 281.866 78.1576 283.645C76.2523 285.424 73.6681 286.423 70.9736 286.423H64.379L59.7345 292.622C59.4715 292.974 59.1201 293.26 58.7111 293.455C58.3021 293.65 57.848 293.749 57.3887 293.742C56.9294 293.735 56.4789 293.623 56.0768 293.416C55.6747 293.208 55.3333 292.912 55.0826 292.552L50.8102 286.423H45.734C43.0395 286.423 40.4553 285.424 38.55 283.645C36.6446 281.866 35.5742 279.453 35.5742 276.937V264.971C35.5742 262.455 36.6446 260.042 38.55 258.263C40.4553 256.484 43.0395 255.485 45.734 255.485Z" fill="#E0E0E0"/>
<path d="M57.4575 264.991V277.194L48.1016 271.093L57.4575 264.991Z" fill="white"/>
<path d="M69.9763 278.153C69.9763 278.153 69.3585 269.488 61.9303 269.355H57.1816V273.08L61.8633 273.143C61.8633 273.143 66.7237 273.039 69.9763 278.153Z" fill="white"/>
<path d="M60.9496 127.725C61.8017 124.368 59.5773 121.001 55.9813 120.206C52.3854 119.41 48.7796 121.487 47.9275 124.844C47.0755 128.202 49.2999 131.568 52.8958 132.364C56.4918 133.159 60.0976 131.082 60.9496 127.725Z" fill="#E0E0E0"/>
<path d="M54.442 131.794C51.4079 131.794 48.4981 132.919 46.3527 134.922C44.2072 136.925 43.002 139.642 43.002 142.475H65.882C65.882 139.642 64.6767 136.925 62.5313 134.922C60.3859 132.919 57.4761 131.794 54.442 131.794Z" fill="#E0E0E0"/>
<path d="M241.823 8.93023C241.823 9.78926 241.551 10.629 241.039 11.3433C240.528 12.0575 239.802 12.6142 238.952 12.9429C238.102 13.2717 237.166 13.3577 236.264 13.1901C235.362 13.0225 234.533 12.6088 233.882 12.0014C233.231 11.394 232.788 10.6201 232.609 9.77757C232.429 8.93505 232.522 8.06176 232.874 7.26812C233.226 6.47448 233.822 5.79615 234.587 5.3189C235.352 4.84165 236.251 4.58692 237.171 4.58692C237.783 4.586 238.388 4.69772 238.953 4.91567C239.518 5.13362 240.031 5.45351 240.463 5.85701C240.895 6.2605 241.238 6.73967 241.471 7.26704C241.705 7.79441 241.824 8.3596 241.823 8.93023Z" fill="#E0E0E0"/>
<path d="M254.73 19.0972C254.73 19.9562 254.457 20.796 253.946 21.5102C253.434 22.2245 252.708 22.7812 251.858 23.1099C251.008 23.4387 250.073 23.5247 249.17 23.3571C248.268 23.1895 247.439 22.7758 246.788 22.1684C246.138 21.561 245.695 20.7871 245.515 19.9446C245.336 19.102 245.428 18.2287 245.78 17.4351C246.132 16.6415 246.728 15.9631 247.493 15.4859C248.258 15.0086 249.158 14.7539 250.078 14.7539C251.311 14.7539 252.495 15.2115 253.367 16.026C254.24 16.8406 254.73 17.9453 254.73 19.0972Z" fill="#E0E0E0"/>
<path d="M241.898 29.4654C241.898 30.3244 241.625 31.1641 241.114 31.8784C240.602 32.5927 239.876 33.1493 239.026 33.4781C238.176 33.8068 237.241 33.8928 236.338 33.7252C235.436 33.5577 234.607 33.144 233.956 32.5366C233.306 31.9291 232.863 31.1552 232.683 30.3127C232.504 29.4702 232.596 28.5969 232.948 27.8033C233.3 27.0096 233.896 26.3313 234.661 25.8541C235.426 25.3768 236.326 25.1221 237.246 25.1221C238.479 25.1221 239.663 25.5797 240.535 26.3942C241.407 27.2087 241.898 28.3135 241.898 29.4654Z" fill="#E0E0E0"/>
<path d="M237.492 29.7294L237.001 29.2012L249.505 19.1039L236.934 9.20111L237.41 8.66602L250.651 19.0969L237.492 29.7294Z" fill="#E0E0E0"/>
<path d="M322.095 110.828C320.085 107.395 316.751 106.867 314.518 107.645C312.931 108.287 311.62 109.408 310.796 110.828C309.972 109.408 308.662 108.287 307.075 107.645C304.842 106.867 301.507 107.395 299.498 110.828C295.344 117.951 310.856 127.298 310.856 127.298C310.856 127.298 326.285 117.951 322.095 110.828Z" fill="#E0E0E0"/>
<path d="M303.801 144.185C302.365 141.738 299.998 141.363 298.398 141.919C297.273 142.379 296.346 143.176 295.763 144.185C295.18 143.176 294.252 142.379 293.128 141.919C291.535 141.363 289.161 141.738 287.732 144.185C284.754 149.278 295.763 155.915 295.763 155.915C295.763 155.915 306.786 149.278 303.801 144.185Z" fill="#E0E0E0"/>
<path d="M315.88 25.7681H266.25C263.328 25.7681 260.525 26.8514 258.458 28.78C256.391 30.7086 255.229 33.3247 255.227 36.053V64.1421C255.227 65.4933 255.512 66.8313 256.066 68.0796C256.62 69.3279 257.432 70.462 258.456 71.4171C259.479 72.3723 260.695 73.1297 262.032 73.6462C263.369 74.1626 264.803 74.428 266.25 74.4271H281.59L290.187 85.9143C290.46 86.2756 290.823 86.5691 291.245 86.7693C291.667 86.9694 292.135 87.0701 292.609 87.0626C293.082 87.0551 293.546 86.9395 293.961 86.726C294.376 86.5126 294.728 86.2076 294.988 85.8378L302.937 74.4271H315.88C317.327 74.428 318.76 74.1626 320.097 73.646C321.434 73.1295 322.649 72.372 323.672 71.4167C324.695 70.4615 325.506 69.3273 326.06 68.0791C326.613 66.8308 326.897 65.493 326.896 64.1421V36.053C326.896 34.7024 326.611 33.365 326.058 32.1171C325.504 30.8693 324.693 29.7355 323.67 28.7805C322.647 27.8254 321.432 27.0678 320.096 26.551C318.759 26.0341 317.327 25.7681 315.88 25.7681Z" fill="white"/>
<path d="M315.881 25.7679H316.253C316.619 25.7701 316.985 25.7933 317.348 25.8374C318.767 25.9899 320.138 26.4133 321.374 27.0813C323.009 27.9463 324.381 29.1853 325.362 30.6818C326.342 32.1784 326.899 33.8832 326.979 35.6359C327.024 37.0744 326.979 38.5894 326.979 40.1877C326.979 46.595 326.979 54.3226 327.024 63.1204C327.069 64.2457 326.974 65.3721 326.741 66.4769C326.468 67.6153 325.987 68.7013 325.319 69.6875C323.926 71.7573 321.805 73.3101 319.32 74.0794C318.036 74.451 316.697 74.627 315.353 74.6006H302.938L303.087 74.5242L298.539 81.0566L296.194 84.427C295.785 84.9968 295.45 85.5597 294.981 86.1365C294.493 86.7193 293.785 87.1049 293.001 87.2136C292.214 87.3134 291.416 87.1295 290.768 86.6994C290.45 86.4816 290.176 86.2135 289.957 85.9072L289.317 85.0454L286.727 81.5708L281.435 74.5173L281.598 74.5937H266.943C265.899 74.6204 264.856 74.5388 263.832 74.3505C262.815 74.1327 261.832 73.7941 260.907 73.3428C259.103 72.427 257.602 71.0683 256.565 69.4135C255.529 67.7588 254.997 65.871 255.027 63.9543C255.027 56.5811 255.027 49.472 255.027 42.6964C255.027 41.0008 255.027 39.3329 255.027 37.679C255.027 36.852 255.027 36.039 255.071 35.212C255.108 34.8017 255.167 34.3934 255.25 33.9889C255.354 33.5859 255.451 33.1898 255.585 32.8006C256.134 31.275 257.042 29.8835 258.242 28.7283C259.432 27.603 260.88 26.7451 262.477 26.2196C262.858 26.0866 263.249 25.9775 263.646 25.893C264.037 25.799 264.435 25.7316 264.837 25.6915C265.625 25.611 266.418 25.5785 267.211 25.5942H280.341L306.332 25.6567H313.395H315.234H315.859C315.859 25.6567 315.651 25.6567 315.234 25.6567H313.395H306.332L280.341 25.893H271.729H267.151C266.373 25.8767 265.595 25.9092 264.822 25.9903C264.43 26.0299 264.042 26.0972 263.661 26.1918C263.276 26.2749 262.898 26.3817 262.529 26.5115C261.005 27.028 259.624 27.8568 258.488 28.9368C257.323 30.0568 256.445 31.4087 255.92 32.8909C255.786 33.2662 255.696 33.6554 255.592 34.0445C255.488 34.4337 255.436 34.8298 255.421 35.2259C255.362 36.0251 255.384 36.852 255.384 37.6721V42.6895C255.384 49.465 255.384 56.5881 255.384 63.9474C255.357 65.7992 255.873 67.6227 256.875 69.221C257.877 70.8192 259.328 72.1315 261.07 73.0162C261.961 73.4547 262.909 73.7818 263.891 73.9891C264.888 74.1766 265.904 74.2559 266.921 74.2254H281.651L281.71 74.3018L286.995 81.3554L289.585 84.83L290.225 85.6848C290.426 85.9565 290.678 86.1919 290.969 86.3797C291.535 86.7671 292.241 86.933 292.936 86.8422C293.631 86.7513 294.261 86.4109 294.691 85.8933C295.093 85.3651 295.487 84.7675 295.882 84.2115C296.681 83.0811 297.465 81.9576 298.234 80.8411L302.796 74.3088L302.848 74.2323H315.39C316.698 74.2671 318.003 74.1004 319.253 73.7389C321.669 73.0012 323.731 71.4963 325.081 69.486C325.736 68.5318 326.207 67.4782 326.473 66.3727C326.708 65.2892 326.803 64.1833 326.756 63.0787C326.756 54.2878 326.756 46.5602 326.8 40.146C326.8 38.5477 326.8 37.0258 326.8 35.6012C326.739 34.2785 326.4 32.9798 325.803 31.7791C324.862 29.8462 323.302 28.2339 321.337 27.1647C320.116 26.4905 318.761 26.0532 317.355 25.8791C316.995 25.829 316.632 25.7965 316.268 25.7818L315.881 25.7679Z" fill="#263238"/>
<path d="M292.48 40.7158V59.9098L307.195 50.3128L292.48 40.7158Z" fill="#FFC727"/>
<path d="M272.787 61.4246C272.787 61.4246 273.762 47.79 285.44 47.5815H292.883V53.4468L285.522 53.544C285.522 53.544 277.848 53.3773 272.787 61.4246Z" fill="#FFC727"/>
<path d="M248.791 244.317H333.337C338.048 244.317 341.867 240.751 341.867 236.353V175.255C341.867 170.856 338.048 167.291 333.337 167.291H248.791C244.08 167.291 240.262 170.856 240.262 175.255V236.353C240.262 240.751 244.08 244.317 248.791 244.317Z" fill="white"/>
<path d="M286.983 241.961C285.941 244.317 265.793 262.003 265.793 262.003V241.961H286.983Z" fill="#FFC727"/>
<path d="M279.18 225.832C279.18 223.399 279.18 221.37 279.18 221.12C279.18 221.12 270.375 220.342 269.743 212.204C269.437 208.271 269.512 200.112 269.676 192.746C269.76 188.926 271.382 185.276 274.22 182.523C277.057 179.769 280.901 178.115 284.986 177.888L285.827 177.84C294.945 177.84 300.043 185.046 299.805 193.552L299.485 225.47L284.748 236.527L283.676 236.436L279.18 225.832Z" fill="#FFBF9D"/>
<path d="M279.168 221.12C283.199 220.884 287.074 219.575 290.333 217.347C290.333 217.347 287.943 223.455 279.168 223.212V221.12Z" fill="#FF9A6C"/>
<path d="M284.51 196.255C284.682 196.422 285.694 195.679 287.153 195.658C288.611 195.637 289.698 196.318 289.854 196.144C290.011 195.97 289.75 195.769 289.281 195.449C288.648 195.04 287.893 194.828 287.123 194.845C286.359 194.858 285.62 195.101 285.016 195.54C284.57 195.873 284.428 196.179 284.51 196.255Z" fill="#263238"/>
<path d="M285.59 199.952C285.603 200.239 285.738 200.509 285.963 200.705C286.189 200.9 286.488 201.004 286.796 200.995C286.946 200.998 287.096 200.974 287.237 200.922C287.377 200.871 287.505 200.793 287.612 200.695C287.72 200.596 287.805 200.478 287.863 200.348C287.921 200.219 287.95 200.079 287.949 199.938C287.934 199.651 287.799 199.381 287.574 199.185C287.349 198.989 287.051 198.883 286.744 198.889C286.592 198.886 286.442 198.912 286.302 198.964C286.162 199.016 286.034 199.094 285.926 199.193C285.819 199.292 285.734 199.411 285.676 199.541C285.618 199.671 285.589 199.811 285.59 199.952Z" fill="#263238"/>
<path d="M280.721 205.685C279.991 205.517 279.241 205.436 278.488 205.442C278.146 205.442 277.819 205.387 277.744 205.171C277.695 204.84 277.755 204.503 277.915 204.205C278.183 203.42 278.466 202.586 278.771 201.717C279.955 198.173 280.788 195.261 280.632 195.22C280.476 195.178 279.396 197.999 278.213 201.564C277.93 202.433 277.655 203.267 277.402 204.066C277.211 204.464 277.176 204.912 277.305 205.331C277.361 205.441 277.443 205.537 277.545 205.613C277.647 205.689 277.766 205.742 277.893 205.769C278.086 205.805 278.284 205.819 278.481 205.81C279.23 205.864 279.984 205.822 280.721 205.685Z" fill="#263238"/>
<path d="M285.233 191.877C285.375 192.183 286.543 191.968 287.943 192.058C289.342 192.149 290.488 192.44 290.652 192.149C290.726 192.016 290.511 191.732 290.042 191.454C289.42 191.12 288.723 190.927 288.006 190.891C287.29 190.854 286.575 190.976 285.918 191.245C285.419 191.474 285.174 191.739 285.233 191.877Z" fill="#263238"/>
<path d="M271.545 192.655C271.694 192.906 272.84 192.655 274.217 192.621C275.594 192.586 276.74 192.774 276.889 192.516C276.956 192.398 276.733 192.176 276.256 191.974C275.611 191.724 274.915 191.608 274.217 191.634C273.511 191.644 272.815 191.796 272.178 192.079C271.701 192.308 271.478 192.537 271.545 192.655Z" fill="#263238"/>
<path d="M299.471 199.619C299.612 199.549 305.358 197.624 305.529 203.205C305.701 208.785 299.657 207.791 299.642 207.631C299.627 207.472 299.471 199.619 299.471 199.619Z" fill="#FFBF9D"/>
<path d="M301.408 205.47C301.408 205.47 301.512 205.54 301.691 205.609C301.942 205.704 302.222 205.704 302.473 205.609C303.098 205.373 303.596 204.428 303.596 203.42C303.599 202.94 303.487 202.465 303.269 202.03C303.206 201.857 303.1 201.7 302.959 201.573C302.818 201.446 302.646 201.353 302.458 201.301C302.337 201.274 302.21 201.287 302.1 201.339C301.99 201.392 301.903 201.479 301.855 201.586C301.78 201.745 301.855 201.85 301.788 201.864C301.721 201.877 301.654 201.773 301.698 201.544C301.729 201.404 301.807 201.277 301.922 201.183C302.001 201.122 302.093 201.076 302.191 201.05C302.29 201.024 302.393 201.017 302.495 201.03C302.741 201.07 302.972 201.168 303.167 201.313C303.362 201.459 303.515 201.648 303.611 201.864C303.876 202.343 304.014 202.874 304.013 203.413C304.013 204.539 303.425 205.602 302.569 205.859C302.41 205.908 302.241 205.923 302.075 205.903C301.909 205.882 301.749 205.827 301.609 205.741C301.423 205.602 301.386 205.512 301.408 205.47Z" fill="#FF9A6C"/>
<path d="M282.577 210.432C282.51 210.293 283.686 209.98 284.527 208.958C284.877 208.514 285.163 208.028 285.376 207.513C285.554 207.11 285.688 206.86 285.755 206.881C285.822 206.901 285.792 207.172 285.696 207.576C285.559 208.165 285.287 208.72 284.899 209.202C284.499 209.682 283.966 210.052 283.358 210.272C282.897 210.473 282.577 210.48 282.577 210.432Z" fill="#263238"/>
<path d="M307.54 190.682C306.319 188.695 306.051 186.346 305.411 184.143C304.771 181.94 303.483 179.647 301.191 178.855H301.139C299.077 178.048 296.524 178.007 294.805 179.334C294.425 176.429 291.738 174.094 288.716 173.316C285.694 172.538 280.827 172.927 277.901 174.011C275.668 174.824 273.436 176.533 270.771 179.042C269.642 180.1 268.606 181.241 267.675 182.454L264.936 190.015L267.168 194.025C267.302 194.303 267.436 194.574 267.6 194.845L269.52 203.267C269.684 200.981 269.617 193.01 269.774 190.724C271.619 190.694 273.439 190.317 275.125 189.615C276.81 188.913 278.327 187.9 279.584 186.638C280.938 185.248 282.017 183.545 283.819 182.739C286.148 181.697 288.887 182.51 291.314 183.323L291.21 183.24C292.473 183.802 293.608 184.588 294.552 185.554C293.941 190.073 294.38 194.661 295.839 199.008C296.063 199.661 296.665 201.009 297.328 201.259C298.668 201.759 299.047 200.488 299.859 199.821C300.579 199.372 301.449 199.184 302.307 199.292C303.006 197.402 303.581 195.474 304.027 193.518C304.835 193.763 305.695 193.827 306.535 193.705L305.791 191.975C306.107 192.197 306.469 192.356 306.855 192.44C307.049 192.478 307.25 192.459 307.432 192.387C307.614 192.315 307.769 192.193 307.875 192.037C308.098 191.613 307.793 191.092 307.54 190.682Z" fill="#263238"/>
<path d="M292.051 180.251C292.36 180.481 292.649 180.735 292.914 181.008C293.591 181.795 294.04 182.73 294.217 183.726C294.358 184.412 294.423 185.111 294.41 185.81C294.41 186.561 294.328 187.36 294.254 188.208C294.162 189.095 294.127 189.986 294.15 190.876C294.178 191.343 294.237 191.807 294.328 192.266C294.396 192.77 294.601 193.248 294.924 193.656C295.074 193.816 295.267 193.937 295.482 194.007C295.697 194.078 295.927 194.096 296.152 194.059C296.581 193.988 296.972 193.788 297.268 193.489C297.751 192.879 298.049 192.159 298.132 191.405H297.953C298.207 192.021 298.555 192.599 298.988 193.121C299.405 193.608 300.008 193.924 300.67 194.004C300.977 194.038 301.289 193.993 301.57 193.872C301.83 193.747 302.045 193.554 302.188 193.316C302.317 193.104 302.384 192.864 302.382 192.621C302.377 192.385 302.282 192.158 302.114 191.981L302.017 192.058C302.53 192.617 303.161 193.071 303.87 193.392C304.059 193.475 304.253 193.547 304.451 193.608C304.517 193.634 304.587 193.651 304.659 193.656L304.466 193.58C304.332 193.524 304.146 193.455 303.9 193.337C303.215 192.998 302.608 192.538 302.114 191.981L302.025 192.058C302.164 192.231 302.242 192.44 302.249 192.657C302.255 192.873 302.19 193.087 302.062 193.267C301.934 193.481 301.739 193.653 301.503 193.76C301.247 193.869 300.963 193.908 300.685 193.872C300.071 193.789 299.515 193.49 299.129 193.038C298.712 192.524 298.373 191.958 298.124 191.356L298.005 191.092L297.946 191.37C297.857 192.083 297.572 192.763 297.12 193.343C296.855 193.609 296.505 193.787 296.122 193.851C295.932 193.885 295.735 193.871 295.552 193.811C295.369 193.751 295.206 193.648 295.08 193.51C294.78 193.134 294.59 192.691 294.529 192.225C294.433 191.766 294.373 191.302 294.351 190.835C294.327 189.951 294.357 189.067 294.44 188.187C294.507 187.339 294.581 186.533 294.581 185.776C294.583 185.075 294.508 184.377 294.358 183.691C294.167 182.679 293.689 181.733 292.974 180.953C292.709 180.673 292.398 180.436 292.051 180.251Z" fill="#FFC727"/>
<path d="M264.988 187.847C264.988 187.847 264.988 187.847 265.055 187.902L265.271 188.055C265.387 188.137 265.509 188.212 265.636 188.278C265.805 188.377 265.982 188.465 266.164 188.542C267.324 189.058 268.603 189.297 269.886 189.237C271.792 189.141 273.627 188.533 275.17 187.485C277.032 186.189 278.592 184.553 279.755 182.677C280.403 181.704 280.931 180.696 281.512 179.772C282.047 178.871 282.716 178.045 283.499 177.319C284.205 176.665 285.075 176.188 286.03 175.929C286.462 175.823 286.909 175.78 287.355 175.804C287.766 175.831 288.172 175.91 288.561 176.04C289.234 176.263 289.848 176.619 290.362 177.082C290.754 177.429 291.082 177.836 291.329 178.285C291.521 178.677 291.668 179.087 291.769 179.508C291.77 179.48 291.77 179.452 291.769 179.424C291.769 179.355 291.769 179.271 291.769 179.174C291.696 178.857 291.589 178.547 291.448 178.25C291.205 177.788 290.88 177.368 290.488 177.006C289.67 176.222 288.575 175.743 287.407 175.658C286.944 175.628 286.478 175.67 286.03 175.783C285.046 176.034 284.145 176.512 283.41 177.173C282.61 177.904 281.928 178.74 281.385 179.654C280.797 180.592 280.269 181.592 279.621 182.558C278.473 184.414 276.937 186.035 275.103 187.326C273.583 188.365 271.774 188.975 269.893 189.084C268.631 189.16 267.368 188.952 266.209 188.479C265.383 188.139 265.003 187.819 264.988 187.847Z" fill="#FFC727"/>
<path d="M271.195 196.603C271.366 196.77 272.386 196.026 273.845 196.012C275.304 195.998 276.383 196.672 276.539 196.499C276.696 196.325 276.443 196.116 275.966 195.804C275.333 195.394 274.578 195.183 273.808 195.199C273.044 195.215 272.306 195.458 271.701 195.894C271.262 196.221 271.113 196.533 271.195 196.603Z" fill="#263238"/>
<path d="M273.428 200.14C273.443 200.427 273.578 200.697 273.803 200.893C274.028 201.089 274.326 201.195 274.634 201.19C274.785 201.192 274.935 201.167 275.075 201.115C275.215 201.062 275.343 200.984 275.451 200.885C275.558 200.786 275.643 200.668 275.701 200.538C275.759 200.407 275.788 200.267 275.787 200.126C275.772 199.84 275.637 199.571 275.412 199.376C275.186 199.181 274.888 199.076 274.581 199.084C274.431 199.08 274.281 199.105 274.14 199.156C274 199.208 273.872 199.285 273.765 199.384C273.657 199.482 273.572 199.6 273.514 199.73C273.456 199.86 273.427 199.999 273.428 200.14Z" fill="#263238"/>
<path d="M268.435 181.516C267.691 182.433 266.552 183.267 265.332 183.142C264.888 183.055 264.453 182.936 264.029 182.787C263.605 183.031 263.702 184.393 264.029 184.768C264.306 185.087 264.612 185.382 264.945 185.65C263.508 186.345 262.206 186.019 260.68 185.498C260.833 186.716 261.326 187.875 262.11 188.859C262.894 189.843 263.941 190.618 265.146 191.106C265.514 191.29 265.924 191.39 266.342 191.397C266.76 191.405 267.174 191.319 267.55 191.147C268.126 190.708 268.506 190.084 268.614 189.396C269.298 186.954 269.657 184.443 269.686 181.919L268.435 181.516Z" fill="#263238"/>
<path d="M259.233 235.019L259.389 234.831C266.371 227.93 279.225 225.623 279.225 225.623C279.225 225.623 280.014 230.14 287.219 230.647C294.424 231.155 299.694 224.275 299.694 224.275L309.37 225.554C309.37 225.554 314.208 226.089 317.215 227.743C324.003 231.467 327.635 244.317 327.635 244.317L253.502 244.602L259.233 235.019Z" fill="#FFC727"/>
<path d="M252.454 167.291L251.933 167.325L251.292 167.367C251.039 167.367 250.749 167.444 250.414 167.492C248.453 167.804 246.605 168.569 245.04 169.716C243.899 170.547 242.926 171.561 242.167 172.711C241.252 174.09 240.668 175.639 240.455 177.249C240.356 178.154 240.321 179.064 240.351 179.973C240.351 180.911 240.351 181.891 240.351 182.892C240.351 184.907 240.351 187.061 240.351 189.299C240.351 198.333 240.351 209.23 240.388 221.676C240.388 224.789 240.388 227.995 240.388 231.294C240.388 232.114 240.388 232.948 240.44 233.768C240.507 234.596 240.666 235.416 240.917 236.214C241.455 237.837 242.381 239.325 243.626 240.564C244.884 241.849 246.454 242.833 248.204 243.434L248.866 243.657L249.551 243.823C250.011 243.93 250.479 244.009 250.95 244.06C251.907 244.145 252.869 244.177 253.831 244.157H265.933V244.317C265.933 249.911 265.933 255.88 265.933 262.003L265.628 261.878C268.764 259.098 271.947 256.249 275.177 253.33C278.393 250.383 281.683 247.395 284.816 244.199L284.876 244.143H328.291C329.088 244.143 329.877 244.143 330.651 244.101C332.969 243.919 335.181 243.11 337.016 241.773C338.85 240.437 340.228 238.631 340.982 236.575C341.46 235.232 341.684 233.821 341.644 232.406V228.097C341.644 216.735 341.644 205.769 341.644 195.324C341.644 190.108 341.644 185.011 341.644 180.036C341.697 178.817 341.617 177.597 341.406 176.394C341.139 175.227 340.682 174.104 340.051 173.066C339.428 172.042 338.631 171.12 337.692 170.334C336.781 169.552 335.74 168.911 334.61 168.437C333.502 167.962 332.322 167.651 331.112 167.513C329.912 167.418 328.707 167.385 327.502 167.416H320.439H307.16L267.094 167.36L256.197 167.325H267.094L307.16 167.27H320.439H327.502C328.721 167.24 329.941 167.273 331.157 167.367C332.398 167.507 333.608 167.826 334.744 168.312C335.907 168.797 336.977 169.454 337.915 170.258C338.878 171.057 339.697 171.996 340.342 173.038C340.988 174.105 341.457 175.258 341.733 176.457C341.955 177.68 342.04 178.921 341.987 180.161C341.987 185.109 341.987 190.205 341.987 195.449C341.987 205.873 341.987 216.86 341.987 228.222V232.503C342.029 233.965 341.8 235.423 341.309 236.811C340.511 238.894 339.09 240.719 337.213 242.069C335.337 243.419 333.085 244.238 330.725 244.428C329.914 244.483 329.117 244.484 328.328 244.477H285.002L285.144 244.421C281.988 247.625 278.698 250.613 275.468 253.559C272.237 256.506 269.037 259.348 265.903 262.107L265.591 262.378V261.982C265.591 255.86 265.591 249.89 265.591 244.296L265.769 244.463H253.86C252.884 244.489 251.907 244.457 250.935 244.365C250.453 244.317 249.975 244.233 249.506 244.115L248.799 243.948L248.114 243.719C246.318 243.096 244.706 242.084 243.41 240.766C242.14 239.486 241.194 237.957 240.641 236.29C240.384 235.473 240.222 234.632 240.158 233.782C240.091 232.934 240.113 232.107 240.113 231.287C240.113 227.988 240.113 224.782 240.113 221.669C240.113 209.223 240.113 198.312 240.15 189.292C240.15 187.034 240.15 184.9 240.15 182.885C240.15 181.884 240.15 180.904 240.15 179.966C240.123 179.05 240.16 178.133 240.262 177.221C240.468 175.73 240.988 174.291 241.792 172.988C242.595 171.684 243.666 170.542 244.944 169.626C246.528 168.478 248.397 167.723 250.377 167.43C250.712 167.388 251.002 167.332 251.263 167.318H251.903L252.454 167.291Z" fill="#263238"/>
<path d="M22.2421 93.4263L124.637 93.4263C130.396 93.4263 135.064 89.0673 135.064 83.6903V9.73582C135.064 4.3588 130.396 -0.000152588 124.637 -0.000152588L22.2421 -0.000152588C16.4829 -0.000152588 11.8143 4.3588 11.8143 9.73582L11.8143 83.6903C11.8143 89.0673 16.4829 93.4263 22.2421 93.4263Z" fill="white"/>
<path d="M68.4877 90.5703C67.2224 93.4265 42.7793 114.893 42.7793 114.893V90.5703H68.4877Z" fill="#FFC727"/>
<path d="M98.3879 41.0013C98.4475 36.1367 99.2737 31.2722 99.0727 26.4077C98.8717 21.5432 97.4948 16.4633 93.8625 12.9747C90.2303 9.48617 83.9037 8.11021 79.6462 10.9664L78.7754 15.136C80.4526 33.9315 82.1297 52.7247 83.8069 71.5156C84.0228 73.9826 84.2609 76.5261 85.4667 78.729C86.6725 80.9319 89.0841 82.7596 91.7338 82.6067C95.1949 82.4121 97.4724 79.1321 98.5442 76.0535C102.452 64.8443 98.2316 52.7525 98.3879 41.0013Z" fill="#263238"/>
<path d="M85.8287 15.7334C85.1332 14.4954 84.2397 13.3636 83.179 12.3769C82.6415 11.8883 81.9931 11.519 81.2818 11.2964C80.5705 11.0738 79.8147 11.0037 79.0704 11.0913C78.7199 11.1319 78.3862 11.2553 78.101 11.4498C77.8157 11.6444 77.5884 11.9037 77.4404 12.2032C77.2096 12.8286 77.7009 13.6556 78.408 13.593L78.5568 13.7112C80.1199 15.0037 81.7053 16.2685 83.3279 17.4985C83.7117 17.8335 84.1617 18.0955 84.6527 18.2699C84.9049 18.3587 85.1789 18.3784 85.4427 18.3267C85.7064 18.275 85.9488 18.154 86.1413 17.978C86.6921 17.3804 86.2679 16.4353 85.8287 15.7334Z" fill="#FFC727"/>
<path d="M88.7769 20.5208C83.5667 14.5792 76.5925 11.1671 68.3754 11.035C63.7458 10.9656 61.8254 11.862 58.4909 12.7029C55.1449 13.4605 52.1912 15.2933 50.1472 17.8801C47.7878 21.0142 45.8005 24.5236 45.3539 28.3388C44.9073 32.154 44.4309 36.1637 44.751 40.1179C45.071 44.072 46.2396 47.9984 48.6809 51.1881L59.3841 52.9185C65.2939 53.1061 71.2931 53.2868 77.0391 52.029C82.7852 50.7712 88.3973 47.8594 91.4787 43.1686C95.7511 36.5946 93.9796 26.4556 88.7769 20.5208Z" fill="#263238"/>
<path d="M59.3403 70.6257C59.4148 67.151 59.5413 62.7243 59.5413 62.7452C59.5413 62.766 50.818 61.8487 48.3767 51.4039C47.1783 46.2128 46.955 37.6096 47.0146 30.556C47.0667 24.2183 52.85 15.5803 61.2383 15.5525L64.9599 15.1494L79.2208 20.4448C80.2152 20.4928 81.1542 20.8869 81.8527 21.5494C82.5512 22.2119 82.9586 23.0946 82.9945 24.0237L83.5304 69.9377L74.3903 84.1907L58.0155 72.3769L59.3403 70.6257Z" fill="#B56760"/>
<path d="M65.1745 48.9649C65.0959 48.4228 64.8041 47.9273 64.3558 47.575C63.9473 47.246 63.4337 47.0526 62.8951 47.0249C62.3564 46.9973 61.8232 47.137 61.3785 47.4222C60.9185 47.7521 60.5614 48.1909 60.3441 48.6931C60.1269 49.1953 60.0574 49.7426 60.143 50.2783C60.3892 50.5991 60.7056 50.8672 61.0714 51.0649C61.4371 51.2626 61.8438 51.3853 62.2643 51.4249H62.6588C63.3287 51.4109 63.9687 51.1629 64.4525 50.73C64.7052 50.5039 64.9009 50.2284 65.0258 49.9231C65.1506 49.6179 65.2014 49.2907 65.1745 48.9649Z" fill="#8A4A43"/>
<path d="M51.5469 38.7283C51.5624 39.0829 51.7277 39.4172 52.0067 39.6582C52.2858 39.8992 52.6557 40.0271 53.0355 40.0139C53.2185 40.0167 53.4004 39.9855 53.5704 39.9222C53.7405 39.8589 53.8954 39.7648 54.0262 39.6452C54.1571 39.5256 54.2612 39.383 54.3326 39.2257C54.404 39.0683 54.4413 38.8992 54.4422 38.7283C54.4158 38.3768 54.2474 38.0478 53.971 37.8078C53.6947 37.5679 53.331 37.4349 52.9536 37.4357C52.7699 37.4329 52.5875 37.4643 52.417 37.5281C52.2464 37.5918 52.0912 37.6865 51.9602 37.8068C51.8293 37.9272 51.7253 38.0706 51.6543 38.2288C51.5834 38.387 51.5469 38.5568 51.5469 38.7283Z" fill="#263238"/>
<path d="M49.6051 34.0865C49.7986 34.2533 50.8481 33.4402 52.4037 33.3915C53.9593 33.3429 55.1502 33.9822 55.3065 33.8015C55.4628 33.6209 55.18 33.4054 54.6664 33.1066C53.9665 32.7038 53.1497 32.5143 52.3293 32.5646C51.5137 32.6003 50.7316 32.8778 50.0964 33.3568C49.6498 33.6834 49.5084 34.01 49.6051 34.0865Z" fill="#263238"/>
<path d="M59.6083 45.4902C58.7721 45.2885 57.9116 45.1881 57.0479 45.1914C56.646 45.1914 56.2664 45.1149 56.1845 44.8717C56.1252 44.4883 56.1955 44.0972 56.3855 43.7529L57.3903 40.8689C58.7896 36.7619 59.7795 33.3915 59.6232 33.3428C59.4669 33.2942 58.1346 36.5742 56.7725 40.6882L55.7975 43.593C55.5729 44.0532 55.5307 44.5728 55.6784 45.0593C55.7424 45.1878 55.8376 45.3006 55.9565 45.3887C56.0753 45.4767 56.2146 45.5377 56.3631 45.5666C56.5852 45.6135 56.813 45.6322 57.0405 45.6222C57.899 45.6795 58.7618 45.6351 59.6083 45.4902Z" fill="#263238"/>
<path d="M59.54 62.7454C64.8557 62.5453 70.0082 60.9746 74.4262 58.2075C74.4262 58.2075 70.8312 65.7128 59.4805 65.3097L59.54 62.7454Z" fill="#8A4A43"/>
<path d="M64.2455 46.2548C63.9925 46.2548 64.0818 47.8323 62.7048 49.0345C61.3278 50.2367 59.5117 50.1464 59.5117 50.3687C59.5117 50.473 59.9285 50.6537 60.6952 50.6398C61.6845 50.5967 62.6268 50.233 63.3598 49.6113C64.0586 49.0101 64.4847 48.1822 64.5507 47.2972C64.573 46.6231 64.3646 46.2409 64.2455 46.2548Z" fill="#263238"/>
<path d="M50.1329 28.9996C50.4157 29.3401 51.6215 29.0413 52.9911 29.076C54.3606 29.1108 55.5664 29.3957 55.8492 29.076C55.9757 28.9092 55.8045 28.5757 55.3059 28.2421C54.615 27.8414 53.82 27.6244 53.0068 27.6146C52.1935 27.6048 51.3928 27.8026 50.6911 28.1865C50.185 28.4992 50.0064 28.8328 50.1329 28.9996Z" fill="#263238"/>
<path d="M69.2612 38.353C69.2734 38.706 69.1368 39.0493 68.8807 39.3092C68.6246 39.5692 68.2695 39.7249 67.8917 39.7429C67.7098 39.7561 67.5269 39.7357 67.3535 39.6827C67.18 39.6298 67.0195 39.5453 66.8812 39.4342C66.7429 39.3232 66.6294 39.1876 66.5473 39.0355C66.4653 38.8833 66.4163 38.7175 66.4031 38.5476C66.3909 38.1946 66.5275 37.8513 66.7836 37.5914C67.0397 37.3315 67.3949 37.1758 67.7726 37.1577C67.9545 37.1445 68.1375 37.1649 68.3109 37.2179C68.4843 37.2708 68.6448 37.3553 68.7831 37.4664C68.9215 37.5775 69.0349 37.713 69.117 37.8651C69.199 38.0173 69.2481 38.1831 69.2612 38.353Z" fill="#263238"/>
<path d="M70.6678 33.5233C70.4892 33.704 69.3802 32.9604 67.8246 32.9952C66.269 33.0299 65.1376 33.7665 64.959 33.5928C64.7803 33.4191 65.0557 33.1967 65.547 32.8492C66.2138 32.4034 67.0119 32.1607 67.832 32.1543C68.6426 32.142 69.4368 32.3681 70.1022 32.8006C70.586 33.1272 70.7572 33.4469 70.6678 33.5233Z" fill="#263238"/>
<path d="M69.6997 28.8676C69.4019 29.2012 68.2111 28.8676 66.7224 28.8676C65.2338 28.8676 64.0578 29.1317 63.7452 28.7912C63.6187 28.6244 63.8047 28.2908 64.3332 27.9712C65.0593 27.5816 65.8836 27.3801 66.7211 27.3874C67.5585 27.3947 68.3786 27.6107 69.0968 28.0129C69.6997 28.3673 69.8634 28.7009 69.6997 28.8676Z" fill="#263238"/>
<path d="M81.0954 41.7306C81.0508 40.9454 81.9067 39.0413 82.7329 38.8814C84.9658 38.4436 88.933 38.4089 89.2754 43.6556C89.7517 50.8342 81.9365 49.7988 81.9067 49.5972C81.8769 49.3957 81.2443 44.4339 81.0954 41.7306Z" fill="#B56760"/>
<path d="M83.8438 46.8521C83.8438 46.8521 83.9852 46.9286 84.2159 47.012C84.5385 47.1322 84.8982 47.1322 85.2207 47.012C86.0097 46.6853 86.6126 45.4414 86.5679 44.1488C86.5549 43.5193 86.3868 42.9011 86.0767 42.342C85.9901 42.1215 85.8472 41.9239 85.6605 41.7665C85.4737 41.6091 85.2487 41.4966 85.0049 41.4386C84.8519 41.4153 84.6951 41.4411 84.5599 41.5118C84.4247 41.5825 84.3192 41.6939 84.2606 41.8278C84.1712 42.0363 84.2606 42.1752 84.1861 42.1891C84.1117 42.203 84.0149 42.078 84.0596 41.7791C84.088 41.5995 84.1828 41.4348 84.3275 41.3135C84.5342 41.1496 84.8012 41.0673 85.0719 41.0842C85.394 41.124 85.6998 41.24 85.9604 41.4212C86.2209 41.6025 86.4275 41.8429 86.5605 42.1196C86.9318 42.721 87.1365 43.3994 87.1559 44.0933C87.2006 45.5457 86.5009 46.9425 85.4068 47.3038C85.2049 47.3737 84.9885 47.3994 84.7743 47.379C84.5601 47.3585 84.3538 47.2924 84.1712 47.1857C83.881 47.0259 83.8438 46.866 83.8438 46.8521Z" fill="#8A4A43"/>
<path d="M83.0459 38.9025L81.0958 40.8135C72.6777 33.2527 56.1689 14.4062 57.0918 15.5042C60.9354 14.1604 65.0791 13.7398 69.1422 14.2811C75.4167 15.2818 87.3108 18.2075 87.1321 25.1151C86.9535 32.0227 83.0459 38.9025 83.0459 38.9025Z" fill="#263238"/>
<path d="M94.219 37.3389C94.197 37.196 94.1571 37.0561 94.0999 36.9219C93.9626 36.5307 93.7882 36.1516 93.5789 35.7892C92.7845 34.4574 91.6869 33.3046 90.3635 32.4118C88.4017 31.1046 86.2139 30.122 83.8955 29.507C81.3202 28.7287 78.4248 28.1172 75.5815 26.9775C72.8941 25.9307 70.3443 24.5993 67.9821 23.0094C66.057 21.7051 64.2633 20.2397 62.6231 18.6314C61.5183 17.5416 60.482 16.393 59.5193 15.1915L58.775 14.2047C58.6903 14.0867 58.5958 13.9751 58.4922 13.8711C58.5437 14.0055 58.6164 14.132 58.708 14.2464C58.8718 14.4826 59.1025 14.837 59.4523 15.2749C60.3703 16.5159 61.3801 17.6955 62.4742 18.8051C64.1 20.4539 65.8922 21.9526 67.8258 23.2804C70.198 24.9055 72.7691 26.2609 75.4848 27.318C78.2229 28.2899 81.0128 29.1296 83.8434 29.8336C86.1327 30.4207 88.3011 31.3601 90.2593 32.6134C91.5681 33.473 92.6728 34.5754 93.5045 35.8517C94.0106 36.7551 94.1818 37.3389 94.219 37.3389Z" fill="#FFC727"/>
<path d="M91.9766 38.4435C92.0006 37.9083 91.8989 37.3746 91.6789 36.8799C91.1036 35.5058 90.097 34.3261 88.7909 33.4956C87.1907 32.3768 84.8982 31.6888 82.375 31.1468C79.6319 30.6388 76.9581 29.8463 74.4035 28.784C71.8605 27.7018 69.4725 26.3268 67.2953 24.6909C65.5166 23.3523 63.8836 21.8533 62.4201 20.2155C61.439 19.1104 60.5317 17.95 59.7033 16.7409L59.0558 15.7263C58.9869 15.6034 58.9019 15.489 58.8027 15.3857C58.8445 15.5176 58.9046 15.6437 58.9814 15.761L59.5768 16.8034C60.3563 18.0556 61.2345 19.2518 62.2042 20.3823C63.6541 22.0564 65.2826 23.5885 67.0646 24.9549C69.2581 26.6221 71.669 28.0231 74.2397 29.1245C76.8191 30.1941 79.5212 30.9845 82.2931 31.4803C84.8089 31.9946 87.0567 32.6478 88.6347 33.7111C89.9135 34.5006 90.9214 35.6178 91.5375 36.9286C91.7328 37.4201 91.8797 37.9271 91.9766 38.4435Z" fill="#FFC727"/>
<path d="M82.793 51.0568C82.793 51.0082 83.448 50.9248 84.5868 50.6468C86.1842 50.212 87.6551 49.4445 88.8889 48.4022C90.69 46.8256 92.0606 44.8693 92.8858 42.6968C93.9329 40.0418 94.4964 37.2419 94.5531 34.4132C94.5857 32.9528 94.461 31.4931 94.1809 30.056C93.8888 28.7257 93.4601 27.4248 92.9007 26.1714C91.9304 24.0448 90.5843 22.0856 88.9186 20.3756C87.3442 18.8368 85.6171 17.4407 83.7606 16.2061C83.9115 16.2541 84.0544 16.322 84.1848 16.4076C84.4528 16.5674 84.8622 16.7759 85.346 17.1025C86.7426 17.9975 88.0304 19.0321 89.1866 20.188C90.9188 21.8986 92.3214 23.8758 93.3324 26.0324C93.9181 27.3123 94.3644 28.644 94.6647 30.0074C94.9634 31.4728 95.0956 32.9636 95.0592 34.4549C95.0053 37.3377 94.416 40.1898 93.3175 42.8844C92.4482 45.1124 91.0067 47.1072 89.1196 48.694C87.8391 49.7411 86.3072 50.4848 84.6537 50.8622C84.206 50.9621 83.7506 51.0295 83.2917 51.0638C83.1259 51.0834 82.958 51.0811 82.793 51.0568Z" fill="#FFC727"/>
<path d="M34.824 82.1478L35.0175 81.9184C43.4878 73.5793 59.081 70.7509 59.081 70.7509C59.081 70.7509 60.0338 76.227 68.7571 76.8385C77.4804 77.45 83.9186 69.1387 83.9186 69.1387L95.582 70.6675C95.582 70.6675 101.447 71.3138 105.102 73.3152C113.334 77.8392 117.703 93.4265 117.703 93.4265L27.7754 93.767L34.824 82.1478Z" fill="#FFC727"/>
<path d="M26.5977 0L25.9725 0.0416968L25.2282 0.0833909C24.923 0.0833909 24.5657 0.180682 24.1638 0.236276C21.7691 0.610164 19.5124 1.53704 17.599 2.93261C14.5188 5.17302 12.5144 8.46121 12.0241 12.0779C11.9121 13.1749 11.8723 14.2773 11.905 15.3788C11.905 16.5254 11.905 17.7068 11.905 18.9299C11.905 21.3691 11.905 23.9612 11.905 26.6923C11.905 37.6374 11.905 50.8758 11.9497 65.9697C11.9497 69.7455 11.9497 73.6348 11.9497 77.6376C11.9497 78.6314 11.9497 79.6459 12.0092 80.6397C12.0916 81.6473 12.2861 82.6441 12.5898 83.614C13.244 85.5884 14.3688 87.3989 15.8796 88.9094C16.6424 89.6757 17.4936 90.3609 18.4177 90.9525C19.3654 91.5384 20.3818 92.021 21.4471 92.391L22.2509 92.6689L23.0846 92.8635C23.6426 92.9978 24.2095 93.0977 24.7816 93.1623C25.3547 93.2457 25.9353 93.2318 26.5158 93.2666H42.9502V93.4334C42.9502 100.209 42.9502 107.45 42.9502 114.879L42.645 114.754C46.446 111.404 50.3089 107.948 54.2339 104.385C58.1341 100.814 62.1236 97.186 65.927 93.3083L65.9865 93.2527H118.632C119.599 93.2527 120.559 93.2527 121.497 93.1901C124.319 92.9712 127.011 91.9888 129.244 90.3633C131.477 88.7377 133.153 86.5395 134.069 84.0379C134.649 82.396 134.918 80.6723 134.865 78.9441V73.7529C134.865 59.9655 134.865 46.6507 134.865 33.996C134.865 27.6675 134.865 21.4965 134.865 15.483C134.927 14.0042 134.828 12.5232 134.567 11.0633C134.256 9.64739 133.716 8.28375 132.967 7.01879C131.441 4.54444 129.129 2.57473 126.35 1.38291C125.004 0.807267 123.57 0.429847 122.1 0.264074C120.642 0.148244 119.179 0.108802 117.716 0.145935H109.149H93.0422L44.3941 0.069492L92.9975 0.0138989H109.104H117.671C119.146 -0.0225178 120.622 0.01692 122.093 0.132036C123.596 0.297232 125.063 0.681808 126.439 1.27172C129.278 2.48981 131.642 4.50025 133.205 7.02574C133.995 8.32686 134.567 9.73292 134.902 11.1953C135.161 12.6764 135.261 14.178 135.2 15.6776C135.2 21.7004 135.2 27.8713 135.2 34.1906C135.2 46.8591 135.2 60.1601 135.2 73.9475V79.1386C135.255 80.9073 134.978 82.6713 134.381 84.3506C133.443 86.9183 131.723 89.1747 129.432 90.8435C127.141 92.5123 124.378 93.521 121.482 93.7461C120.507 93.8086 119.547 93.8086 118.587 93.8017H66.0759L66.2173 93.7461C62.399 97.6307 58.4095 101.258 54.5019 104.865C50.5942 108.472 46.7089 111.654 42.9055 115.004L42.5929 115.282V114.879C42.5929 107.45 42.5929 100.209 42.5929 93.4334L42.7715 93.5932H26.5307C25.9353 93.5515 25.3398 93.5932 24.7593 93.482C24.1746 93.4156 23.5953 93.3135 23.025 93.1762L22.1691 92.9747L21.3206 92.6828C20.2344 92.3027 19.1981 91.8084 18.2317 91.2096C17.2857 90.604 16.4123 89.905 15.6266 89.1248C14.0909 87.5766 12.9464 85.7268 12.2772 83.7113C11.9695 82.7204 11.77 81.7029 11.6817 80.6744C11.6445 79.639 11.6445 78.6383 11.6445 77.6445C11.6445 73.6417 11.6445 69.7525 11.6445 65.9767C11.6445 50.8828 11.6445 37.6444 11.6892 26.6992C11.6892 23.9681 11.6892 21.3761 11.6892 18.9368C11.6892 17.7138 11.6892 16.5324 11.6892 15.3858C11.6618 14.277 11.7065 13.1677 11.8232 12.064C12.3334 8.41467 14.3731 5.10329 17.4948 2.85616C19.4165 1.46558 21.6815 0.547992 24.0819 0.187631C24.4839 0.138986 24.8262 0.0764409 25.1537 0.055593L25.8981 0.0208471L26.5977 0Z" fill="#263238"/>
<path d="M80.4342 160.014H8.69765C4.00733 160.014 0.205078 163.564 0.205078 167.943V219.34C0.205078 223.72 4.00733 227.27 8.69765 227.27H80.4342C85.1245 227.27 88.9267 223.72 88.9267 219.34V167.943C88.9267 163.564 85.1245 160.014 80.4342 160.014Z" fill="white"/>
<path d="M48.1152 225.213C49.0233 227.298 66.6262 242.711 66.6262 242.711V225.213H48.1152Z" fill="#FFC727"/>
<path d="M60.4929 174.935C60.0579 173.62 59.3468 172.4 58.4011 171.346C57.4554 170.291 56.2941 169.423 54.985 168.792C52.0298 167.507 48.6879 167.222 45.5323 167.985C42.4057 168.758 39.4344 169.999 36.7345 171.662C35.1449 172.482 33.7337 173.574 32.5739 174.879C30.5865 177.346 28.6811 181.37 28.5769 184.455C28.4876 186.95 29.7008 193.156 30.8992 195.386C31.5356 196.308 32.4497 197.033 33.5266 197.471C34.8109 199.682 36.5072 201.661 38.5358 203.316C39.1014 201.629 39.6696 199.941 40.2402 198.25L60.4929 174.935Z" fill="#263238"/>
<path d="M58.8647 171.918L53.5801 171.182C56.6466 177.492 57.8747 192.085 59.7281 198.798C61.5814 196.123 65.8389 188.006 65.5039 184.83C65.169 181.654 65.0945 171.209 58.8647 171.918Z" fill="#263238"/>
<path d="M34.2643 183.218C34.3022 181.423 34.956 179.687 36.1297 178.264C37.3034 176.842 38.9349 175.809 40.7844 175.317L52.805 172.113C58.0152 171.418 61.692 177.36 62.1907 182.252C62.7341 187.687 63.1435 193.434 62.5852 197.541C61.4688 205.755 54.7923 206.992 54.7923 206.992C54.7923 206.992 54.9114 210.877 54.9784 213.246L53.0208 223.941L37.1745 211.307L34.1973 183.316C34.227 183.177 34.2568 183.406 34.2643 183.218Z" fill="#FFBF9D"/>
<path d="M59.5403 189.055C59.5545 189.328 59.4531 189.594 59.258 189.797C59.0629 190 58.7899 190.123 58.4983 190.14C58.3557 190.155 58.2112 190.143 58.0735 190.106C57.9357 190.068 57.8075 190.005 57.6964 189.92C57.5854 189.835 57.4937 189.73 57.4269 189.611C57.36 189.493 57.3194 189.363 57.3074 189.229C57.2969 188.957 57.3994 188.691 57.5936 188.488C57.7878 188.285 58.0586 188.159 58.3494 188.138C58.4924 188.124 58.6371 188.136 58.7748 188.175C58.9126 188.213 59.0407 188.277 59.1517 188.363C59.2626 188.448 59.3542 188.553 59.4209 188.672C59.4876 188.791 59.5282 188.922 59.5403 189.055Z" fill="#263238"/>
<path d="M60.9694 185.49C60.8354 185.629 59.9646 185.067 58.7365 185.108C57.5084 185.15 56.6599 185.734 56.5035 185.595C56.3472 185.456 56.5705 185.289 56.9501 185.011C57.4627 184.659 58.0783 184.463 58.7141 184.448C59.3416 184.43 59.959 184.598 60.4782 184.928C60.9024 185.185 61.0364 185.428 60.9694 185.49Z" fill="#263238"/>
<path d="M48.6594 189.055C48.6737 189.328 48.5722 189.594 48.3771 189.797C48.182 190 47.909 190.123 47.6174 190.139C47.4748 190.155 47.3303 190.143 47.1926 190.106C47.0548 190.068 46.9266 190.005 46.8155 189.92C46.7045 189.835 46.6128 189.73 46.546 189.611C46.4791 189.493 46.4385 189.363 46.4265 189.229C46.4161 188.956 46.5197 188.689 46.7154 188.486C46.9111 188.282 47.1838 188.158 47.476 188.138C47.6186 188.124 47.7628 188.136 47.9001 188.175C48.0375 188.214 48.1651 188.278 48.2755 188.363C48.3858 188.449 48.4767 188.554 48.5426 188.673C48.6086 188.792 48.6483 188.922 48.6594 189.055Z" fill="#263238"/>
<path d="M49.4997 185.796C49.3583 185.935 48.4949 185.372 47.2668 185.414C46.0387 185.456 45.1976 186.039 45.0339 185.9C44.8701 185.761 45.1009 185.595 45.4805 185.317C45.993 184.965 46.6087 184.769 47.2445 184.754C47.8719 184.736 48.4893 184.904 49.0085 185.233C49.4253 185.49 49.6039 185.734 49.4997 185.796Z" fill="#263238"/>
<path d="M53.5418 194.553C54.1757 194.353 54.8329 194.225 55.4994 194.17C55.8045 194.129 56.0948 194.066 56.1395 193.865C56.1553 193.567 56.075 193.271 55.9088 193.017C55.5961 192.322 55.2686 191.627 54.9188 190.849C53.5493 187.763 52.5519 185.22 52.6859 185.171C52.8199 185.122 54.0331 187.583 55.4026 190.668L56.3553 192.85C56.5583 193.193 56.6267 193.591 56.5489 193.976C56.5075 194.079 56.4419 194.171 56.3568 194.247C56.2718 194.323 56.1695 194.38 56.0576 194.414C55.8882 194.461 55.7132 194.489 55.5366 194.497C54.877 194.595 54.2066 194.614 53.5418 194.553Z" fill="#263238"/>
<path d="M43.0918 204.365C43.0918 204.365 46.1137 209.924 54.8444 208.882L54.8147 206.964C50.7244 207.13 46.6654 206.23 43.0918 204.365Z" fill="#FF9A6C"/>
<path d="M48.9935 181.731C48.8819 182.037 47.6761 181.933 46.2619 182.127C44.8477 182.322 43.7163 182.725 43.5154 182.454C43.4261 182.322 43.6196 182.03 44.0736 181.717C44.6783 181.337 45.3678 181.089 46.0899 180.994C46.812 180.899 47.5479 180.959 48.2417 181.168C48.7702 181.349 49.0382 181.585 48.9935 181.731Z" fill="#263238"/>
<path d="M60.4708 182.05C60.2699 182.315 59.4288 182.051 58.424 182.085C57.4192 182.12 56.5855 182.315 56.3771 182.05C56.2878 181.918 56.4143 181.661 56.7791 181.411C57.2657 181.103 57.84 180.939 58.4277 180.939C59.0155 180.939 59.5897 181.103 60.0764 181.411C60.4336 181.661 60.5602 181.925 60.4708 182.05Z" fill="#263238"/>
<path d="M59.5783 174.851C59.2513 174.259 58.7545 173.764 58.1433 173.42C57.5321 173.077 56.8307 172.898 56.1173 172.906C54.6857 172.941 53.2953 173.36 52.1129 174.115C46.9846 177.068 44.5135 183.934 39.4596 186.985C38.2167 187.728 36.542 187.117 35.4925 188.097C34.443 189.077 33.7955 190.605 34.4281 191.856C33.6647 191.018 33.0332 190.082 32.5525 189.077C32.3174 188.572 32.2005 188.027 32.2095 187.476C32.2185 186.926 32.3532 186.384 32.6046 185.887C33.0288 185.15 33.7955 184.58 33.989 183.802C34.1825 183.024 33.8327 182.35 33.8476 181.62C33.9176 180.88 34.1725 180.166 34.5919 179.535C36.4253 176.085 39.2299 173.167 42.7048 171.092C44.9985 169.764 47.6356 169.043 50.334 169.007C53.0404 168.994 55.6623 169.887 57.725 171.523C58.9084 172.496 60.1514 173.503 59.5932 174.879" fill="#263238"/>
<path d="M35.6479 189.104C35.5437 188.875 30.929 187.457 31.0108 191.988C31.0853 196.394 35.8191 195.4 35.8191 195.275C35.8191 195.15 35.6479 189.104 35.6479 189.104Z" fill="#FFBF9D"/>
<path d="M34.3308 193.635C34.3308 193.635 34.249 193.691 34.115 193.746C33.9165 193.82 33.6957 193.82 33.4972 193.746C33.1907 193.569 32.9394 193.32 32.7683 193.024C32.5972 192.727 32.5124 192.394 32.5222 192.058C32.5072 191.68 32.5782 191.303 32.7306 190.953C32.7741 190.815 32.8522 190.689 32.9583 190.585C33.0645 190.481 33.1956 190.402 33.3409 190.355C33.434 190.33 33.5338 190.336 33.6224 190.373C33.711 190.41 33.7827 190.475 33.8247 190.557C33.8917 190.682 33.8619 190.765 33.8917 190.772C33.9215 190.779 33.9885 190.703 33.9512 190.515C33.9199 190.407 33.852 190.312 33.7577 190.244C33.6265 190.156 33.4638 190.118 33.3037 190.14C33.1109 190.179 32.932 190.264 32.7836 190.385C32.6352 190.507 32.5222 190.661 32.4552 190.835C32.2621 191.219 32.1727 191.641 32.1947 192.065C32.1797 192.458 32.2897 192.847 32.5109 193.182C32.7321 193.517 33.0545 193.784 33.4377 193.948C33.5646 193.978 33.6969 193.981 33.8254 193.959C33.9539 193.936 34.0756 193.887 34.182 193.816C34.3234 193.739 34.3532 193.642 34.3308 193.635Z" fill="#FF9A6C"/>
<path d="M33.6992 186.894C33.7965 186.855 33.8889 186.806 33.9746 186.748C34.1532 186.637 34.4212 186.491 34.7189 186.262C35.627 185.602 36.4578 184.854 37.1975 184.031C38.2676 182.799 39.2617 181.512 40.1747 180.174C41.2755 178.538 42.5203 176.99 43.8963 175.546C44.6376 174.823 45.4612 174.177 46.3525 173.621C47.189 173.115 48.0889 172.706 49.032 172.405C50.6293 171.88 52.3194 171.644 54.0114 171.71C55.1525 171.745 56.2836 171.921 57.3757 172.231C57.7627 172.336 58.053 172.447 58.254 172.509L58.5666 172.607L58.2689 172.475C57.9852 172.355 57.6944 172.25 57.398 172.162C56.3056 171.813 55.1649 171.614 54.0114 171.571C52.297 171.496 50.5833 171.732 48.965 172.266C48.0056 172.572 47.0906 172.987 46.2408 173.503C45.3317 174.062 44.4928 174.715 43.74 175.449C42.3578 176.9 41.1126 178.46 40.0184 180.112C39.097 181.448 38.1033 182.74 37.0412 183.983C36.3422 184.783 35.5648 185.52 34.7189 186.185C34.4063 186.422 34.1384 186.582 33.9746 186.707L33.6992 186.894Z" fill="white"/>
<path d="M34.9279 188.138C34.7772 189.32 34.962 190.519 35.4638 191.613C36.0965 192.669 37.6149 193.357 38.7165 192.725C39.6171 192.217 39.8553 191.113 39.9818 190.14C40.3465 187.325 40.4582 184.483 40.8452 181.668L34.9279 188.138Z" fill="#263238"/>
<path d="M58.3583 172.787C58.3583 172.787 57.9415 172.725 57.1823 172.725C56.1147 172.737 55.0601 172.944 54.0785 173.336C53.4008 173.604 52.7548 173.938 52.1507 174.33C51.4604 174.789 50.8016 175.288 50.1783 175.824C48.7318 177.035 47.4472 178.405 46.3526 179.903C45.7794 180.703 45.2733 181.523 44.7151 182.287C44.2007 183.03 43.5936 183.714 42.9064 184.323C41.7118 185.324 40.3982 186.194 38.9913 186.915C37.8079 187.548 36.8105 187.992 36.1258 188.305L35.3293 188.646C35.2374 188.691 35.14 188.726 35.0391 188.75C35.1218 188.691 35.2118 188.642 35.307 188.604L36.0513 188.215C36.7212 187.881 37.7037 187.416 38.8723 186.776C40.2479 186.038 41.5332 185.162 42.7055 184.163C43.381 183.564 43.9781 182.892 44.4843 182.162C45.0277 181.404 45.5338 180.584 46.1144 179.771C47.2279 178.247 48.5377 176.856 50.0146 175.63C50.6523 175.097 51.3233 174.601 52.0242 174.142C52.6429 173.746 53.3069 173.415 54.0041 173.156C55.0112 172.769 56.0935 172.582 57.1823 172.607C57.477 172.616 57.7706 172.647 58.0605 172.697C58.1632 172.716 58.2631 172.747 58.3583 172.787Z" fill="#FFC727"/>
<path d="M34.7184 185.393C34.5937 185.498 34.4563 185.589 34.309 185.664L33.133 186.359L32.7385 186.581C32.5832 186.674 32.4078 186.733 32.2249 186.755C32.1145 186.773 32.0008 186.754 31.9049 186.699C31.853 186.666 31.8094 186.623 31.7773 186.573C31.7452 186.522 31.7252 186.466 31.7188 186.408C31.725 186.205 31.7977 186.008 31.9272 185.845L33.2521 183.76L33.4456 183.92C32.996 184.242 32.4932 184.493 31.957 184.663C31.4148 184.831 30.8456 184.908 30.2748 184.893C30.1288 184.894 29.9833 184.875 29.8431 184.837C29.7613 184.818 29.6852 184.782 29.6207 184.732C29.5562 184.681 29.505 184.617 29.471 184.545C29.4426 184.472 29.4332 184.393 29.4435 184.316C29.4539 184.239 29.4837 184.165 29.5305 184.1C29.6099 184 29.6969 183.905 29.791 183.816C30.3941 183.24 30.91 182.59 31.3243 181.884C31.6997 181.212 32.0206 180.515 32.2845 179.799C32.2715 180 32.229 180.199 32.1579 180.39C31.9919 180.923 31.77 181.44 31.4955 181.932C31.0881 182.676 30.5693 183.361 29.9548 183.968C29.7836 184.128 29.6124 184.316 29.6868 184.448C29.7613 184.58 30.0218 184.649 30.2674 184.642C30.8082 184.657 31.3475 184.582 31.8602 184.42C32.3708 184.266 32.8491 184.031 33.2744 183.725L33.8252 183.329L33.4679 183.885L32.1133 185.97C32.0078 186.096 31.9433 186.248 31.9272 186.408C31.9272 186.533 32.0537 186.602 32.2026 186.588C32.5039 186.519 32.789 186.399 33.0437 186.234L34.2569 185.615C34.3983 185.521 34.5538 185.446 34.7184 185.393Z" fill="white"/>
<path d="M49.0146 196.755C49.0914 196.418 49.2932 196.116 49.5846 195.904C49.8759 195.692 50.2381 195.582 50.6074 195.595C50.8776 195.619 51.1371 195.706 51.363 195.846C51.5889 195.987 51.7742 196.177 51.9025 196.401C52.0252 196.627 52.0984 196.874 52.1175 197.127C52.1367 197.38 52.1015 197.634 52.0141 197.874V197.978C51.7721 198.239 51.4496 198.422 51.0911 198.505C50.7325 198.587 50.3555 198.563 50.0119 198.437C49.6689 198.3 49.3844 198.061 49.2037 197.756C49.0231 197.451 48.9565 197.099 49.0146 196.755Z" fill="#FF9A6C"/>
<path d="M52.8719 197.978C52.8719 197.811 51.6513 197.895 50.6985 196.985C49.7458 196.074 49.7831 194.851 49.6119 194.851C49.4407 194.851 49.4035 195.143 49.4258 195.657C49.4759 196.324 49.7733 196.953 50.2668 197.436C50.7422 197.902 51.394 198.177 52.083 198.201C52.5817 198.208 52.8868 198.055 52.8719 197.978Z" fill="#263238"/>
<path d="M72.3646 219.153L72.2307 218.986C66.1273 212.961 54.9031 210.946 54.9031 210.946C54.9031 210.946 54.2184 214.886 47.929 215.331C41.6395 215.776 37.0099 209.771 37.0099 209.771L28.6216 210.869C28.6216 210.869 24.3939 211.335 21.759 212.781C15.8046 216.033 12.6934 227.256 12.6934 227.256L77.4483 227.499L72.3646 219.153Z" fill="#FFC727"/>
<path d="M78.2899 160.014C78.2899 160.014 78.4388 160.014 78.7365 160.014C79.1856 160.017 79.6337 160.055 80.0763 160.126C81.8052 160.387 83.4372 161.046 84.825 162.044C87.0737 163.665 88.5451 166.05 88.9187 168.68C89.0039 169.477 89.0362 170.277 89.0154 171.078C89.0154 171.898 89.0154 172.752 89.0154 173.628C89.0154 175.386 89.0154 177.256 89.0154 179.222C89.0154 187.096 89.0154 196.63 89.0601 207.492C89.0601 210.207 89.0601 213.007 89.0601 215.894C89.0601 216.589 89.0601 217.332 89.0601 218.076C89.0014 218.82 88.8566 219.556 88.6284 220.272C88.1506 221.73 87.3233 223.068 86.2094 224.184C85.0778 225.34 83.6665 226.226 82.0934 226.769L81.4979 226.971L80.8801 227.117C80.4686 227.215 80.051 227.289 79.6297 227.339C78.7811 227.412 77.9287 227.44 77.0767 227.423H66.6564L66.8276 227.256C66.8276 232.12 66.8276 237.353 66.8276 242.697V243.093L66.515 242.822C63.7759 240.422 60.9922 237.946 58.1638 235.393C55.3503 232.822 52.4773 230.209 49.7234 227.409L49.8648 227.471H12.0315C11.3393 227.471 10.6471 227.471 9.94002 227.43C7.84512 227.266 5.8466 226.536 4.18893 225.329C2.53127 224.122 1.28633 222.49 0.606387 220.633C0.177439 219.419 -0.0239958 218.145 0.0109397 216.867V213.128C0.0109397 203.197 0.0109397 193.628 0.0109397 184.504C0.0109397 179.945 0.0109397 175.504 0.0109397 171.182C-0.0301661 170.098 0.0446347 169.013 0.234232 167.944C0.475488 166.893 0.887119 165.883 1.4549 164.948C2.58643 163.119 4.29747 161.662 6.35245 160.779C7.34807 160.356 8.40752 160.08 9.49344 159.959C10.5526 159.872 11.6164 159.845 12.6791 159.875H30.4681L65.4506 159.931L74.9629 159.966L65.4506 160L30.4681 160.056H18.8717H12.7014C11.651 160.034 10.6 160.064 9.55298 160.146C7.94022 160.338 6.39733 160.878 5.04616 161.722C3.69499 162.566 2.57256 163.692 1.76751 165.011C1.21203 165.94 0.812878 166.943 0.584057 167.985C0.397751 169.034 0.327913 170.099 0.375651 171.161C0.375651 175.474 0.375651 179.915 0.375651 184.483C0.375651 193.607 0.375651 203.176 0.375651 213.107V216.846C0.333911 218.084 0.52796 219.319 0.948768 220.494C1.82381 222.884 3.66021 224.863 6.06962 226.012C7.28318 226.596 8.60876 226.951 9.9698 227.054C10.6397 227.096 11.3319 227.103 12.0315 227.096H49.9466L50.0062 227.159C52.7452 229.938 55.6183 232.558 58.4243 235.129C61.2304 237.701 64.029 240.182 66.768 242.593L66.4554 242.718C66.4554 237.374 66.4554 232.155 66.4554 227.277V227.11H77.0544C77.8914 227.133 78.7291 227.108 79.5627 227.033C79.9723 226.99 80.3778 226.918 80.7759 226.818L81.3788 226.679L81.9519 226.484C83.4795 225.961 84.8502 225.103 85.9489 223.983C87.029 222.902 87.8331 221.607 88.3009 220.195C88.5224 219.5 88.6646 218.785 88.7252 218.062C88.7773 217.367 88.7624 216.616 88.7624 215.901C88.7624 213.019 88.7624 210.218 88.7624 207.499C88.7624 196.637 88.7624 187.103 88.807 179.229C88.807 177.263 88.807 175.393 88.807 173.635V171.085C88.833 170.292 88.8057 169.498 88.7252 168.708C88.4413 166.607 87.444 164.646 85.8795 163.113C84.315 161.58 82.2655 160.555 80.0316 160.188C79.595 160.107 79.1518 160.06 78.7067 160.049L78.2899 160.014Z" fill="#263238"/>
<path d="M216.329 298L123.469 297.937C112.305 297.937 103.254 289.876 103.254 279.939L103.299 72.7799C103.299 62.8355 112.364 54.7743 123.544 54.7813L216.411 54.8299C227.576 54.8299 236.627 62.8911 236.627 72.8286L236.582 279.98C236.575 289.953 227.494 298.007 216.329 298Z" fill="#263238"/>
<path d="M216.33 62.1823H198.303C197.73 62.1814 197.162 62.2858 196.633 62.4896C196.103 62.6934 195.622 62.9926 195.216 63.3701C194.81 63.7476 194.488 64.196 194.268 64.6897C194.048 65.1835 193.934 65.7128 193.933 66.2476V69.1524C193.932 69.6878 193.818 70.2177 193.598 70.7119C193.377 71.2061 193.055 71.6548 192.648 72.0324C192.242 72.41 191.759 72.709 191.229 72.9124C190.698 73.1158 190.13 73.2196 189.557 73.2178H154.463C153.89 73.2187 153.323 73.1142 152.793 72.9104C152.263 72.7066 151.782 72.4074 151.376 72.0299C150.971 71.6524 150.649 71.204 150.428 70.7103C150.208 70.2166 150.095 69.6872 150.094 69.1524V66.2407C150.093 65.7053 149.979 65.1754 149.758 64.6812C149.537 64.187 149.215 63.7383 148.808 63.3607C148.402 62.9831 147.919 62.684 147.389 62.4806C146.859 62.2772 146.29 62.1735 145.717 62.1753H123.626C115.803 62.1753 109.484 67.8182 109.484 74.7814L109.439 277.006C109.439 283.955 115.774 289.612 123.581 289.612L216.263 289.661C224.093 289.661 230.405 284.025 230.442 277.062L230.486 74.837C230.472 67.8321 224.13 62.1892 216.33 62.1823Z" fill="white"/>
<path d="M166.856 112.586C168.166 112.498 169.394 111.958 170.301 111.071C171.208 110.183 171.729 109.013 171.761 107.786C171.794 106.56 171.336 105.367 170.477 104.439C169.619 103.511 168.42 102.914 167.116 102.766C167.751 101.867 168.066 100.804 168.016 99.7275C167.967 98.6514 167.557 97.6171 166.842 96.7712C166.128 95.9253 165.147 95.3108 164.038 95.0148C162.929 94.7188 161.748 94.7563 160.663 95.1221C160.403 94.0886 159.86 93.1357 159.088 92.3563C158.316 91.5769 157.341 90.9976 156.258 90.6749C155.174 90.3522 154.02 90.2972 152.907 90.5151C151.794 90.7331 150.761 91.2165 149.908 91.9184C148.452 91.1938 146.78 90.9412 145.154 91.2003C143.528 91.4594 142.04 92.2156 140.924 93.35C139.788 93.3469 138.681 93.6873 137.769 94.3202C136.857 94.9531 136.189 95.8446 135.865 96.8613C135.541 97.878 135.578 98.9654 135.971 99.9609C136.363 100.956 137.09 101.806 138.043 102.384" fill="#263238"/>
<path d="M167.749 113.127C166.251 108.049 162.759 103.684 157.968 100.902C153.177 98.1201 147.44 97.1257 141.899 98.1169L140.76 98.3184C128.598 101.182 124.385 112.419 127.794 123.697L136.309 164.629L161.37 182.697L167.853 167.624L165.3 154.003C165.3 154.003 176.777 150.181 174.671 139.118C173.681 133.76 170.629 122.912 167.749 113.127Z" fill="#C17560"/>
<path d="M165.426 153.955C159.928 154.936 154.245 154.422 149.051 152.475C149.051 152.475 154.179 160.015 165.775 156.922L165.426 153.955Z" fill="#7C4236"/>
<path d="M166.691 123.718C166.78 124.129 166.693 124.556 166.45 124.907C166.207 125.259 165.826 125.508 165.388 125.602C165.177 125.656 164.956 125.67 164.738 125.643C164.52 125.616 164.311 125.549 164.121 125.446C163.932 125.342 163.767 125.204 163.635 125.04C163.504 124.876 163.409 124.689 163.356 124.49C163.267 124.079 163.354 123.653 163.597 123.301C163.841 122.949 164.222 122.7 164.659 122.606C164.871 122.552 165.092 122.538 165.309 122.565C165.527 122.592 165.737 122.659 165.926 122.763C166.115 122.866 166.281 123.004 166.412 123.168C166.543 123.332 166.638 123.519 166.691 123.718Z" fill="#263238"/>
<path d="M166.304 118.986C166.14 119.222 164.681 118.569 162.865 118.896C161.049 119.222 159.888 120.285 159.65 120.139C159.531 120.063 159.65 119.653 160.171 119.153C160.854 118.505 161.736 118.07 162.694 117.909C163.638 117.734 164.617 117.849 165.485 118.235C166.125 118.534 166.393 118.875 166.304 118.986Z" fill="#263238"/>
<path d="M150.212 126.985C150.299 127.395 150.21 127.821 149.966 128.171C149.721 128.522 149.339 128.769 148.902 128.861C148.691 128.915 148.47 128.929 148.253 128.902C148.036 128.875 147.827 128.808 147.638 128.704C147.45 128.601 147.285 128.463 147.154 128.299C147.024 128.134 146.93 127.948 146.878 127.749C146.789 127.339 146.876 126.913 147.119 126.563C147.363 126.212 147.744 125.964 148.18 125.873C148.392 125.818 148.613 125.804 148.831 125.831C149.048 125.858 149.258 125.925 149.447 126.029C149.637 126.132 149.802 126.27 149.933 126.434C150.065 126.599 150.159 126.786 150.212 126.985Z" fill="#263238"/>
<path d="M148.508 122.474C148.344 122.718 146.885 122.058 145.069 122.384C143.253 122.711 142.092 123.774 141.854 123.628C141.742 123.552 141.854 123.142 142.375 122.648C143.056 122.012 143.928 121.585 144.876 121.425C145.82 121.255 146.797 121.37 147.667 121.752C148.329 122.023 148.597 122.363 148.508 122.474Z" fill="#263238"/>
<path d="M157.671 133.885C157.671 133.788 158.735 133.406 160.521 132.857C160.975 132.732 161.4 132.572 161.414 132.259C161.361 131.804 161.161 131.375 160.841 131.029L158.802 127.978C155.936 123.621 153.77 120.001 153.956 119.896C154.143 119.792 156.621 123.239 159.487 127.596L161.474 130.675C161.872 131.147 162.08 131.735 162.062 132.336C162.025 132.5 161.95 132.655 161.84 132.789C161.73 132.922 161.59 133.031 161.429 133.107C161.192 133.213 160.942 133.293 160.685 133.343C158.839 133.767 157.7 133.976 157.671 133.885Z" fill="#263238"/>
<path d="M147.852 116.602C147.703 117.075 146.051 116.887 144.131 117.165C142.21 117.443 140.647 118.034 140.409 117.617C140.29 117.416 140.55 116.971 141.153 116.505C141.958 115.929 142.91 115.557 143.915 115.428C144.903 115.285 145.915 115.388 146.847 115.727C147.584 116.019 147.949 116.38 147.852 116.602Z" fill="#263238"/>
<path d="M165.301 112.94C164.996 113.392 163.418 113.26 161.579 113.558C159.741 113.857 158.304 114.413 157.858 114.073C157.664 113.899 157.821 113.475 158.416 112.988C159.244 112.37 160.233 111.97 161.282 111.828C162.319 111.646 163.39 111.733 164.378 112.078C165.145 112.391 165.435 112.717 165.301 112.94Z" fill="#263238"/>
<path d="M131.917 134.1C131.82 133.697 131.636 133.317 131.377 132.982C131.118 132.648 130.789 132.365 130.41 132.153C130.03 131.941 129.609 131.802 129.171 131.746C128.732 131.69 128.286 131.718 127.86 131.828C125.694 132.419 123.476 134.024 124.496 138.249C126.29 145.747 133.986 142.516 133.949 142.301C133.911 142.085 132.698 137.235 131.917 134.1Z" fill="#C17560"/>
<path d="M131.523 139.841C131.486 139.841 131.404 139.966 131.195 140.112C130.895 140.317 130.521 140.404 130.153 140.355C129.23 140.237 128.218 139.132 127.853 137.791C127.677 137.152 127.659 136.484 127.801 135.838C127.819 135.588 127.903 135.346 128.044 135.132C128.185 134.919 128.381 134.742 128.612 134.615C128.763 134.545 128.935 134.524 129.1 134.557C129.265 134.59 129.413 134.674 129.521 134.796C129.677 134.983 129.662 135.143 129.714 135.15C129.766 135.157 129.855 134.99 129.714 134.691C129.623 134.515 129.471 134.373 129.282 134.288C129.153 134.238 129.014 134.212 128.873 134.212C128.732 134.212 128.593 134.238 128.464 134.288C128.148 134.418 127.874 134.62 127.667 134.877C127.459 135.134 127.326 135.436 127.28 135.755C127.094 136.474 127.094 137.224 127.28 137.944C127.697 139.445 128.866 140.723 130.101 140.758C130.331 140.772 130.562 140.737 130.776 140.657C130.989 140.576 131.181 140.452 131.337 140.293C131.552 140.028 131.552 139.855 131.523 139.841Z" fill="#7C4236"/>
<path d="M157.828 98.6243C157.716 98.4491 157.584 98.286 157.433 98.1378C156.858 97.5931 156.156 97.1807 155.38 96.9335C154.605 96.6862 153.779 96.6108 152.967 96.7132C151.966 96.4358 150.943 96.2313 149.908 96.1017C149.122 95.2318 148.111 94.5637 146.971 94.1607C145.831 93.7577 144.6 93.6331 143.394 93.7987C142.188 93.9643 141.047 94.4147 140.079 95.1072C139.112 95.7996 138.35 96.7112 137.865 97.7556C137.538 97.8599 137.218 97.9711 136.898 98.0892C135.889 97.6377 134.784 97.4082 133.665 97.4184C132.547 97.4286 131.446 97.6783 130.448 98.1482C129.449 98.6181 128.579 99.2957 127.905 100.129C127.231 100.962 126.771 101.928 126.559 102.954C125.517 102.879 124.474 103.094 123.562 103.57C122.65 104.047 121.909 104.765 121.432 105.633C120.955 106.502 120.763 107.482 120.881 108.452C120.999 109.422 121.42 110.338 122.094 111.084C120.798 112.12 119.861 113.69 120.114 115.254C120.367 116.818 122.123 117.916 123.604 117.471C124.058 121.14 125.339 125.324 126.306 129.041C126.991 131.661 130.914 132.592 131.516 134.344C134.643 143.274 136.816 137.645 134.181 118.471C134.352 118.284 134.531 118.089 134.702 117.881C134.952 117.432 135.168 116.968 135.35 116.491C135.692 115.928 136.541 115.935 137.233 115.879C138.431 115.754 139.546 115.248 140.392 114.445C141.237 113.643 141.762 112.594 141.877 111.474C142.622 112.168 144.043 111.918 144.855 111.209C145.566 110.43 146.155 109.559 146.604 108.624C147.162 107.735 148.018 106.88 149.112 106.831C149.721 106.913 150.338 106.93 150.95 106.88C151.992 106.609 152.275 105.351 152.231 104.344C152.098 103.492 152.216 102.622 152.573 101.828C153.155 101.416 153.814 101.107 154.516 100.918C154.925 100.918 155.349 100.918 155.751 100.876C155.944 100.866 156.135 100.843 156.324 100.806C156.59 100.84 156.854 100.889 157.113 100.952C161.013 101.932 165.539 108.291 165.539 108.291C164.973 103.843 161.639 100.647 157.828 98.6243Z" fill="#263238"/>
<path d="M121.162 111.634C121.162 111.634 121.162 111.592 121.214 111.508C121.266 111.425 121.311 111.314 121.408 111.168C121.701 110.753 122.069 110.389 122.494 110.091C123.172 109.62 123.961 109.308 124.794 109.18C125.898 109.001 127.033 109.183 128.01 109.695L127.801 109.799C127.874 108.941 128.141 108.108 128.585 107.354C129.029 106.601 129.64 105.944 130.377 105.428C131.19 104.826 132.116 104.371 133.108 104.087C134.157 103.803 135.248 103.684 136.339 103.732C138.382 103.848 140.384 104.319 142.241 105.122L142.018 105.233C142.383 103.533 143.426 102.025 144.935 101.015C145.913 100.373 147.049 99.9733 148.237 99.8518C149.426 99.7303 150.627 99.8914 151.731 100.32C151.961 100.408 152.185 100.51 152.401 100.626C152.542 100.709 152.617 100.758 152.609 100.765C152.602 100.772 152.297 100.619 151.694 100.41C150.828 100.118 149.912 99.9785 148.992 100C147.589 100.027 146.228 100.454 145.092 101.224C143.658 102.208 142.673 103.659 142.33 105.289L142.293 105.476L142.107 105.4C140.286 104.611 138.326 104.14 136.324 104.01C135.271 103.967 134.218 104.082 133.205 104.351C132.25 104.617 131.358 105.051 130.578 105.629C129.868 106.12 129.277 106.745 128.845 107.463C128.413 108.182 128.148 108.978 128.069 109.799V110.007L127.876 109.903C126.957 109.403 125.882 109.214 124.832 109.368C124.028 109.475 123.262 109.758 122.599 110.195C122.023 110.581 121.534 111.07 121.162 111.634Z" fill="#FFC727"/>
<path d="M152.586 101.307C152.568 101.415 152.541 101.522 152.504 101.626C152.437 101.931 152.394 102.24 152.377 102.551C152.377 102.961 152.377 103.461 152.325 104.052C152.344 104.736 152.204 105.416 151.916 106.046C151.809 106.231 151.664 106.395 151.489 106.528C151.314 106.66 151.113 106.759 150.896 106.817C150.44 106.92 149.973 106.973 149.504 106.977C149.03 106.978 148.563 107.093 148.15 107.311C147.74 107.597 147.398 107.959 147.145 108.374C146.862 108.798 146.609 109.264 146.334 109.764C146.087 110.27 145.761 110.738 145.366 111.154C144.899 111.568 144.328 111.867 143.706 112.022C143.386 112.112 143.051 112.15 142.716 112.134C142.349 112.128 141.999 111.989 141.741 111.744L142.024 111.647C142.002 112.601 141.635 113.519 140.982 114.253C140.291 115.007 139.389 115.568 138.377 115.872C137.957 115.997 137.526 116.088 137.089 116.143C136.686 116.131 136.284 116.202 135.913 116.352C135.575 116.528 135.313 116.808 135.169 117.144C134.982 117.493 134.766 117.828 134.521 118.145C133.651 119.42 132.299 120.343 130.733 120.73C129.301 120.922 127.843 120.62 126.632 119.882C125.59 119.27 124.771 118.378 124.28 117.325L124.436 117.38C123.997 117.551 123.523 117.628 123.049 117.608C122.574 117.587 122.11 117.469 121.69 117.262C121.059 116.947 120.566 116.436 120.298 115.817C120.128 115.437 120.049 115.026 120.067 114.615C120.068 114.509 120.08 114.405 120.104 114.302C120.104 114.232 120.104 114.198 120.104 114.198C120.059 114.737 120.156 115.279 120.387 115.775C120.659 116.353 121.138 116.825 121.742 117.109C122.138 117.295 122.573 117.398 123.017 117.411C123.46 117.424 123.901 117.347 124.31 117.186L124.421 117.144L124.466 117.241C124.954 118.243 125.749 119.087 126.751 119.667C127.906 120.356 129.288 120.632 130.644 120.445C132.122 120.072 133.399 119.197 134.224 117.992C134.461 117.689 134.67 117.368 134.849 117.033C135.024 116.641 135.333 116.313 135.727 116.102C135.93 115.999 136.153 115.933 136.382 115.907L137.015 115.858C137.43 115.806 137.838 115.717 138.236 115.594C139.19 115.313 140.04 114.788 140.692 114.079C141.302 113.4 141.646 112.547 141.667 111.661V111.3L141.935 111.564C142.166 111.726 142.438 111.83 142.725 111.865C143.012 111.9 143.304 111.866 143.572 111.765C144.144 111.624 144.668 111.352 145.098 110.973C145.496 110.57 145.823 110.11 146.066 109.611C146.349 109.139 146.609 108.673 146.907 108.221C147.184 107.777 147.556 107.391 148.001 107.088C148.455 106.851 148.969 106.729 149.49 106.734C149.94 106.733 150.389 106.686 150.829 106.595C151.018 106.547 151.195 106.464 151.349 106.352C151.504 106.24 151.633 106.101 151.73 105.942C152.02 105.341 152.167 104.689 152.162 104.031C152.199 103.447 152.221 102.94 152.266 102.53C152.297 102.215 152.359 101.903 152.452 101.599C152.484 101.497 152.529 101.399 152.586 101.307Z" fill="#FFC727"/>
<path d="M152.61 137.853C152.275 139.938 153.235 141.932 155.334 142.648C155.743 142.766 156.172 142.808 156.598 142.771C157.024 142.734 157.438 142.619 157.816 142.432C158.194 142.246 158.529 141.991 158.802 141.684C159.075 141.376 159.28 141.021 159.406 140.64C159.646 139.787 159.664 138.894 159.458 138.034C157.53 137.929 154.553 137.957 152.61 137.853Z" fill="#7C4236"/>
<path d="M159.017 141.481C159.017 141.481 159.017 141.536 158.935 141.627C158.843 141.76 158.733 141.881 158.608 141.988C158.15 142.395 157.572 142.664 156.948 142.76C156.008 142.894 155.048 142.712 154.239 142.245C153.756 141.945 153.344 141.555 153.03 141.1C152.717 140.644 152.507 140.132 152.415 139.598C152.371 139.317 152.356 139.033 152.371 138.75C152.372 138.453 152.454 138.161 152.609 137.902C152.706 137.762 152.85 137.657 153.018 137.603C153.167 137.559 153.324 137.54 153.48 137.548H154.269C155.288 137.596 156.204 137.687 156.971 137.763C158.496 137.916 159.449 137.958 159.449 138.013C158.618 138.104 157.779 138.104 156.948 138.013C156.204 137.971 155.266 137.902 154.254 137.874H153.509C153.249 137.874 153.063 137.909 152.951 138.076C152.842 138.293 152.786 138.53 152.787 138.771C152.753 139.392 152.889 140.012 153.182 140.571C153.475 141.13 153.916 141.611 154.462 141.967C155.197 142.403 156.068 142.592 156.933 142.502C157.522 142.441 158.08 142.224 158.541 141.877C158.854 141.641 159.017 141.453 159.017 141.481Z" fill="#263238"/>
<path d="M203.975 117.499C203.975 117.499 213.405 116.401 227.577 105.873C241.748 95.3445 249.43 80.3826 251.008 80.605C252.585 80.8274 259.842 78.416 270.36 106.415C280.877 134.413 275.026 140.188 272.406 139.903C269.786 139.618 252.399 133.406 241.145 133.614C229.891 133.823 214.998 137.978 214.998 137.978L203.975 117.499Z" fill="#FFC727"/>
<path d="M187.011 138.402L192.05 137.401L189.318 131.209L185.061 133.197L187.011 138.402Z" fill="#FFC727"/>
<path d="M187.599 131.043L189.46 136.268L190.621 138.895C191.378 140.641 192.825 142.047 194.663 142.824C196.5 143.6 198.587 143.686 200.491 143.065L220.937 137.693L212.154 113.523L191.835 121.522C189.929 122.269 188.415 123.688 187.622 125.47C186.829 127.252 186.821 129.255 187.599 131.043Z" fill="#263238"/>
<path d="M194.932 139.076L201.779 150.411L204.905 149.472L226.289 164.372L231.596 153.586C231.596 153.586 219.151 149.146 216.71 145.164C214.269 141.182 216.844 140.16 216.844 140.16L210.823 134.281L194.932 139.076Z" fill="#263238"/>
<path d="M269.235 106.832C274.795 121.988 276.418 135.199 272.852 136.338C269.287 137.478 261.881 126.123 256.314 110.967C250.746 95.8101 249.131 82.5995 252.696 81.4528C256.262 80.3062 263.667 91.6544 269.235 106.832Z" fill="#263238"/>
<path d="M255.221 102.314C255.221 102.314 263.721 98.3742 267.092 108.889C270.464 119.403 261.845 120.327 261.845 120.327C258.742 114.643 256.512 108.579 255.221 102.314Z" fill="#FAFAFA"/>
<path d="M247.903 89.4932C247.876 90.1508 247.916 90.8092 248.022 91.4598C248.148 92.7176 248.327 94.5453 248.617 96.7969C248.85 97.9134 249.099 99.1272 249.361 100.438C249.503 101.092 249.644 101.773 249.786 102.468C249.86 102.815 249.935 103.169 250.009 103.531C250.098 103.885 250.217 104.226 250.322 104.601L251.699 109.125L252.056 110.306C252.175 110.709 252.361 111.092 252.51 111.488C252.823 112.28 253.143 113.079 253.47 113.892L254.438 116.297C254.601 116.686 254.735 117.089 254.929 117.464L255.487 118.583L257.638 122.843C257.817 123.176 257.973 123.538 258.159 123.837L258.74 124.775L259.849 126.575L261.844 129.778C263.206 131.655 264.352 133.135 265.141 134.163C265.52 134.718 265.954 135.24 266.436 135.72C266.131 135.127 265.773 134.56 265.364 134.024L262.253 129.528L260.348 126.29L259.283 124.504C259.097 124.191 258.911 123.878 258.717 123.566C258.524 123.253 258.39 122.905 258.219 122.565C257.549 121.21 256.842 119.785 256.12 118.319L255.562 117.207C255.376 116.832 255.242 116.436 255.078 116.046L254.125 113.663C253.805 112.857 253.485 112.058 253.165 111.272C253.016 110.883 252.83 110.501 252.718 110.105C252.607 109.709 252.473 109.313 252.346 108.923L250.947 104.434C250.843 104.08 250.716 103.739 250.627 103.378C250.537 103.017 250.463 102.683 250.389 102.329C250.232 101.634 250.076 100.939 249.935 100.313C249.637 99.0207 249.354 97.8115 249.101 96.7065C248.766 94.4967 248.483 92.6968 248.29 91.4181C248.214 90.7681 248.085 90.1246 247.903 89.4932Z" fill="#263238"/>
<path d="M220.938 137.659C220.644 137.785 220.334 137.876 220.015 137.93L217.485 138.555C215.341 139.069 212.386 139.799 209.126 140.64C205.866 141.481 202.926 142.245 200.775 142.725C199.696 142.975 198.825 143.163 198.214 143.281C197.902 143.355 197.583 143.404 197.262 143.427C197.558 143.302 197.867 143.206 198.185 143.142L200.7 142.447L209.029 140.244C212.282 139.403 215.259 138.708 217.418 138.256C218.497 138.027 219.375 137.853 219.985 137.749C220.299 137.691 220.618 137.661 220.938 137.659Z" fill="#FFC727"/>
<path d="M208.887 133.711C208.255 134.044 207.586 134.311 206.892 134.511C205.635 134.948 203.915 135.504 201.928 136.053C199.941 136.602 198.169 137.026 196.867 137.304C196.169 137.49 195.454 137.609 194.73 137.659C195.402 137.406 196.094 137.204 196.8 137.054C198.087 136.714 199.859 136.248 201.816 135.706C203.774 135.164 205.538 134.643 206.803 134.267C207.481 134.03 208.178 133.845 208.887 133.711Z" fill="#FFC727"/>
<path d="M205.671 128.194C203.613 128.966 201.508 129.622 199.367 130.161C197.261 130.819 195.117 131.362 192.943 131.787C195.004 131.013 197.111 130.354 199.255 129.813C201.359 129.159 203.501 128.618 205.671 128.194Z" fill="#FFC727"/>
<path d="M202.5 122.877C200.766 123.782 198.971 124.581 197.126 125.268C195.335 126.073 193.491 126.77 191.604 127.353C193.332 126.441 195.125 125.64 196.97 124.955C198.761 124.147 200.609 123.453 202.5 122.877Z" fill="#FFC727"/>
<path d="M179.495 182.683L167.08 163.121L134.978 161.884V164.608C134.978 164.608 126.165 172.891 123.322 184.17C121.171 192.711 130.221 225.303 132.767 236.603C135.893 250.501 140.21 268.069 140.21 268.069C139.563 271.182 135.283 273.705 135.58 277.861L206.93 277.131L203.261 263.629L179.495 182.683Z" fill="#FFC727"/>
<path d="M204.249 268.806C204.249 268.91 190.047 268.986 172.534 268.986C155.02 268.986 140.826 268.91 140.826 268.806C140.826 268.701 155.02 268.625 172.534 268.625C190.047 268.625 204.249 268.708 204.249 268.806Z" fill="white"/>
<path d="M199.315 252.072C199.315 252.176 185.247 252.259 167.897 252.259C150.548 252.259 136.473 252.176 136.473 252.072C136.473 251.968 150.54 251.891 167.897 251.891C185.255 251.891 199.315 251.995 199.315 252.072Z" fill="white"/>
<path d="M194.477 233.927C194.477 234.025 180.707 234.108 163.722 234.108C146.737 234.108 132.967 234.004 132.967 233.927C132.967 233.851 146.729 233.747 163.714 233.747C180.699 233.747 194.477 233.823 194.477 233.927Z" fill="white"/>
<path d="M191.09 215.644C191.09 215.741 176.904 215.824 159.413 215.824C141.921 215.824 127.742 215.741 127.742 215.644C127.742 215.546 141.921 215.463 159.413 215.463C176.904 215.463 191.09 215.539 191.09 215.644Z" fill="white"/>
<path d="M183.579 192.961C183.579 193.058 170.182 193.142 153.606 193.142C137.03 193.142 123.633 193.058 123.633 192.961C123.633 192.864 137.03 192.773 153.606 192.773C170.182 192.773 183.579 192.857 183.579 192.961Z" fill="white"/>
<path d="M173.375 172.155C173.375 172.252 163.468 172.335 151.239 172.335C139.01 172.335 129.104 172.252 129.104 172.155C129.104 172.058 139.01 171.974 151.239 171.974C163.468 171.974 173.375 172.085 173.375 172.155Z" fill="white"/>
<path opacity="0.3" d="M132.453 194.747C135.577 199.644 139.52 204.043 144.131 207.777C151.299 213.336 173.107 223.302 173.107 223.302L174.931 219.785L191.201 223.336L188.224 213.983L132.453 194.747Z" fill="black"/>
<path d="M208.999 170.07L203.32 198.868L154.672 177.277L146.834 202.892C165.955 211.62 204.659 226.151 209.639 225.734C216.725 225.137 221.622 221.182 223.825 211.495C225.195 205.498 224.57 165.282 224.57 165.282L208.999 170.07Z" fill="#C17560"/>
<path d="M157.848 173.406C157.848 173.406 139.657 162.912 131.722 176.137C126.051 189.035 132.325 199.334 146.333 205.727C153.084 208.813 162.284 212.621 171.573 216.241L185.112 188.187L157.848 173.406Z" fill="#FFC727"/>
<path d="M157.849 173.406C157.849 173.406 158.028 173.483 158.356 173.656L159.799 174.414L165.292 177.346L185.195 188.062L185.314 188.132L185.255 188.25L171.753 216.311L171.679 216.471L171.507 216.401C166.744 214.553 161.831 212.579 156.83 210.495C154.622 209.568 152.441 208.641 150.287 207.715C148.144 206.777 146.03 205.839 143.998 204.803C143.005 204.27 142.025 203.712 141.058 203.128C140.135 202.503 139.182 201.933 138.341 201.238C136.622 199.949 135.075 198.472 133.734 196.839L132.811 195.602C132.512 195.192 132.241 194.765 132 194.323C131.492 193.469 131.049 192.582 130.675 191.669C130.503 191.217 130.377 190.745 130.228 190.279L130.012 189.584C129.953 189.348 129.923 189.118 129.871 188.889C129.789 188.43 129.7 187.965 129.618 187.499C129.536 187.034 129.558 186.582 129.528 186.109C129.475 185.208 129.492 184.305 129.581 183.406C129.655 182.524 129.856 181.662 129.99 180.814C130.124 179.966 130.444 179.16 130.69 178.361C130.935 177.562 131.292 176.811 131.583 176.061C132.64 174.266 134.109 172.712 135.885 171.509C137.509 170.482 139.357 169.803 141.296 169.521C144.411 169.168 147.571 169.455 150.555 170.362C152.446 170.91 154.284 171.608 156.048 172.447C156.651 172.739 157.098 172.975 157.403 173.142C157.708 173.309 157.842 173.406 157.842 173.406L157.38 173.177C157.075 173.024 156.636 172.802 156.003 172.524C154.232 171.716 152.392 171.047 150.503 170.522C147.543 169.644 144.413 169.381 141.333 169.751C139.434 170.033 137.626 170.707 136.041 171.724C134.305 172.911 132.872 174.442 131.843 176.207C131.56 176.957 131.263 177.715 130.965 178.493C130.667 179.271 130.511 180.091 130.288 180.911C130.064 181.731 129.968 182.6 129.893 183.476C129.811 184.361 129.796 185.25 129.848 186.137C129.848 186.582 129.901 187.041 129.945 187.527C129.99 188.014 130.109 188.431 130.198 188.882C130.243 189.112 130.273 189.341 130.332 189.577L130.548 190.272C130.697 190.724 130.816 191.182 130.995 191.627C131.362 192.524 131.797 193.395 132.297 194.233C132.538 194.665 132.804 195.085 133.094 195.491L134.009 196.7C135.336 198.311 136.865 199.767 138.564 201.037C139.426 201.702 140.322 202.325 141.251 202.906C142.194 203.485 143.167 204.036 144.169 204.56C146.179 205.581 148.292 206.526 150.436 207.458C152.58 208.389 154.768 209.327 156.979 210.237C161.965 212.322 166.878 214.296 171.634 216.151L171.388 216.242C176.442 205.818 181.064 196.214 184.957 188.208L185.024 188.389L165.188 177.562L159.762 174.483L158.348 173.691C158.013 173.545 157.849 173.406 157.849 173.406Z" fill="#263238"/>
<path d="M208.268 175.004L209.362 164.275C209.362 164.275 204.971 156.019 205.06 155.192C205.149 154.365 205.402 149.813 205.402 149.813L216.381 140.584C216.381 140.584 219.939 140.584 220.028 143.871C220.028 143.871 223.444 143.177 223.496 147.026C223.496 147.026 227.218 147.152 227.292 149.952C227.292 149.952 229.525 149.674 229.451 152.6C229.391 154.685 228.409 162.753 228.409 162.753L223.817 170.209L223.437 177.666L208.268 175.004Z" fill="#C17560"/>
<path d="M209.406 209.389C209.28 209.431 208.469 206.825 206.809 203.906C205.149 200.988 203.221 198.945 203.318 198.868C203.81 199.245 204.247 199.68 204.62 200.161C205.58 201.276 206.428 202.472 207.151 203.733C207.868 204.995 208.465 206.314 208.938 207.673C209.165 208.226 209.322 208.802 209.406 209.389Z" fill="#7C4236"/>
<path d="M146.834 169.841C146.704 170.18 146.542 170.508 146.35 170.821C146.015 171.439 145.516 172.322 144.861 173.406C143.604 175.581 141.81 178.555 139.808 181.821L134.65 190.161L133.087 192.69C132.905 193.008 132.699 193.312 132.469 193.6C132.598 193.261 132.76 192.933 132.953 192.621C133.287 192.009 133.786 191.12 134.441 190.035C135.699 187.86 137.485 184.886 139.495 181.62C141.505 178.354 143.298 175.456 144.646 173.281C145.286 172.259 145.814 171.404 146.216 170.751C146.394 170.432 146.6 170.127 146.834 169.841Z" fill="white"/>
<path d="M161.668 175.908C161.642 176.016 161.602 176.121 161.548 176.22L161.139 177.089C160.774 177.847 160.239 178.924 159.546 180.251C158.177 182.906 156.219 186.54 153.927 190.494C151.634 194.448 149.461 197.972 147.823 200.494C147.005 201.752 146.335 202.767 145.858 203.462L145.308 204.261C145.245 204.355 145.172 204.443 145.092 204.525C145.092 204.525 145.129 204.414 145.241 204.219L145.732 203.392L147.585 200.362C149.156 197.812 151.307 194.268 153.584 190.321C155.862 186.373 157.872 182.76 159.301 180.133L161.005 177.033L161.474 176.193C161.524 176.09 161.59 175.994 161.668 175.908Z" fill="white"/>
<path d="M178.266 184.581C178.143 184.975 177.992 185.36 177.812 185.734C177.506 186.429 177.03 187.513 176.42 188.799C175.192 191.363 173.376 194.866 171.135 198.618C168.895 202.371 166.669 205.651 164.965 207.979C164.116 209.139 163.409 210.064 162.903 210.696C162.661 211.036 162.39 211.357 162.092 211.655C162.292 211.293 162.524 210.947 162.784 210.62L164.734 207.84C166.372 205.484 168.56 202.19 170.8 198.451C173.041 194.713 174.879 191.231 176.167 188.722L177.655 185.706C177.822 185.315 178.026 184.938 178.266 184.581Z" fill="white"/>
<path d="M135.016 290.724L136.564 277.861L204.631 277.159L206.365 290.724H135.016Z" fill="#263238"/>
<path d="M219.306 289.598C219.306 289.695 198.339 289.779 172.475 289.779C146.61 289.779 125.643 289.695 125.643 289.598C125.643 289.501 146.61 289.417 172.475 289.417C198.339 289.417 219.306 289.487 219.306 289.598Z" fill="#FFC727"/>
<path d="M181.369 65.1426H156.056C155.217 65.1426 154.537 65.7773 154.537 66.5602V67.5818C154.537 68.3647 155.217 68.9994 156.056 68.9994H181.369C182.208 68.9994 182.888 68.3647 182.888 67.5818V66.5602C182.888 65.7773 182.208 65.1426 181.369 65.1426Z" fill="#FFC727"/>
<path d="M189.765 67.0745C189.765 67.4566 189.644 67.8301 189.417 68.1478C189.189 68.4655 188.866 68.7131 188.488 68.8593C188.11 69.0056 187.694 69.0438 187.292 68.9693C186.891 68.8947 186.522 68.7107 186.233 68.4405C185.944 68.1704 185.747 67.8261 185.667 67.4514C185.587 67.0766 185.628 66.6882 185.784 66.3352C185.941 65.9822 186.206 65.6804 186.547 65.4682C186.887 65.2559 187.287 65.1426 187.696 65.1426C187.968 65.1426 188.237 65.1926 188.488 65.2896C188.739 65.3867 188.967 65.529 189.159 65.7084C189.351 65.8878 189.504 66.1008 189.608 66.3352C189.712 66.5696 189.765 66.8208 189.765 67.0745Z" fill="#FFC727"/>
<path d="M103.999 95.0801H105.674V127.325H103.999C102.776 127.325 101.602 126.871 100.736 126.063C99.871 125.255 99.3848 124.159 99.3848 123.016V99.3886C99.3848 98.8228 99.5041 98.2626 99.736 97.7398C99.9679 97.2171 100.308 96.7421 100.736 96.342C101.165 95.9419 101.674 95.6246 102.234 95.4081C102.793 95.1915 103.393 95.0801 103.999 95.0801Z" fill="#263238"/>
<path d="M103.582 141.933H105.256V174.177H103.582C102.358 174.177 101.184 173.723 100.318 172.915C99.453 172.107 98.9668 171.012 98.9668 169.869V146.241C98.9668 145.098 99.453 144.003 100.318 143.195C101.184 142.387 102.358 141.933 103.582 141.933Z" fill="#263238"/>
<path d="M103.699 189.723C103.588 189.723 103.506 166.317 103.506 137.45C103.506 108.583 103.588 85.1704 103.699 85.1704C103.811 85.1704 103.893 108.576 103.893 137.45C103.893 166.324 103.804 189.723 103.699 189.723Z" fill="#FFC727"/>
</svg>
