<svg width="376" height="371" viewBox="0 0 376 371" fill="none" xmlns="http://www.w3.org/2000/svg">
<path opacity="0.16" d="M190.957 371C259.285 371 314.677 364.229 314.677 355.877C314.677 347.525 259.285 340.754 190.957 340.754C122.628 340.754 67.2363 347.525 67.2363 355.877C67.2363 364.229 122.628 371 190.957 371Z" fill="black"/>
<path opacity="0.07" d="M315.064 40.0839C306.611 32.5013 297.44 25.7632 287.681 19.9654L207.169 141.21L316.572 41.4742C316.08 41.0054 315.58 40.5608 315.064 40.0839ZM243.013 2.41733C230.459 -0.202588 217.555 -0.697098 204.838 0.954318L207.169 141.202L243.013 2.41733ZM158.629 19.1086C150.939 24.5204 143.902 30.8079 137.658 37.8449C135.475 40.2968 133.23 42.754 130.923 45.2166L207.177 141.218L158.629 19.1086ZM92.5789 80.7169C87.3503 84.7771 81.9205 88.5701 76.3103 92.0816C64.2359 99.5664 51.2097 105.119 38.9901 114.665L207.169 141.218L92.5789 80.7169ZM0.306874 192.367C-1.16916 214.247 2.96857 237.93 10.9778 259.35L207.169 141.218L0.306874 192.367ZM207.169 141.218L67.1073 326.988C87.4813 335.88 111.977 337.496 137.36 335.54L207.169 141.218ZM207.169 141.218L213.831 323.311C228.228 321.767 245.812 322.244 264.024 321.46L207.169 141.218ZM364.402 267.393L207.169 141.218L329.59 306.603C343.843 298.609 356.094 286.331 364.402 267.393ZM371.056 158.572L207.169 141.218L375.847 202.43C375.175 187.724 373.574 173.075 371.056 158.572ZM344.512 78.001L207.169 141.218L358.926 110.761C355.046 99.4554 350.225 88.4967 344.512 78.001Z" fill="black"/>
<path d="M349.319 255.794C349.319 255.794 340.616 252.844 338.027 251.041C335.437 249.239 328.816 242.578 327.275 237.446C325.946 232.708 325.063 227.856 324.637 222.953C324.25 218.976 322.589 217.95 320.153 221.029C317.717 224.109 316.927 229.112 317.596 232.345C318.266 235.578 320.282 239.272 320.016 239.919C319.75 240.566 319.371 241.843 319.371 241.843C319.371 241.843 311.563 240.946 307.215 239.919C302.868 238.892 299.408 238.504 299.15 240.558C298.892 242.611 299.787 245.82 300.045 248.002C300.303 250.184 303.626 259.803 305.296 261.977C306.479 263.669 307.851 265.221 309.385 266.601C310.41 267.369 310.41 268.007 312.845 268.266C314.909 268.451 316.961 268.751 318.991 269.163C319.887 269.422 320.782 270.319 325.008 270.19C327.665 270.098 330.313 269.842 332.937 269.422L345.608 274.158L349.319 255.794Z" fill="white" stroke="#263238" stroke-width="0.75" stroke-miterlimit="10"/>
<path d="M345.22 253.353L339.969 276.187L348.551 279.647L352.898 255.923L345.22 253.353Z" fill="white" stroke="#263238" stroke-width="0.75" stroke-miterlimit="10"/>
<path d="M366.836 257.717L350.084 253.611L343.938 280.802L366.739 291.464L366.836 289.403V257.717Z" fill="#263238" stroke="#263238" stroke-width="0.75" stroke-miterlimit="10"/>
<path d="M318.855 242.966C318.855 242.966 317.701 249.91 317.701 251.526C317.701 253.143 321.282 257.685 322.541 257.936" stroke="#263238" stroke-width="0.75" stroke-miterlimit="10"/>
<path d="M316.29 260.417C316.29 260.417 318.088 261.056 317.572 262.6C317.056 264.144 313.217 266.318 311.426 267.345C309.636 268.371 309.006 268.242 306.95 267.086C305.741 266.416 304.826 265.318 304.385 264.006C305.675 263.974 306.961 263.847 308.232 263.626L316.29 260.417Z" fill="white" stroke="#263238" stroke-width="0.75" stroke-miterlimit="10"/>
<path d="M301.567 257.071C301.567 257.071 301.567 262.971 302.979 263.489C304.327 264.01 305.761 264.27 307.205 264.256C308.1 264.127 314.118 262.074 315.271 261.306C316.424 260.538 317.578 258.881 316.941 257.329L316.295 255.794C314.35 256.127 312.381 256.298 310.407 256.303C307.181 256.303 301.833 255.276 301.446 255.664C301.059 256.052 301.567 257.071 301.567 257.071Z" fill="white" stroke="#263238" stroke-width="0.75" stroke-miterlimit="10"/>
<path d="M299.633 249.101C299.377 249.264 299.171 249.494 299.036 249.766C298.901 250.038 298.842 250.342 298.866 250.645C298.866 251.801 297.334 255.26 299.125 256.416C300.915 257.572 306.545 258.469 307.698 258.469C308.852 258.469 315.635 256.044 316.272 255.778C316.91 255.511 316.918 253.207 316.659 252.31C316.401 251.413 314.103 251.154 314.103 251.154C314.103 251.154 304.262 250.92 299.633 249.101Z" fill="white" stroke="#263238" stroke-width="0.75" stroke-miterlimit="10"/>
<path d="M302.98 241.293C302.98 241.293 307.077 244.373 307.819 244.631L314.095 246.814C314.095 246.814 314.901 247.194 314.901 248.738C314.887 249.402 314.635 250.04 314.191 250.534C313.746 251.028 313.14 251.346 312.481 251.429C311.207 251.688 306.593 252.456 304.932 251.817C302.667 250.695 300.486 249.409 298.407 247.97C297.253 247.161 297.124 246.167 297.761 244.736C298.315 243.354 298.787 241.94 299.173 240.501" fill="white"/>
<path d="M302.98 241.293C302.98 241.293 307.077 244.373 307.819 244.631L314.095 246.814C314.095 246.814 314.901 247.194 314.901 248.738C314.887 249.402 314.635 250.04 314.191 250.534C313.746 251.028 313.14 251.346 312.481 251.429C311.207 251.688 306.593 252.456 304.932 251.817C302.667 250.695 300.486 249.409 298.407 247.97C297.253 247.161 297.124 246.167 297.761 244.736C298.315 243.354 298.787 241.94 299.173 240.501" stroke="#263238" stroke-width="0.75" stroke-miterlimit="10"/>
<path d="M323.83 57.4381C323.83 57.4381 315.03 60.1135 311.909 60.1459C308.788 60.1782 299.496 58.6343 295.269 55.3527C291.424 52.2888 287.875 48.868 284.671 45.1358C282.05 42.1209 280.098 42.2583 279.904 46.1785C279.711 50.0987 281.993 54.6171 284.381 56.8561C286.768 59.0951 290.583 60.8976 290.753 61.5927C290.922 62.2878 291.349 63.5326 291.349 63.5326C291.349 63.5326 284.477 67.3559 280.34 69.0533C276.202 70.7507 273.169 72.4643 274.153 74.2829C275.137 76.1016 277.726 78.187 279.202 79.8117C280.679 81.4364 288.97 87.3127 291.591 88.121C293.537 88.8017 295.552 89.26 297.6 89.487C298.883 89.487 299.214 90.0366 301.383 88.8323C303.165 87.7746 305.007 86.8219 306.9 85.979C307.779 85.6637 309.03 85.8739 312.385 83.3035C314.495 81.6787 316.501 79.924 318.394 78.0496L331.46 74.5174L323.83 57.4381Z" fill="white" stroke="#263238" stroke-width="0.75" stroke-miterlimit="10"/>
<path d="M319.072 57.8423L328.066 79.4722L337.051 77.2899L326.807 55.4497L319.072 57.8423Z" fill="white" stroke="#263238" stroke-width="0.75" stroke-miterlimit="10"/>
<path d="M339.188 48.7896L323.178 55.2155L333.97 80.9112L358.699 76.2878L357.586 74.558L339.188 48.7896Z" fill="#263238" stroke="#263238" stroke-width="0.75" stroke-miterlimit="10"/>
<path d="M291.566 64.8096C291.566 64.8096 294.656 71.1143 295.599 72.4722C296.543 73.8301 302.052 75.3902 303.278 74.8486" stroke="#263238" stroke-width="0.75" stroke-miterlimit="10"/>
<path d="M299.633 80.4504C299.633 80.4504 301.464 79.925 301.94 81.4769C302.416 83.0288 300.561 87.038 299.698 88.9213C298.835 90.8046 298.246 91.0714 295.907 91.3462C294.535 91.5091 293.153 91.1484 292.035 90.3358C293.066 89.559 294.037 88.7052 294.939 87.7816L299.633 80.4504Z" fill="white" stroke="#263238" stroke-width="0.75" stroke-miterlimit="10"/>
<path d="M285.736 86.3187C285.736 86.3187 289.156 91.12 290.576 90.7158C291.975 90.3528 293.293 89.7304 294.464 88.881C295.117 88.2505 298.819 83.0774 299.303 81.7761C299.787 80.4747 299.763 78.454 298.351 77.5729L296.94 76.6919C295.551 78.0995 294.049 79.3891 292.447 80.5475C289.842 82.4065 284.873 84.7102 284.785 85.2437C284.696 85.7771 285.736 86.3187 285.736 86.3187Z" fill="white" stroke="#263238" stroke-width="0.75" stroke-miterlimit="10"/>
<path d="M279.55 80.9756C279.438 81.2583 279.405 81.566 279.453 81.8661C279.501 82.1663 279.63 82.4479 279.824 82.6811C280.494 83.6187 281.252 87.3288 283.381 87.2237C285.511 87.1186 290.64 84.5644 291.552 83.8935C292.463 83.2227 296.585 77.2817 296.964 76.6997C297.343 76.1177 295.988 74.2748 295.262 73.6605C294.536 73.0462 292.512 74.2182 292.512 74.2182C292.512 74.2182 284.309 79.747 279.55 80.9756Z" fill="white" stroke="#263238" stroke-width="0.75" stroke-miterlimit="10"/>
<path d="M277.719 72.6662C277.719 72.6662 282.833 72.7794 283.607 72.545C284.381 72.3106 289.979 70.6617 289.979 70.6617C289.979 70.6617 290.826 70.5243 291.721 71.7771C292.099 72.327 292.264 72.9956 292.187 73.6586C292.11 74.3216 291.795 74.934 291.302 75.3821C290.414 76.344 287.115 79.6499 285.389 80.1026C282.892 80.5102 280.369 80.7371 277.84 80.7815C276.461 80.7815 275.759 80.0621 275.42 78.5426C275.066 77.098 274.627 75.6757 274.105 74.2828" fill="white"/>
<path d="M277.719 72.6662C277.719 72.6662 282.833 72.7794 283.607 72.545C284.381 72.3106 289.979 70.6617 289.979 70.6617C289.979 70.6617 290.826 70.5243 291.721 71.7771C292.099 72.327 292.264 72.9956 292.187 73.6586C292.11 74.3216 291.795 74.934 291.302 75.3821C290.414 76.344 287.115 79.6499 285.389 80.1026C282.892 80.5102 280.369 80.7371 277.84 80.7815C276.461 80.7815 275.759 80.0621 275.42 78.5426C275.066 77.098 274.627 75.6757 274.105 74.2828" stroke="#263238" stroke-width="0.75" stroke-miterlimit="10"/>
<path d="M42.209 252.892C42.209 252.892 50.9119 249.941 53.501 248.147C56.0901 246.353 62.6879 239.676 64.2204 234.552C65.5727 229.817 66.4747 224.964 66.9143 220.059C67.2934 216.082 68.963 215.055 71.3908 218.135C73.8186 221.215 74.6171 226.218 73.9476 229.451C73.2782 232.684 71.2618 236.378 71.5279 237.017C71.7941 237.655 72.1651 238.941 72.1651 238.941C72.1651 238.941 79.9727 238.043 84.3282 237.017C88.6837 235.99 92.1359 235.602 92.394 237.655C92.6521 239.708 91.7487 242.917 91.4987 245.1C91.2486 247.282 87.9094 256.901 86.2479 259.083C85.0629 260.774 83.6881 262.322 82.1505 263.699C81.1261 264.507 81.1261 265.113 78.6984 265.364C76.6352 265.553 74.5835 265.852 72.5523 266.261C71.657 266.52 70.7617 267.417 66.5352 267.288C63.8764 267.196 61.2257 266.94 58.5986 266.52L45.9273 271.264L42.209 252.892Z" fill="white" stroke="#263238" stroke-width="0.75" stroke-miterlimit="10"/>
<path d="M46.3058 250.451L51.5485 273.285L42.9746 276.753L38.6191 253.021L46.3058 250.451Z" fill="white" stroke="#263238" stroke-width="0.75" stroke-miterlimit="10"/>
<path d="M24.6816 254.816L41.4342 250.709L47.5803 277.901L24.7865 288.562L24.6816 286.501V254.816Z" fill="#263238" stroke="#263238" stroke-width="0.75" stroke-miterlimit="10"/>
<path d="M72.6724 240.064C72.6724 240.064 73.8258 246.992 73.8258 248.657C73.8258 250.322 70.2365 254.816 68.9863 255.075" stroke="#263238" stroke-width="0.75" stroke-miterlimit="10"/>
<path d="M75.2307 257.507C75.2307 257.507 73.4401 258.154 73.9482 259.69C74.4564 261.225 78.3037 263.408 80.0943 264.434C81.8849 265.461 82.514 265.332 84.5788 264.176C85.7868 263.511 86.7 262.414 87.1357 261.104C85.8479 261.073 84.5645 260.943 83.2964 260.716L75.2307 257.507Z" fill="white" stroke="#263238" stroke-width="0.75" stroke-miterlimit="10"/>
<path d="M89.9237 254.177C89.9237 254.177 89.9237 260.078 88.5203 260.587C87.1762 261.125 85.7413 261.4 84.2938 261.395C83.3985 261.266 77.3815 259.221 76.2281 258.445C75.0747 257.669 73.9213 256.02 74.5666 254.468L75.2038 252.932C77.1488 253.266 79.1184 253.436 81.0917 253.441C84.318 253.441 89.6656 252.415 90.0528 252.803C90.4399 253.191 89.9237 254.177 89.9237 254.177Z" fill="white" stroke="#263238" stroke-width="0.75" stroke-miterlimit="10"/>
<path d="M91.8699 246.224C92.1361 246.376 92.3534 246.602 92.4962 246.874C92.6391 247.146 92.7016 247.453 92.6765 247.759C92.6765 248.915 94.217 252.375 92.4264 253.531C90.6358 254.686 84.9575 255.568 83.8041 255.568C82.6507 255.568 75.8675 253.143 75.2303 252.876C74.5931 252.609 74.5931 250.306 74.8512 249.408C75.1093 248.511 77.408 248.261 77.408 248.261C77.408 248.261 87.2643 248.018 91.8699 246.224Z" fill="white" stroke="#263238" stroke-width="0.75" stroke-miterlimit="10"/>
<path d="M88.5462 238.399C88.5462 238.399 84.4488 241.471 83.7067 241.729C82.9647 241.988 77.4316 243.912 77.4316 243.912C77.4316 243.912 76.625 244.3 76.625 245.835C76.6375 246.501 76.889 247.139 77.3336 247.634C77.7781 248.128 78.3856 248.445 79.0447 248.527C80.3272 248.786 84.9327 249.554 86.6023 248.915C88.8767 247.792 91.0657 246.504 93.1517 245.059C94.3051 244.292 94.4341 243.265 93.7889 241.826C93.2389 240.443 92.7703 239.029 92.3854 237.591" fill="white"/>
<path d="M88.5462 238.399C88.5462 238.399 84.4488 241.471 83.7067 241.729C82.9647 241.988 77.4316 243.912 77.4316 243.912C77.4316 243.912 76.625 244.3 76.625 245.835C76.6375 246.501 76.889 247.139 77.3336 247.634C77.7781 248.128 78.3856 248.445 79.0447 248.527C80.3272 248.786 84.9327 249.554 86.6023 248.915C88.8767 247.792 91.0657 246.504 93.1517 245.059C94.3051 244.292 94.4341 243.265 93.7889 241.826C93.2389 240.443 92.7703 239.029 92.3854 237.591" stroke="#263238" stroke-width="0.75" stroke-miterlimit="10"/>
<path d="M51.6692 65.1168C51.6692 65.1168 60.4609 67.7922 63.5904 67.8246C66.7199 67.8569 75.9955 66.3131 80.23 63.0314C84.0757 59.9675 87.6242 56.5467 90.8284 52.8145C93.4497 49.7996 95.4016 49.937 95.5872 53.8572C95.7727 57.7775 93.4981 62.2958 91.1187 64.5348C88.7394 66.7738 84.9081 68.5763 84.7468 69.2714C84.5855 69.9665 84.1499 71.2113 84.1499 71.2113C84.1499 71.2113 91.022 75.0265 95.1597 76.732C99.2974 78.4375 102.33 80.1349 101.346 81.9536C100.362 83.7722 97.773 85.8576 96.2969 87.4823C94.8209 89.107 86.5293 94.9914 83.908 95.7997C81.9627 96.4804 79.947 96.9387 77.899 97.1657C76.6166 97.1657 76.2859 97.7153 74.1162 96.5029C72.3296 95.4534 70.4879 94.5009 68.5992 93.6496C67.72 93.3424 66.4699 93.5445 63.1065 90.9822C61.0003 89.3562 58.9962 87.6015 57.1055 85.7283L44.0391 82.1961L51.6692 65.1168Z" fill="white" stroke="#263238" stroke-width="0.75" stroke-miterlimit="10"/>
<path d="M56.4219 65.521L47.4286 87.151L38.4434 84.9686L48.6868 63.1284L56.4219 65.521Z" fill="white" stroke="#263238" stroke-width="0.75" stroke-miterlimit="10"/>
<path d="M36.304 56.4683L52.3145 62.8942L41.5225 88.5899L16.793 83.9665L17.906 82.2286L36.304 56.4683Z" fill="#263238" stroke="#263238" stroke-width="0.75" stroke-miterlimit="10"/>
<path d="M83.8989 72.4482C83.8989 72.4482 80.8098 78.7529 79.8661 80.1028C78.9224 81.4527 73.4135 83.0207 72.1875 82.5277" stroke="#263238" stroke-width="0.75" stroke-miterlimit="10"/>
<path d="M75.8504 88.1291C75.8504 88.1291 74.0195 87.6037 73.5436 89.1556C73.0678 90.7076 74.9229 94.7167 75.7859 96.592C76.649 98.4672 77.2378 98.742 79.5768 99.0168C80.9479 99.175 82.3284 98.8147 83.4484 98.0065C82.4176 97.2297 81.4469 96.3758 80.5447 95.4523L75.8504 88.1291Z" fill="white" stroke="#263238" stroke-width="0.75" stroke-miterlimit="10"/>
<path d="M89.7545 93.9974C89.7545 93.9974 86.3266 98.7987 84.9151 98.3945C83.5137 98.0344 82.1941 97.4088 81.0274 96.5516C80.3741 95.9292 76.6719 90.7481 76.1879 89.4548C75.704 88.1615 75.7363 86.1246 77.1478 85.2517L78.5593 84.3706C79.9445 85.7792 81.4475 87.0664 83.0519 88.2181C85.6571 90.0853 90.6256 92.3889 90.7143 92.9224C90.8031 93.4558 89.7545 93.9974 89.7545 93.9974Z" fill="white" stroke="#263238" stroke-width="0.75" stroke-miterlimit="10"/>
<path d="M95.9344 88.6464C96.0489 88.9281 96.0847 89.2357 96.0378 89.5362C95.9909 89.8367 95.8631 90.1187 95.6682 90.3519C94.9988 91.2895 94.2325 94.9996 92.1113 94.8945C89.99 94.7895 84.8521 92.2353 83.9407 91.5644C83.0292 90.8935 78.8996 84.9525 78.5286 84.3705C78.1575 83.7886 79.4965 81.9457 80.2304 81.3313C80.9644 80.717 82.9808 81.881 82.9808 81.881C82.9808 81.881 91.1434 87.4421 95.9344 88.6464Z" fill="white" stroke="#263238" stroke-width="0.75" stroke-miterlimit="10"/>
<path d="M97.7723 80.3451C97.7723 80.3451 92.6505 80.4582 91.8762 80.2238C91.1019 79.9894 85.5124 78.3324 85.5124 78.3324C85.5124 78.3324 84.7058 78.2031 83.7702 79.4559C83.3933 80.0055 83.2274 80.673 83.303 81.3355C83.3786 81.998 83.6906 82.6108 84.1815 83.0609C85.0768 84.0147 88.3757 87.3287 90.1018 87.7814C92.5984 88.1905 95.1217 88.4148 97.6513 88.4523C99.0305 88.5008 99.7322 87.741 100.031 86.2214C100.386 84.7743 100.825 83.3493 101.345 81.9536" fill="white"/>
<path d="M97.7723 80.3451C97.7723 80.3451 92.6505 80.4582 91.8762 80.2238C91.1019 79.9894 85.5124 78.3324 85.5124 78.3324C85.5124 78.3324 84.7058 78.2031 83.7702 79.4559C83.3933 80.0055 83.2274 80.673 83.303 81.3355C83.3786 81.998 83.6906 82.6108 84.1815 83.0609C85.0768 84.0147 88.3757 87.3287 90.1018 87.7814C92.5984 88.1905 95.1217 88.4148 97.6513 88.4523C99.0305 88.5008 99.7322 87.741 100.031 86.2214C100.386 84.7743 100.825 83.3493 101.345 81.9536" stroke="#263238" stroke-width="0.75" stroke-miterlimit="10"/>
<path d="M169.775 182.295C169.775 182.295 164.129 207.078 163.903 218.733C163.677 230.389 164.323 272.396 164.54 281.409C164.758 290.421 168.71 319.673 168.71 322.308C168.71 324.943 169.372 330.003 169.372 330.003L167.613 339.46C165.893 340.793 164.057 341.97 162.129 342.976C158.177 345.175 153.571 348.036 152.256 349.572C152.096 349.757 151.983 349.978 151.925 350.216C151.868 350.454 151.869 350.702 151.927 350.94C151.986 351.177 152.1 351.397 152.261 351.581C152.423 351.766 152.626 351.908 152.853 351.997C154.417 352.611 156.065 352.984 157.741 353.104C161.467 353.323 167.613 353.323 170.904 352.442C174.195 351.561 176.833 348.707 178.365 347.592L179.906 346.493L180.123 348.917C180.862 348.809 181.594 348.66 182.317 348.473C183.928 348.008 185.474 347.346 186.923 346.501C186.923 346.501 187.141 342.758 187.141 340.56C187.141 338.361 186.044 334.4 185.826 333.527C185.608 332.654 185.826 324.725 185.173 322.09C184.519 319.455 184.076 320.11 183.632 315.276C183.188 310.443 187.141 264.693 186.923 263.375C186.705 262.058 192.504 222.427 192.504 222.427C192.504 222.427 203.595 274.158 207.103 284.06C210.612 293.961 212.37 313.086 212.37 314.411C212.37 315.737 214.346 331.337 215.225 333.544C216.105 335.75 218.516 342.556 218.516 342.556C218.516 342.556 222.025 347.834 223.557 350.469C225.09 353.104 230.365 355.319 234.309 355.966C238.253 356.612 241.334 356.847 241.568 351.569C241.802 346.29 239.818 342.774 236.519 340.358C233.22 337.941 232.575 335.742 232.575 335.742C232.814 332.513 232.814 329.271 232.575 326.043C232.131 322.3 229.72 319.439 229.502 311.744C229.284 304.049 227.743 263.586 226.429 257.208C225.114 250.831 223.38 208.169 223.598 202.244C223.815 196.319 223.041 179.765 223.041 179.765L169.614 179.159L169.775 182.295Z" fill="#263238" stroke="#263238" stroke-width="0.75" stroke-miterlimit="10"/>
<path d="M190.745 93.6979C190.745 93.6979 182.591 98.5477 176.816 101.409C171.041 104.27 163.991 105.936 163.274 107.56C162.556 109.185 150.094 135.794 147.747 139.407C145.4 143.02 139.802 150.085 140.883 154.061C141.964 158.038 146.481 163.47 149.368 163.114C152.256 162.759 158.039 161.118 160.386 156.963C162.733 152.809 168.331 139.407 168.331 139.407C168.331 139.407 169.234 151.895 169.049 158.046C168.863 164.197 168.871 169.265 168.508 172.337C168.145 175.409 166.524 179.216 167.242 180.299C167.96 181.382 168.855 182.473 169.775 182.295C170.694 182.117 184.22 181.931 188.326 182.109C192.431 182.287 211.257 182.109 215.233 182.295C219.209 182.481 222.637 180.485 222.992 179.757C223.347 179.03 224.081 177.947 223.718 173.97C223.355 169.993 224.081 157.868 225.162 153.164C226.243 148.46 232.744 130.362 232.744 130.362C232.744 130.362 249.9 143.933 253.513 145.017C257.126 146.1 266.87 144.475 270.12 140.498C273.371 136.521 274.452 133.434 272.467 130.726C270.483 128.018 263.256 125.48 255.675 117.332C248.093 109.185 245.189 105.394 239.971 102.856C234.752 100.318 224.081 96.8907 221.548 95.7995C219.016 94.7083 218.322 94.1829 216.709 93.4473C215.096 92.7118 211.289 91.2811 204.247 91.0952C199.623 91.0959 195.04 91.9792 190.745 93.6979Z" fill="#FFC727" stroke="#263238" stroke-width="0.75" stroke-miterlimit="10"/>
<path d="M164.685 126.587C164.935 127.46 168.323 139.407 168.323 139.407L163.322 129.473" stroke="#263238" stroke-width="0.75" stroke-miterlimit="10"/>
<path d="M232.776 130.362C232.026 130.362 224.928 126.321 224.928 126.321" stroke="#263238" stroke-width="0.75" stroke-miterlimit="10"/>
<path d="M221.314 125.844C221.314 125.844 224.178 129.586 226.67 130.33" stroke="#263238" stroke-width="0.75" stroke-miterlimit="10"/>
<path d="M189.731 104.796L191.998 113.372C191.998 113.372 184.819 149.333 183.69 155.403C183.002 159.071 182.539 162.777 182.303 166.501L188.594 178.989L196.531 165.491C196.531 165.491 195.773 148.46 195.522 134.84C195.272 121.221 195.773 114.633 195.643 114.277C195.514 113.922 203.58 107.964 203.58 107.964C203.58 107.964 208.234 102.791 208.484 101.91C208.734 101.029 205.217 102.161 204.451 102.921C203.593 103.648 202.578 104.164 201.485 104.426C200.392 104.689 199.254 104.691 198.16 104.432C194.885 103.802 190.602 100.148 189.973 101.91C189.597 102.824 189.512 103.832 189.731 104.796Z" fill="#263238" stroke="#263238" stroke-width="0.75" stroke-miterlimit="10"/>
<path d="M195.142 90.1658C194.763 90.4164 191.746 91.1762 190.738 93.698C189.73 96.2199 184.568 107.827 183.059 109.718C181.551 111.61 183.938 110.85 185.955 109.589C187.971 108.328 189.73 103.414 190.859 105.548C191.988 107.682 195.271 108.571 195.271 108.571C195.271 108.571 202.062 107.31 203.578 106.299C204.612 105.577 205.581 104.765 206.474 103.874C206.474 103.874 212.265 112.58 213.895 113.332C215.524 114.083 215.79 112.83 215.911 111.44C216.508 106.372 217.475 101.356 218.807 96.4301C220.42 91.0064 217.298 89.2362 215.282 86.973C213.265 84.7098 210.999 86.2132 208.741 86.4638C206.482 86.7144 195.142 90.1658 195.142 90.1658Z" fill="#FFC727" stroke="#263238" stroke-width="0.75" stroke-miterlimit="10"/>
<path d="M191.69 51.3191C191.69 51.3191 187.754 57.3086 188.464 58.7635C189.174 60.2184 189.19 62.126 188.464 63.1445C187.916 63.814 187.515 64.5924 187.288 65.4283C187.062 66.2642 187.014 67.1387 187.149 67.9942C187.44 70.4757 185.988 83.0285 188.174 84.4915C189.579 85.4079 191.094 86.1438 192.682 86.682C192.682 86.682 195.159 107.698 196.038 107.116C196.917 106.534 209.459 93.6576 210.911 90.8771C212.363 88.0965 214.137 84.1682 214.137 84.1682C214.137 84.1682 219.09 74.6788 222.001 70.7344C224.913 66.7899 228.268 59.4991 227.252 55.7001C226.236 51.9011 220.985 49.1286 218.509 47.0836C216.033 45.0386 217.638 40.3748 214.137 38.0388C210.637 35.7028 206.418 35.1209 203.652 36.1393C200.885 37.1578 200.74 39.3725 197.385 37.1578C194.029 34.943 190.835 32.7849 185.738 35.2664C180.64 37.7478 179.616 46.5017 182.673 48.8376C185.73 51.1736 191.69 51.3191 191.69 51.3191Z" fill="white" stroke="#263238" stroke-width="0.75" stroke-miterlimit="10"/>
<path d="M218.491 47.0836C216.015 45.0467 217.62 40.3748 214.12 38.0388C210.619 35.7028 206.401 35.1209 203.634 36.1393C200.868 37.1578 200.722 39.3725 197.367 37.1578C194.012 34.943 190.818 32.7849 185.72 35.2664C180.623 37.7478 179.598 46.5017 182.655 48.8376C185.712 51.1736 191.689 51.3191 191.689 51.3191C191.689 51.3191 196.06 49.2741 198.948 47.6737C201.835 46.0733 208.417 48.6921 209.579 49.7187C210.74 50.7452 208.998 50.0097 208.707 51.9011C208.417 53.7925 212.055 56.8721 213.66 58.3674C215.265 59.8628 213.369 60.8489 212.934 62.7484C212.498 64.6479 214.241 65.3754 215.265 64.6479C216.289 63.9204 219.483 59.7981 220.653 62.1664C221.822 64.5347 223.565 68.0023 220.362 70.4838C217.16 72.9653 214.821 72.3833 214.821 72.3833C214.821 72.3833 213.781 78.7042 216.805 79.1972C218.376 76.3015 220.096 73.4902 221.959 70.7748C224.879 66.8384 228.227 59.5395 227.21 55.7405C226.194 51.9415 220.967 49.1286 218.491 47.0836Z" fill="#263238" stroke="#263238" stroke-width="0.75" stroke-miterlimit="10"/>
<path d="M199.553 59.0544C200.482 58.7068 201.474 58.5581 202.464 58.6179" stroke="#263238" stroke-width="0.5" stroke-miterlimit="10"/>
<path d="M192.102 60.4932C191.383 60.6456 190.688 60.8958 190.037 61.2368" stroke="#263238" stroke-width="0.5" stroke-miterlimit="10"/>
<path d="M192.15 56.5083C192.668 57.502 192.819 58.6469 192.577 59.7415C192.101 61.3581 187.593 64.8903 187.649 65.5774C187.705 66.2644 190.295 67.7032 190.246 68.2852C190.198 68.8671 190.036 69.829 190.036 69.829" stroke="#263238" stroke-width="0.75" stroke-miterlimit="10"/>
<path d="M202.004 61.075C202.53 61.075 202.956 60.5503 202.956 59.903C202.956 59.2557 202.53 58.731 202.004 58.731C201.479 58.731 201.053 59.2557 201.053 59.903C201.053 60.5503 201.479 61.075 202.004 61.075Z" fill="#263238" stroke="#263238" stroke-width="0.5" stroke-miterlimit="10"/>
<path d="M200.152 61.8189C201.433 61.2815 202.798 60.9751 204.185 60.9136" stroke="#263238" stroke-width="0.75" stroke-miterlimit="10"/>
<path d="M196.787 54.7866C196.787 54.7866 199.909 51.8848 202.328 52.4668C204.748 53.0488 205.667 55.3847 205.28 55.3928C204.893 55.4009 203.667 53.5984 202.344 53.461C201.022 53.3236 200.078 53.9541 198.933 54.536C197.787 55.118 197.086 55.5221 196.787 54.7866Z" fill="#263238" stroke="#263238" stroke-width="0.5" stroke-miterlimit="10"/>
<path d="M192.358 57.0904C192.322 56.8932 192.245 56.7057 192.132 56.5402C192.019 56.3747 191.873 56.2348 191.703 56.1296C191.532 56.0244 191.342 55.9563 191.143 55.9297C190.945 55.903 190.743 55.9185 190.551 55.975C189.124 56.1932 188.043 58.7959 188.478 58.7636C188.914 58.7313 189.39 57.0904 190.503 56.9369C191.616 56.7833 192.358 58.5292 192.358 57.0904Z" fill="#263238" stroke="#263238" stroke-width="0.5" stroke-miterlimit="10"/>
<path d="M189.939 73.1271C189.939 73.1271 192.222 72.8604 195.19 72.4886C198.158 72.1168 202.336 71.5348 203.03 69.409C203.425 68.379 203.604 67.2782 203.554 66.1758" stroke="#263238" stroke-width="0.75" stroke-miterlimit="10"/>
<path d="M201.949 66.0137C202.818 65.9425 203.693 65.9969 204.546 66.1754" stroke="#263238" stroke-width="0.75" stroke-miterlimit="10"/>
<path d="M214.179 76.5059C213.761 78.4762 212.607 80.2116 210.952 81.3556C208.307 83.045 188.876 84.9768 189.522 85.2193C190.167 85.4618 192.691 86.6742 192.691 86.6742L193.45 93.5851C196.51 90.8704 199.913 88.5712 203.572 86.747C210.009 83.4006 214.025 82.2933 214.179 76.5059Z" fill="#263238" stroke="#263238" stroke-width="0.5" stroke-miterlimit="10"/>
<path d="M225.017 170.89C225.017 170.89 221.404 170.712 220.501 170.535C219.597 170.357 216.71 167.633 215.443 167.819C214.177 168.005 211.838 170.535 210.935 172.668C210.031 174.802 209.668 175.902 209.668 175.902C209.668 175.902 206.442 178.795 208.055 180.751C209.668 182.707 211.491 182.02 211.491 182.02C211.491 182.02 212.572 183.831 214.016 184.009C215.087 184.128 216.164 184.19 217.242 184.195C218.177 184.482 219.153 184.605 220.13 184.558C220.901 184.389 221.636 184.082 222.299 183.653C223.065 183.743 223.837 183.547 224.469 183.104C225.13 182.578 228.332 179.296 229.986 177.607L230.962 176.597L225.017 170.89Z" fill="white" stroke="#263238" stroke-width="0.75" stroke-miterlimit="10"/>
<path d="M255.166 133.62C255.166 133.62 248.488 141.04 246.294 144.653C242.798 150.166 239.001 155.482 234.921 160.577C232.397 163.47 223.549 170.535 223.549 170.535C223.549 170.535 226.251 176.322 228.243 177.227C229.402 177.762 230.609 178.184 231.848 178.488L239.108 173.065C239.108 173.065 252.819 162.557 260.079 156.6C267.338 150.643 277.412 142.665 278.138 139.229C278.864 135.794 278.315 133.984 274.71 131.268C272.466 129.603 269.965 128.32 267.305 127.469" fill="#FFC727"/>
<path d="M255.166 133.62C255.166 133.62 248.488 141.04 246.294 144.653C242.798 150.166 239.001 155.482 234.921 160.577C232.397 163.47 223.549 170.535 223.549 170.535C223.549 170.535 226.251 176.322 228.243 177.227C229.402 177.762 230.609 178.184 231.848 178.488L239.108 173.065C239.108 173.065 252.819 162.557 260.079 156.6C267.338 150.643 277.412 142.665 278.138 139.229C278.864 135.794 278.315 133.984 274.71 131.268C272.466 129.603 269.965 128.32 267.305 127.469" stroke="#263238" stroke-width="0.75" stroke-miterlimit="10"/>
<path d="M229.172 166.008C229.172 166.008 230.785 173.97 236.391 173.97" stroke="#263238" stroke-width="0.75" stroke-miterlimit="10"/>
<path d="M150.498 107.383C150.498 107.383 151.24 113.744 151.619 116.613C151.727 118.059 152.151 119.464 152.861 120.728C152.861 120.728 147.014 133.822 146.764 134.202C146.514 134.582 140.416 146.052 139.416 147.418C138.416 148.784 136.06 153.156 137.553 155.905C139.045 158.653 141.408 164.262 144.521 164.384C147.635 164.505 151.99 162.638 155.007 160.892C158.023 159.146 158.991 158.022 159.241 153.035C159.491 148.048 159.362 139.068 160.242 134.323C161.121 129.578 161.734 124.624 162.355 122.724C162.976 120.825 166.589 121.479 167.831 120.728C169.074 119.976 170.195 118.359 172.437 117.357C174.382 116.616 176.497 116.445 178.535 116.864C179.285 117.115 180.648 115.991 180.277 114.617C179.906 113.243 177.413 112.499 174.921 112.742C172.429 112.984 170.195 113.744 169.574 113.372C168.953 113 168.331 106.38 168.331 106.38C168.331 106.38 159.459 107.132 156.378 107.253C153.297 107.375 150.498 107.383 150.498 107.383Z" fill="white" stroke="#263238" stroke-width="0.75" stroke-miterlimit="10"/>
<path d="M164.186 102.517C164.186 102.517 164.315 110.753 164.315 111.497C164.316 111.67 164.354 111.842 164.424 112C164.495 112.158 164.597 112.3 164.725 112.417C164.853 112.534 165.004 112.623 165.168 112.679C165.332 112.735 165.505 112.756 165.678 112.742C166.307 112.62 167.92 113.243 168.299 111.376C168.678 109.509 169.412 104.263 169.041 103.018C168.67 101.773 165.307 101.272 164.186 102.517Z" fill="white" stroke="#263238" stroke-width="0.75" stroke-miterlimit="10"/>
<path d="M164.185 102.517C164.185 102.517 160.208 101.522 159.087 102.145C157.966 102.767 159.708 111.626 159.829 112.37C159.95 113.113 161.701 113.493 162.443 113.243C163.185 112.992 164.314 112.499 164.314 111.497C164.314 110.494 164.185 102.517 164.185 102.517Z" fill="white" stroke="#263238" stroke-width="0.75" stroke-miterlimit="10"/>
<path d="M158.218 102.395C158.218 102.395 155.604 101.894 154.854 102.767C154.104 103.64 153.862 104.885 154.104 107.132C154.433 109.343 155.105 111.49 156.096 113.493C156.596 114.245 158.218 114.366 159.21 113.994C160.202 113.623 159.831 112.378 159.831 112.378C159.831 112.378 159.331 111.877 159.21 108.013C159.089 104.149 159.089 102.153 159.089 102.153L158.218 102.395Z" fill="white" stroke="#263238" stroke-width="0.75" stroke-miterlimit="10"/>
<path d="M153.863 103.891C153.363 104.012 150.249 104.141 150.128 105.386C150.007 106.631 151.12 112.499 151.62 113.121C152.121 113.744 153.484 113.493 153.984 113.243C154.484 112.992 155.355 112.62 155.226 111.868C155.097 111.117 153.863 103.891 153.863 103.891Z" fill="white" stroke="#263238" stroke-width="0.75" stroke-miterlimit="10"/>
<path d="M154.855 128.584C153.961 128.442 153.119 128.069 152.412 127.502C151.705 126.935 151.157 126.194 150.822 125.351C149.112 129.166 146.934 133.992 146.789 134.242C146.539 134.614 140.441 146.092 139.441 147.458C138.441 148.824 136.086 153.197 137.578 155.945C139.07 158.693 141.433 164.303 144.547 164.424C147.66 164.545 152.016 162.678 155.032 160.932C158.049 159.186 159.017 158.063 159.267 153.076C159.517 148.088 159.388 139.108 160.267 134.364C160.686 132.036 161.073 129.659 161.396 127.606C159.296 128.339 157.077 128.671 154.855 128.584Z" fill="#FFC727" stroke="#263238" stroke-width="0.75" stroke-miterlimit="10"/>
<path d="M160.58 114.867C160.58 114.867 158.458 116.734 158.216 118.359C158.091 119.397 158.309 120.448 158.837 121.35" fill="white"/>
<path d="M160.58 114.867C160.58 114.867 158.458 116.734 158.216 118.359C158.091 119.397 158.309 120.448 158.837 121.35" stroke="#263238" stroke-width="0.75" stroke-miterlimit="10"/>
</svg>
