<svg width="115" height="156" viewBox="0 0 115 156" fill="none" xmlns="http://www.w3.org/2000/svg">
<path d="M102.276 39.0666C87.0005 32.2044 71.3513 23.54 62.1843 9.0011C60.1684 5.8126 58.6043 2.66741 57.6051 1.20312C56.6058 2.71073 55.0505 5.85592 53.0346 9.0011C43.8415 23.54 28.201 32.2044 12.9342 39.0666C12.2564 39.3785 1.34288 43.1736 1.35157 43.2862C1.36026 43.3988 3.65419 99.6049 21.0238 124.264C35.8562 145.301 52.9303 152.778 57.6051 154.511C62.2798 152.778 79.3279 145.301 94.1864 124.264C111.565 99.6309 113.859 43.2949 113.859 43.2862C113.859 43.2775 102.928 39.3785 102.276 39.0666Z" fill="#FFC727"/>
<path d="M97.4714 43.2424C83.8381 37.1253 69.8746 29.3793 61.6895 16.3827C59.8908 13.5321 58.4919 10.7248 57.6056 9.38184C56.7367 10.7248 55.3203 13.5321 53.5217 16.3827C45.3452 29.362 31.3731 37.1253 17.7745 43.2424C17.1663 43.511 7.42578 46.8988 7.42578 47.0027C7.42578 47.1067 9.48511 97.2563 24.9865 119.273C38.194 138.04 53.4 144.711 57.6056 146.262C61.7764 144.711 77.0171 138.04 90.2507 119.273C105.752 97.291 107.811 47.0114 107.811 47.0027C107.811 46.9941 98.0709 43.511 97.4714 43.2424Z" fill="white"/>
<path d="M57.9683 117.332C77.3606 117.332 93.0811 101.657 93.0811 82.3195C93.0811 62.9824 77.3606 47.3066 57.9683 47.3066C38.576 47.3066 22.8555 62.9824 22.8555 82.3195C22.8555 101.657 38.576 117.332 57.9683 117.332Z" fill="#263238" stroke="#263238" stroke-linecap="round" stroke-linejoin="round"/>
<path d="M55.7969 93.3144H55.4754C54.8933 93.2662 54.3302 93.0848 53.8298 92.7843C53.3295 92.4837 52.9054 92.0721 52.5906 91.5815L42.1028 74.9545C41.8158 74.5353 41.6165 74.0627 41.5168 73.5649C41.4171 73.0672 41.4189 72.5546 41.5223 72.0576C41.6257 71.5606 41.8284 71.0894 42.1184 70.6723C42.4084 70.2552 42.7798 69.9006 43.2103 69.6298C43.6408 69.359 44.1216 69.1774 44.624 69.096C45.1264 69.0145 45.6402 69.0349 46.1345 69.1558C46.6289 69.2768 47.0937 69.4958 47.5013 69.7999C47.9089 70.1039 48.2508 70.4868 48.5067 70.9255L56.3269 83.2983L77.9542 59.2286C78.2779 58.8327 78.6787 58.5063 79.1325 58.2693C79.5862 58.0323 80.0834 57.8894 80.5941 57.8495C81.1048 57.8095 81.6183 57.8732 82.1035 58.0368C82.5888 58.2003 83.0358 58.4603 83.4174 58.801C83.7991 59.1417 84.1075 59.556 84.324 60.0189C84.5405 60.4818 84.6606 60.9837 84.6771 61.4942C84.6935 62.0047 84.606 62.5133 84.4197 62.9891C84.2335 63.4649 83.9524 63.8982 83.5935 64.2626L58.6122 92.058C58.2582 92.4535 57.8244 92.7698 57.3392 92.9863C56.8541 93.2028 56.3285 93.3146 55.7969 93.3144Z" fill="#FFC727" stroke="#263238" stroke-miterlimit="10"/>
<path opacity="0.18" d="M68.831 85.9235C49.0122 92.461 31.7321 105 19.3984 121.794C19.9285 122.661 20.4672 123.466 21.0233 124.255C35.8557 145.292 52.9298 152.769 57.6046 154.502C62.2794 152.769 79.3275 145.292 94.1859 124.255C104.057 110.262 109.062 86.0275 111.564 67.7109C101.693 73.2995 87.8602 79.7025 68.831 85.9235Z" fill="black"/>
<path d="M102.276 39.0666C87.0004 32.2044 71.3513 23.54 62.1843 9.0011C60.1684 5.8126 58.6043 2.66741 57.6051 1.20312C56.6058 2.71073 55.0505 5.85592 53.0346 9.0011C43.8415 23.54 28.201 32.2044 12.9342 39.0666C12.2564 39.3785 1.34288 43.1736 1.35157 43.2862C1.36026 43.3988 3.65419 99.6049 21.0238 124.264C35.8562 145.301 52.9303 152.778 57.6051 154.511C62.2798 152.778 79.3279 145.301 94.1864 124.264C111.565 99.6309 113.859 43.2949 113.859 43.2862C113.859 43.2775 102.928 39.3785 102.276 39.0666Z" stroke="#263238" stroke-miterlimit="10"/>
</svg>
