<svg width="20" height="20" viewBox="0 0 20 20" fill="none" xmlns="http://www.w3.org/2000/svg">
<path d="M16.7733 7C18.4081 7 19.7333 8.34315 19.7333 10C19.7333 11.6569 18.4081 13 16.7733 13L2.96 13C1.32524 13 -7.14578e-08 11.6569 0 10C7.14578e-08 8.34315 1.32524 7 2.96 7L16.7733 7Z" fill="#7094F4"/>
<path d="M6.90625 3C6.90625 1.34315 8.23149 0 9.86625 0C11.501 0 12.8263 1.34315 12.8263 3V17C12.8263 18.6569 11.501 20 9.86625 20C8.23149 20 6.90625 18.6569 6.90625 17V3Z" fill="#7094F4"/>
<path d="M6.90625 3C6.90625 1.34315 8.23149 0 9.86625 0C11.501 0 12.8263 1.34315 12.8263 3V17C12.8263 18.6569 11.501 20 9.86625 20C8.23149 20 6.90625 18.6569 6.90625 17V3Z" fill="white" fill-opacity="0.4" style="mix-blend-mode:screen"/>
<path d="M16.8444 12.8283C18.0004 13.9999 18.0004 15.8995 16.8444 17.0711C15.6885 18.2427 13.8142 18.2427 12.6582 17.0711L2.89043 7.17129C1.73444 5.99968 1.73444 4.10012 2.89043 2.92851C4.04642 1.7569 5.92065 1.7569 7.07664 2.92851L16.8444 12.8283Z" fill="#7094F4"/>
<path d="M16.8444 12.8283C18.0004 13.9999 18.0004 15.8995 16.8444 17.0711C15.6885 18.2427 13.8142 18.2427 12.6582 17.0711L2.89043 7.17129C1.73444 5.99968 1.73444 4.10012 2.89043 2.92851C4.04642 1.7569 5.92065 1.7569 7.07664 2.92851L16.8444 12.8283Z" fill="white" fill-opacity="0.2" style="mix-blend-mode:soft-light"/>
<path d="M12.6582 2.92851C13.8142 1.7569 15.6885 1.7569 16.8444 2.92851C18.0004 4.10012 18.0004 5.99968 16.8444 7.17129L7.07663 17.0711C5.92065 18.2427 4.04642 18.2427 2.89043 17.0711C1.73444 15.8995 1.73444 13.9999 2.89043 12.8283L12.6582 2.92851Z" fill="#7094F4"/>
<path d="M12.6582 2.92851C13.8142 1.7569 15.6885 1.7569 16.8444 2.92851C18.0004 4.10012 18.0004 5.99968 16.8444 7.17129L7.07663 17.0711C5.92065 18.2427 4.04642 18.2427 2.89043 17.0711C1.73444 15.8995 1.73444 13.9999 2.89043 12.8283L12.6582 2.92851Z" fill="white" fill-opacity="0.3" style="mix-blend-mode:overlay"/>
<path fill-rule="evenodd" clip-rule="evenodd" d="M9.8676 3C9.64964 3 9.47294 3.17909 9.47294 3.4V8.64804C9.47294 8.7692 9.47294 8.82978 9.4493 8.85784C9.42879 8.88218 9.39802 8.89509 9.36653 8.89258C9.33024 8.88969 9.28798 8.84685 9.20344 8.76118L5.542 5.05025C5.38787 4.89404 5.13798 4.89404 4.98386 5.05025C4.82973 5.20646 4.82973 5.45973 4.98386 5.61594L8.6453 9.32686C8.72983 9.41254 8.7721 9.45538 8.77496 9.49215C8.77743 9.52407 8.76469 9.55525 8.74067 9.57604C8.71299 9.6 8.65322 9.6 8.53367 9.6H3.3556C3.13764 9.6 2.96094 9.77909 2.96094 10C2.96094 10.2209 3.13764 10.4 3.3556 10.4H8.53367C8.65322 10.4 8.713 10.4 8.74067 10.424C8.76469 10.4447 8.77744 10.4759 8.77496 10.5078C8.7721 10.5446 8.72984 10.5875 8.6453 10.6731L4.98386 14.3841C4.82973 14.5403 4.82973 14.7935 4.98386 14.9497C5.13798 15.106 5.38787 15.106 5.542 14.9497L9.20344 11.2388C9.28798 11.1531 9.33024 11.1103 9.36653 11.1074C9.39802 11.1049 9.42879 11.1178 9.4493 11.1422C9.47294 11.1702 9.47294 11.2308 9.47294 11.352V16.6C9.47294 16.8209 9.64964 17 9.8676 17C10.0856 17 10.2623 16.8209 10.2623 16.6V11.352C10.2623 11.2308 10.2623 11.1702 10.2859 11.1422C10.3064 11.1178 10.3372 11.1049 10.3687 11.1074C10.405 11.1103 10.4472 11.1531 10.5318 11.2388L14.1932 14.9497C14.3473 15.106 14.5972 15.106 14.7514 14.9497C14.9055 14.7935 14.9055 14.5403 14.7514 14.3841L11.0899 10.6731C11.0054 10.5875 10.9631 10.5446 10.9603 10.5078C10.9578 10.4759 10.9705 10.4447 10.9945 10.424C11.0222 10.4 11.082 10.4 11.2015 10.4H16.3796C16.5976 10.4 16.7743 10.2209 16.7743 10C16.7743 9.77909 16.5976 9.6 16.3796 9.6H11.2015C11.082 9.6 11.0222 9.6 10.9945 9.57604C10.9705 9.55525 10.9578 9.52407 10.9603 9.49215C10.9631 9.45538 11.0054 9.41254 11.0899 9.32686L14.7514 5.61594C14.9055 5.45973 14.9055 5.20646 14.7514 5.05025C14.5972 4.89404 14.3473 4.89404 14.1932 5.05025L10.5318 8.76118C10.4472 8.84685 10.405 8.88969 10.3687 8.89259C10.3372 8.8951 10.3064 8.88218 10.2859 8.85784C10.2623 8.82979 10.2623 8.76921 10.2623 8.64804V3.4C10.2623 3.17909 10.0856 3 9.8676 3Z" fill="white"/>
</svg>
