<svg width="24" height="24" viewBox="0 0 24 24" fill="none" xmlns="http://www.w3.org/2000/svg">
<path d="M19.9009 12.6604C19.7406 12.4779 19.6521 12.2433 19.6521 12.0004C19.6521 11.7575 19.7406 11.5229 19.9009 11.3404L21.1809 9.90038C21.3219 9.74305 21.4095 9.54509 21.4311 9.33489C21.4526 9.12469 21.407 8.91307 21.3009 8.73038L19.3009 5.27038C19.1958 5.0879 19.0358 4.94326 18.8436 4.85707C18.6515 4.77088 18.437 4.74754 18.2309 4.79038L16.3509 5.17038C16.1117 5.21981 15.8626 5.17997 15.6508 5.05838C15.4389 4.93679 15.2789 4.74187 15.2009 4.51038L14.5909 2.68038C14.5238 2.48176 14.396 2.30925 14.2255 2.18723C14.055 2.0652 13.8505 1.99984 13.6409 2.00038H9.64087C9.42281 1.989 9.20701 2.04931 9.02644 2.1721C8.84587 2.29489 8.71045 2.4734 8.64087 2.68038L8.08087 4.51038C8.00287 4.74187 7.84284 4.93679 7.63099 5.05838C7.41913 5.17997 7.17009 5.21981 6.93087 5.17038L5.00087 4.79038C4.80542 4.76276 4.60617 4.79361 4.42822 4.87902C4.25027 4.96444 4.10157 5.10061 4.00087 5.27038L2.00087 8.73038C1.89203 8.91103 1.84309 9.12147 1.86106 9.33161C1.87902 9.54174 1.96296 9.74082 2.10087 9.90038L3.37087 11.3404C3.53119 11.5229 3.61961 11.7575 3.61961 12.0004C3.61961 12.2433 3.53119 12.4779 3.37087 12.6604L2.10087 14.1004C1.96296 14.2599 1.87902 14.459 1.86106 14.6692C1.84309 14.8793 1.89203 15.0897 2.00087 15.2704L4.00087 18.7304C4.10597 18.9129 4.26599 19.0575 4.45812 19.1437C4.65026 19.2299 4.8647 19.2532 5.07087 19.2104L6.95087 18.8304C7.19009 18.781 7.43913 18.8208 7.65099 18.9424C7.86284 19.064 8.02287 19.2589 8.10087 19.4904L8.71087 21.3204C8.78045 21.5274 8.91587 21.7059 9.09644 21.8287C9.27701 21.9515 9.49281 22.0118 9.71087 22.0004H13.7109C13.9205 22.0009 14.125 21.9356 14.2955 21.8135C14.466 21.6915 14.5938 21.519 14.6609 21.3204L15.2709 19.4904C15.3489 19.2589 15.5089 19.064 15.7208 18.9424C15.9326 18.8208 16.1817 18.781 16.4209 18.8304L18.3009 19.2104C18.507 19.2532 18.7215 19.2299 18.9136 19.1437C19.1058 19.0575 19.2658 18.9129 19.3709 18.7304L21.3709 15.2704C21.477 15.0877 21.5226 14.8761 21.5011 14.6659C21.4795 14.4557 21.3919 14.2577 21.2509 14.1004L19.9009 12.6604ZM18.4109 14.0004L19.2109 14.9004L17.9309 17.1204L16.7509 16.8804C16.0307 16.7332 15.2814 16.8555 14.6455 17.2242C14.0095 17.5929 13.531 18.1822 13.3009 18.8804L12.9209 20.0004H10.3609L10.0009 18.8604C9.77073 18.1622 9.29225 17.5729 8.65628 17.2042C8.0203 16.8355 7.27109 16.7132 6.55087 16.8604L5.37087 17.1004L4.07087 14.8904L4.87087 13.9904C5.36283 13.4404 5.6348 12.7283 5.6348 11.9904C5.6348 11.2525 5.36283 10.5404 4.87087 9.99038L4.07087 9.09038L5.35087 6.89038L6.53087 7.13038C7.25109 7.27761 8.0003 7.15526 8.63628 6.78658C9.27225 6.4179 9.75073 5.82854 9.98087 5.13038L10.3609 4.00038H12.9209L13.3009 5.14038C13.531 5.83854 14.0095 6.4279 14.6455 6.79658C15.2814 7.16526 16.0307 7.28761 16.7509 7.14038L17.9309 6.90038L19.2109 9.12038L18.4109 10.0204C17.9244 10.5691 17.6558 11.2771 17.6558 12.0104C17.6558 12.7437 17.9244 13.4516 18.4109 14.0004ZM11.6409 8.00038C10.8497 8.00038 10.0764 8.23498 9.41859 8.67451C8.76079 9.11403 8.24811 9.73874 7.94535 10.4696C7.6426 11.2006 7.56339 12.0048 7.71773 12.7807C7.87207 13.5567 8.25304 14.2694 8.81245 14.8288C9.37186 15.3882 10.0846 15.7692 10.8605 15.9235C11.6364 16.0779 12.4407 15.9987 13.1716 15.6959C13.9025 15.3932 14.5272 14.8805 14.9668 14.2227C15.4063 13.5649 15.6409 12.7915 15.6409 12.0004C15.6409 10.9395 15.2194 9.9221 14.4693 9.17196C13.7192 8.42181 12.7017 8.00038 11.6409 8.00038ZM11.6409 14.0004C11.2453 14.0004 10.8586 13.8831 10.5297 13.6633C10.2008 13.4436 9.94449 13.1312 9.79311 12.7657C9.64174 12.4003 9.60213 11.9982 9.6793 11.6102C9.75647 11.2222 9.94695 10.8659 10.2267 10.5862C10.5064 10.3065 10.8627 10.116 11.2507 10.0388C11.6387 9.96164 12.0408 10.0012 12.4062 10.1526C12.7717 10.304 13.084 10.5603 13.3038 10.8892C13.5236 11.2181 13.6409 11.6048 13.6409 12.0004C13.6409 12.5308 13.4302 13.0395 13.0551 13.4146C12.68 13.7897 12.1713 14.0004 11.6409 14.0004Z" fill="black"/>
</svg>
