<svg width="20" height="20" viewBox="0 0 20 20" fill="none" xmlns="http://www.w3.org/2000/svg">
<path d="M13.125 11.25C13.125 11.8681 12.9417 12.4723 12.5983 12.9862C12.255 13.5001 11.7669 13.9006 11.1959 14.1371C10.6249 14.3736 9.99653 14.4355 9.39034 14.315C8.78415 14.1944 8.22733 13.8967 7.79029 13.4597C7.35325 13.0227 7.05563 12.4658 6.93505 11.8597C6.81447 11.2535 6.87635 10.6251 7.11288 10.0541C7.3494 9.48309 7.74994 8.99504 8.26384 8.65166C8.77775 8.30828 9.38193 8.125 10 8.125C10.8288 8.125 11.6237 8.45424 12.2097 9.04029C12.7958 9.62634 13.125 10.4212 13.125 11.25ZM5 4.375C4.50555 4.375 4.0222 4.52162 3.61108 4.79633C3.19995 5.07103 2.87952 5.46148 2.6903 5.91829C2.50108 6.37511 2.45157 6.87777 2.54804 7.36273C2.6445 7.84768 2.8826 8.29314 3.23223 8.64277C3.58187 8.9924 4.02732 9.2305 4.51228 9.32696C4.99723 9.42343 5.49989 9.37392 5.95671 9.1847C6.41353 8.99548 6.80397 8.67505 7.07868 8.26393C7.35338 7.8528 7.5 7.36945 7.5 6.875C7.5 6.21196 7.23661 5.57607 6.76777 5.10723C6.29893 4.63839 5.66304 4.375 5 4.375ZM15 4.375C14.5055 4.375 14.0222 4.52162 13.6111 4.79633C13.2 5.07103 12.8795 5.46148 12.6903 5.91829C12.5011 6.37511 12.4516 6.87777 12.548 7.36273C12.6445 7.84768 12.8826 8.29314 13.2322 8.64277C13.5819 8.9924 14.0273 9.2305 14.5123 9.32696C14.9972 9.42343 15.4999 9.37392 15.9567 9.1847C16.4135 8.99548 16.804 8.67505 17.0787 8.26393C17.3534 7.8528 17.5 7.36945 17.5 6.875C17.5 6.21196 17.2366 5.57607 16.7678 5.10723C16.2989 4.63839 15.663 4.375 15 4.375Z" fill="#1C1C1C" fill-opacity="0.1"/>
<path d="M19.1252 11.7503C19.0596 11.7995 18.9849 11.8354 18.9053 11.8557C18.8258 11.8761 18.7431 11.8806 18.6618 11.869C18.5806 11.8574 18.5024 11.8299 18.4318 11.7881C18.3612 11.7463 18.2995 11.691 18.2502 11.6253C17.8735 11.1189 17.3832 10.7081 16.8187 10.4259C16.2542 10.1436 15.6313 9.99785 15.0002 10.0003C14.8345 10.0003 14.6755 9.93445 14.5583 9.81724C14.4411 9.70003 14.3752 9.54106 14.3752 9.3753C14.3752 9.20954 14.4411 9.05057 14.5583 8.93336C14.6755 8.81615 14.8345 8.7503 15.0002 8.7503C15.3509 8.75027 15.6946 8.6519 15.9921 8.46635C16.2897 8.2808 16.5293 8.01553 16.6836 7.70065C16.838 7.38577 16.901 7.03391 16.8654 6.68504C16.8298 6.33617 16.6971 6.00427 16.4823 5.72704C16.2676 5.44981 15.9794 5.23837 15.6505 5.11672C15.3216 4.99508 14.9651 4.96811 14.6217 5.03888C14.2782 5.10966 13.9615 5.27533 13.7074 5.51709C13.4534 5.75885 13.2723 6.06701 13.1846 6.40655C13.1641 6.48606 13.1281 6.56075 13.0787 6.62636C13.0293 6.69197 12.9675 6.74721 12.8968 6.78892C12.8261 6.83063 12.7478 6.85801 12.6665 6.86948C12.5852 6.88095 12.5024 6.87629 12.4229 6.85577C12.3434 6.83525 12.2687 6.79927 12.2031 6.74989C12.1375 6.7005 12.0822 6.63868 12.0405 6.56795C11.9988 6.49722 11.9714 6.41896 11.96 6.33765C11.9485 6.25634 11.9532 6.17356 11.9737 6.09405C12.0954 5.6232 12.3253 5.18725 12.6451 4.82089C12.9649 4.45452 13.3658 4.16786 13.8159 3.9837C14.266 3.79954 14.7529 3.72298 15.2378 3.76009C15.7227 3.79721 16.1922 3.94698 16.609 4.1975C17.0259 4.44802 17.3785 4.79236 17.6388 5.20313C17.8991 5.6139 18.06 6.07976 18.1086 6.56364C18.1572 7.04753 18.0922 7.53608 17.9188 7.99042C17.7454 8.44476 17.4683 8.85236 17.1096 9.18077C17.9595 9.54874 18.6982 10.1327 19.2526 10.8745C19.3018 10.9403 19.3376 11.0152 19.3578 11.0949C19.3781 11.1746 19.3824 11.2575 19.3706 11.3388C19.3588 11.4202 19.331 11.4984 19.2889 11.569C19.2468 11.6396 19.1912 11.7012 19.1252 11.7503ZM14.9159 16.5628C14.9595 16.6339 14.9884 16.7131 15.001 16.7956C15.0135 16.8781 15.0094 16.9623 14.9889 17.0432C14.9684 17.1241 14.9319 17.2001 14.8815 17.2667C14.8311 17.3332 14.768 17.389 14.6957 17.4308C14.6234 17.4725 14.5435 17.4993 14.4607 17.5097C14.3779 17.5201 14.2938 17.5138 14.2135 17.4911C14.1332 17.4685 14.0582 17.43 13.993 17.3779C13.9278 17.3258 13.8737 17.2611 13.8338 17.1878C13.4401 16.5213 12.8794 15.969 12.207 15.5853C11.5347 15.2016 10.774 14.9998 9.99985 14.9998C9.22573 14.9998 8.46499 15.2016 7.79266 15.5853C7.12033 15.969 6.55962 16.5213 6.16586 17.1878C6.12679 17.2625 6.07301 17.3285 6.00777 17.3819C5.94252 17.4352 5.86715 17.4749 5.7862 17.4983C5.70524 17.5218 5.62037 17.5287 5.53669 17.5185C5.45302 17.5084 5.37226 17.4814 5.29928 17.4392C5.2263 17.397 5.16261 17.3405 5.11204 17.2731C5.06147 17.2056 5.02506 17.1287 5.005 17.0468C4.98495 16.9649 4.98166 16.8798 4.99535 16.7967C5.00903 16.7135 5.03939 16.6339 5.08461 16.5628C5.69055 15.5217 6.61445 14.7024 7.72055 14.2253C7.09815 13.7488 6.64073 13.0892 6.41258 12.3392C6.18443 11.5893 6.19703 10.7867 6.44861 10.0443C6.70018 9.30188 7.17808 8.65697 7.81513 8.20021C8.45219 7.74344 9.21636 7.4978 10.0002 7.4978C10.7841 7.4978 11.5483 7.74344 12.1853 8.20021C12.8224 8.65697 13.3003 9.30188 13.5519 10.0443C13.8034 10.7867 13.816 11.5893 13.5879 12.3392C13.3597 13.0892 12.9023 13.7488 12.2799 14.2253C13.386 14.7024 14.3099 15.5217 14.9159 16.5628ZM10.0002 13.7503C10.4947 13.7503 10.978 13.6037 11.3892 13.329C11.8003 13.0543 12.1207 12.6638 12.3099 12.207C12.4992 11.7502 12.5487 11.2475 12.4522 10.7626C12.3557 10.2776 12.1176 9.83217 11.768 9.48254C11.4184 9.1329 10.9729 8.8948 10.488 8.79834C10.003 8.70188 9.50034 8.75138 9.04353 8.9406C8.58671 9.12982 8.19627 9.45025 7.92156 9.86138C7.64686 10.2725 7.50024 10.7558 7.50024 11.2503C7.50024 11.9133 7.76363 12.5492 8.23247 13.0181C8.70131 13.4869 9.3372 13.7503 10.0002 13.7503ZM5.62524 9.3753C5.62524 9.20954 5.55939 9.05057 5.44218 8.93336C5.32497 8.81615 5.166 8.7503 5.00024 8.7503C4.64956 8.75027 4.30591 8.6519 4.00834 8.46635C3.71076 8.2808 3.47119 8.01553 3.31682 7.70065C3.16246 7.38577 3.09949 7.03391 3.13508 6.68504C3.17066 6.33617 3.30337 6.00427 3.51813 5.72704C3.73289 5.44981 4.02109 5.23837 4.35 5.11672C4.67891 4.99508 5.03534 4.96811 5.3788 5.03888C5.72227 5.10966 6.039 5.27533 6.29303 5.51709C6.54706 5.75885 6.72819 6.06701 6.81586 6.40655C6.8573 6.56713 6.96083 6.70467 7.10368 6.78892C7.24653 6.87316 7.417 6.89721 7.57758 6.85577C7.73816 6.81433 7.8757 6.7108 7.95995 6.56795C8.04419 6.4251 8.06824 6.25463 8.0268 6.09405C7.90511 5.6232 7.67522 5.18725 7.3554 4.82089C7.03559 4.45452 6.63468 4.16786 6.18458 3.9837C5.73447 3.79954 5.2476 3.72298 4.7627 3.76009C4.2778 3.79721 3.80826 3.94698 3.39143 4.1975C2.9746 4.44802 2.62199 4.79236 2.36166 5.20313C2.10133 5.6139 1.94046 6.07976 1.89185 6.56364C1.84325 7.04753 1.90825 7.53608 2.08168 7.99042C2.25511 8.44476 2.53219 8.85236 2.89086 9.18077C2.04186 9.54909 1.30392 10.133 0.750237 10.8745C0.650677 11.0071 0.607874 11.1739 0.631242 11.338C0.654611 11.5022 0.742238 11.6504 0.874846 11.7499C1.00745 11.8495 1.17418 11.8923 1.33835 11.8689C1.50252 11.8455 1.65068 11.7579 1.75024 11.6253C2.12695 11.1189 2.61728 10.7081 3.18177 10.4259C3.74625 10.1436 4.36912 9.99785 5.00024 10.0003C5.166 10.0003 5.32497 9.93445 5.44218 9.81724C5.55939 9.70003 5.62524 9.54106 5.62524 9.3753Z" fill="#1C1C1C"/>
</svg>
