<svg width="4" height="8" viewBox="0 0 4 8" fill="none" xmlns="http://www.w3.org/2000/svg">
<path d="M3.89081 2.49363V2.65825C3.92288 2.94626 3.86067 3.2369 3.71346 3.48675C3.56625 3.73661 3.34194 3.93228 3.07403 4.04456C3.34281 4.15566 3.56794 4.3511 3.71533 4.60126C3.86272 4.85142 3.92433 5.14266 3.89081 5.43086V5.95073C3.89081 6.97313 3.40422 7.68361 2.37021 7.68361C1.3362 7.68361 0.866991 7.01645 0.866991 5.95073V5.48285H1.56211V5.99405C1.56211 6.60056 1.8141 6.96446 2.35283 6.96446C2.89155 6.96446 3.14354 6.60922 3.14354 5.92473V5.41353C3.14354 4.74637 2.8568 4.43446 2.27463 4.41713H1.87492V3.7413H2.31808C2.43441 3.74244 2.54961 3.71852 2.65581 3.67118C2.76202 3.62383 2.85672 3.55417 2.93345 3.46697C3.01017 3.37977 3.06711 3.27708 3.10037 3.16592C3.13363 3.05475 3.14243 2.93774 3.12616 2.82287V2.51962C3.12616 1.82646 2.88286 1.47122 2.33545 1.47122C1.78803 1.47122 1.54474 1.85246 1.54474 2.4503V2.79688H0.849609V2.49363C0.849609 1.46256 1.32751 0.760742 2.35283 0.760742C3.37815 0.760742 3.89081 1.47122 3.89081 2.49363Z" fill="#263238"/>
</svg>
