<svg width="3" height="3" viewBox="0 0 3 3" fill="none" xmlns="http://www.w3.org/2000/svg">
<path d="M2.46171 1.57464C2.46343 1.78578 2.40221 1.99267 2.28582 2.16907C2.16944 2.34546 2.00314 2.4834 1.80801 2.5654C1.61288 2.64739 1.39771 2.66973 1.18982 2.6296C0.981927 2.58946 0.790695 2.48865 0.640355 2.33995C0.490015 2.19126 0.387352 2.00138 0.345404 1.79442C0.303457 1.58746 0.324093 1.37274 0.404723 1.1775C0.485354 0.982256 0.62235 0.815295 0.798291 0.697805C0.974232 0.580314 1.18119 0.517585 1.39294 0.517578C1.67489 0.517569 1.94544 0.628663 2.14563 0.826655C2.34581 1.02465 2.45942 1.29349 2.46171 1.57464Z" fill="#263238"/>
</svg>
