<svg width="146" height="28" viewBox="0 0 146 28" fill="none" xmlns="http://www.w3.org/2000/svg">
<path d="M145.275 26.7964V14.2416C145.275 12.4803 144.927 10.7362 144.251 9.10887C143.575 7.48159 142.584 6.003 141.335 4.75753C140.086 3.51207 138.603 2.52411 136.971 1.85007C135.339 1.17603 133.59 0.829102 131.824 0.829102H81.6874L81.6352 0.985061C80.384 5.47323 77.5079 8.39314 74.3103 8.39314H72.4769C69.2793 8.39314 66.3945 5.47323 65.1519 0.985061V0.829102H14.8679C11.3028 0.829102 7.88376 2.24129 5.36288 4.755C2.84199 7.26871 1.42578 10.678 1.42578 14.233V26.7964H145.275Z" fill="#DBDBDB" stroke="#263238" stroke-linecap="round" stroke-linejoin="round"/>
</svg>
