<svg width="4" height="8" viewBox="0 0 4 8" fill="none" xmlns="http://www.w3.org/2000/svg">
<path d="M0.863177 3.60331C0.961542 3.42736 1.10716 3.28226 1.28369 3.1843C1.46021 3.08634 1.66063 3.03941 1.86242 3.04879C2.73134 3.04879 3.11366 3.68129 3.11366 4.63438V5.95137C3.11366 6.97377 2.62707 7.68425 1.59306 7.68425C0.559054 7.68425 0.0898438 7.01709 0.0898438 5.95137V5.50082H0.784978V5.99469C0.784978 6.6012 1.03697 6.9651 1.57569 6.9651C2.11442 6.9651 2.36639 6.6012 2.36639 5.99469V4.69503C2.36639 4.08852 2.11442 3.72461 1.57569 3.72461C1.4784 3.72114 1.38138 3.73711 1.29037 3.77159C1.19936 3.80606 1.11619 3.85834 1.04575 3.92536C0.975306 3.99237 0.919016 4.07275 0.880201 4.16178C0.841385 4.25081 0.820825 4.34669 0.819728 4.44376V4.59972H0.11591L0.298388 0.874023H2.90513V1.54118H0.924007L0.863177 3.60331Z" fill="#263238"/>
</svg>
