<svg width="8" height="3" viewBox="0 0 8 3" fill="none" xmlns="http://www.w3.org/2000/svg">
<path d="M6.5991 2.44272C6.52215 2.4453 6.44629 2.42412 6.38187 2.38207C3.02786 0.397919 0.777392 2.31275 0.751325 2.38207C0.709105 2.41905 0.659978 2.44737 0.60678 2.46543C0.553582 2.48348 0.497337 2.49091 0.44126 2.48729C0.385183 2.48367 0.330375 2.46907 0.279956 2.44433C0.229537 2.41958 0.184508 2.38518 0.147423 2.34308C0.110338 2.30098 0.0819197 2.25201 0.0638145 2.19896C0.0457093 2.14591 0.0382805 2.08983 0.0419113 2.03392C0.0455422 1.978 0.060161 1.92334 0.0849752 1.87307C0.109789 1.82279 0.14429 1.77788 0.186509 1.7409C0.186509 1.7409 2.93228 -0.59849 6.81633 1.7409C6.91118 1.80008 6.97947 1.89347 7.00699 2.00161C7.03451 2.10975 7.01914 2.22431 6.96406 2.32142C6.91593 2.36717 6.85825 2.40176 6.79517 2.42273C6.73209 2.4437 6.66513 2.45052 6.5991 2.44272Z" fill="#263238"/>
</svg>
