<svg width="167" height="173" viewBox="0 0 167 173" fill="none" xmlns="http://www.w3.org/2000/svg">
<path d="M69.7762 160.839C62.4069 170.035 32.8575 158.71 32.8575 158.71C32.8575 158.71 15.3668 132.338 22.736 123.143M113.249 58.3918C108.676 54.5881 105.338 49.6994 103.926 44.7352C102.513 39.771 103.133 35.1104 105.658 31.7159C108.323 28.3902 112.737 26.6899 117.93 26.9893C123.123 27.2886 128.668 29.563 133.347 33.3122C138.025 37.0613 141.453 41.978 142.877 46.9807C144.301 51.9834 143.603 56.6623 140.938 59.9881C138.175 63.1917 133.762 64.8124 128.609 64.5153C123.456 64.2183 117.958 62.0262 113.249 58.3918ZM120.57 128.783C155.436 104.554 185.197 33.6774 153.445 8.23252C121.693 -17.2124 59.1673 24.6628 43.118 63.9695L0.854477 78.1507L32.6066 103.596L29.4353 114.783L76.4754 152.479C80.8372 151.856 81.0011 149.241 86.7027 146.946L118.455 172.391L120.57 128.783Z" fill="#FFD233"/>
</svg>
