<svg width="11" height="16" viewBox="0 0 11 16" fill="none" xmlns="http://www.w3.org/2000/svg">
<path d="M0.84375 15.6228V0.0268132H6.05724C6.86208 -0.00438804 7.66047 0.181173 8.36854 0.564003C8.97535 0.912445 9.44904 1.45185 9.71536 2.09762C10.0305 2.87289 10.1813 3.70475 10.1585 4.54097C10.2148 5.49575 10.0106 6.44793 9.56764 7.29627C9.19655 7.90729 8.62586 8.37233 7.95146 8.61325C7.21326 8.86427 6.4374 8.98734 5.65753 8.97714H4.26726V15.6228H0.84375ZM4.31941 6.61177H5.4403C5.77691 6.63158 6.11202 6.5533 6.4048 6.38649C6.63092 6.21726 6.78579 5.97018 6.83925 5.69335C6.91569 5.30827 6.95064 4.91614 6.94352 4.52365C6.94891 4.17219 6.91982 3.82106 6.85663 3.47526C6.81292 3.19189 6.66405 2.93521 6.43955 2.7561C6.14192 2.55223 5.78273 2.45733 5.42292 2.4875H4.28464L4.31941 6.61177Z" fill="#263238"/>
</svg>
