<svg width="5" height="5" viewBox="0 0 5 5" fill="none" xmlns="http://www.w3.org/2000/svg">
<path d="M4.90892 2.84326C4.90891 2.44703 4.79097 2.05973 4.57003 1.7304C4.34909 1.40108 4.03509 1.14455 3.66782 0.993318C3.30055 0.842089 2.89653 0.802962 2.50694 0.880894C2.11735 0.958827 1.75971 1.15031 1.47934 1.43109C1.19898 1.71187 1.00851 2.06931 0.932044 2.45813C0.85558 2.84695 0.89658 3.24965 1.04983 3.61522C1.20309 3.98079 1.4617 4.29277 1.79292 4.51165C2.12415 4.73053 2.51306 4.84646 2.91041 4.84474C3.17359 4.84474 3.43418 4.79291 3.67722 4.69222C3.92026 4.59153 4.14096 4.44397 4.32665 4.258C4.51234 4.07203 4.65937 3.85132 4.75929 3.60854C4.85921 3.36576 4.91006 3.10569 4.90892 2.84326Z" fill="white"/>
</svg>
