<svg width="161" height="319" viewBox="0 0 161 319" fill="none" xmlns="http://www.w3.org/2000/svg">
<path d="M160.423 83.7053V56.7936H157.982V22.2399C157.979 16.5976 155.73 11.1873 151.728 7.1984C147.726 3.20953 142.299 0.96875 136.641 0.96875H22.0573C16.399 0.96875 10.9722 3.20953 6.97036 7.1984C2.96849 11.1873 0.719101 16.5976 0.716797 22.2399V296.469C0.719101 302.111 2.96849 307.521 6.97036 311.51C10.9722 315.499 16.399 317.74 22.0573 317.74H136.641C142.299 317.74 147.726 315.499 151.728 311.51C155.73 307.521 157.979 302.111 157.982 296.469V106.718H160.423V90.7494H157.982V83.7053H160.423ZM151.274 281.254C151.274 286.896 149.026 292.307 145.026 296.298C141.026 300.288 135.6 302.531 129.942 302.534H28.7566C23.0983 302.531 17.6725 300.288 13.6722 296.298C9.67198 292.307 7.42482 286.896 7.42482 281.254V27.1006C7.42482 21.4592 9.67227 16.0488 13.6728 12.0597C17.6733 8.07055 23.0991 5.82949 28.7566 5.82949H71.0641V5.98545C72.3153 10.4736 75.1914 13.3935 78.389 13.3935H80.2224C83.4201 13.3935 86.3048 10.4736 87.5474 5.98545L87.5995 5.82949H129.898C135.556 5.82949 140.982 8.07055 144.982 12.0597C148.983 16.0488 151.23 21.4592 151.23 27.1006L151.274 281.254Z" fill="#FFC727" stroke="#263238" stroke-linecap="round" stroke-linejoin="round"/>
</svg>
