<svg width="154" height="313" viewBox="0 0 154 313" fill="none" xmlns="http://www.w3.org/2000/svg">
<path d="M132.927 0.94043H21.7673C16.3102 0.94043 11.0767 3.10207 7.21795 6.94982C3.35922 10.7976 1.19141 16.0162 1.19141 21.4578V291.294C1.19141 296.735 3.35922 301.954 7.21795 305.802C11.0767 309.649 16.3102 311.811 21.7673 311.811H132.927C138.385 311.811 143.618 309.649 147.477 305.802C151.336 301.954 153.503 296.735 153.503 291.294V21.4144C153.492 15.9804 151.319 10.7729 147.462 6.93449C143.604 3.09611 138.377 0.940418 132.927 0.94043ZM149.272 279.068C149.272 284.51 147.104 289.73 143.246 293.579C139.387 297.428 134.154 299.592 128.696 299.594H25.9989C20.541 299.592 15.3075 297.428 11.449 293.579C7.59056 289.73 5.42303 284.51 5.42303 279.068V23.3379C5.42303 20.6447 5.95502 17.9778 6.98861 15.4896C8.02221 13.0014 9.53718 10.7405 11.447 8.83612C13.3569 6.93172 15.6242 5.42106 18.1195 4.3904C20.6148 3.35974 23.2893 2.82927 25.9902 2.82927H69.0623V2.98523C70.3135 7.4734 73.1896 10.3933 76.3872 10.3933H78.2207C81.4183 10.3933 84.303 7.4734 85.5456 2.98523L85.5977 2.82927H128.696C134.153 2.82927 139.387 4.99091 143.245 8.83866C147.104 12.6864 149.272 17.9051 149.272 23.3466V279.068Z" fill="#263238" stroke="#263238" stroke-linecap="round" stroke-linejoin="round"/>
</svg>
