<svg width="146" height="299" viewBox="0 0 146 299" fill="none" xmlns="http://www.w3.org/2000/svg">
<path d="M145.275 14.2416V284.138C145.272 287.695 143.854 291.105 141.332 293.62C138.81 296.135 135.39 297.548 131.824 297.551H14.8766C11.3099 297.548 7.88998 296.135 5.36797 293.62C2.84595 291.105 1.42808 287.695 1.42578 284.138V14.233C1.42578 10.678 2.84199 7.26871 5.36288 4.755C7.88376 2.24129 11.3028 0.829102 14.8679 0.829102H65.065V0.985061C66.3163 5.47323 69.1924 8.39314 72.39 8.39314H74.2234C77.421 8.39314 80.3058 5.47323 81.5483 0.985061L81.6005 0.829102H131.824C133.59 0.829102 135.339 1.17603 136.971 1.85007C138.603 2.52411 140.086 3.51207 141.335 4.75753C142.584 6.003 143.575 7.48159 144.251 9.10887C144.927 10.7361 145.275 12.4803 145.275 14.2416Z" fill="white" stroke="#263238" stroke-linecap="round" stroke-linejoin="round"/>
</svg>
