<svg width="7" height="2" viewBox="0 0 7 2" fill="none" xmlns="http://www.w3.org/2000/svg">
<path d="M5.74019 1.86422C5.66338 1.86573 5.58782 1.84463 5.52296 1.80357C3.20296 0.434595 1.67366 1.70826 1.60415 1.80357C1.56315 1.84077 1.515 1.86925 1.4626 1.88728C1.41021 1.90532 1.35467 1.91253 1.29939 1.90847C1.24411 1.90442 1.19024 1.88919 1.14105 1.86371C1.09187 1.83823 1.0484 1.80302 1.01329 1.76025C0.974411 1.72161 0.943549 1.6757 0.922499 1.62515C0.901448 1.5746 0.890625 1.5204 0.890625 1.46566C0.890625 1.41092 0.901448 1.35672 0.922499 1.30617C0.943549 1.25562 0.974411 1.20971 1.01329 1.17107C1.10018 1.09309 3.05524 -0.561813 5.92265 1.11908C6.01922 1.17673 6.08897 1.27016 6.11665 1.37894C6.14433 1.48773 6.12771 1.60302 6.07038 1.6996C6.03217 1.75097 5.98235 1.79264 5.92499 1.82124C5.86762 1.84984 5.80432 1.86456 5.74019 1.86422Z" fill="#263238"/>
</svg>
