<svg width="9" height="3" viewBox="0 0 9 3" fill="none" xmlns="http://www.w3.org/2000/svg">
<path d="M8.37323 2.78883C8.29654 2.78935 8.22126 2.76833 8.156 2.72818C3.9157 0.215495 1.09171 2.58088 0.97006 2.68485C0.931168 2.72494 0.884599 2.75682 0.833099 2.7786C0.781599 2.80037 0.726221 2.81159 0.670283 2.81159C0.614346 2.81159 0.558994 2.80037 0.507495 2.7786C0.455995 2.75682 0.409398 2.72494 0.370507 2.68485C0.299608 2.60025 0.264524 2.49145 0.272632 2.38149C0.280741 2.27153 0.331421 2.16903 0.413969 2.09567C0.413969 2.09567 3.79405 -0.798242 8.59045 2.04369C8.68703 2.10133 8.75677 2.19476 8.78445 2.30354C8.81213 2.41233 8.79548 2.52762 8.73815 2.6242C8.69663 2.68059 8.64125 2.72536 8.57733 2.75419C8.51341 2.78303 8.44311 2.79495 8.37323 2.78883Z" fill="#263238"/>
</svg>
