<svg width="4" height="8" viewBox="0 0 4 8" fill="none" xmlns="http://www.w3.org/2000/svg">
<path d="M3.8407 2.4763V2.60626H3.13689V2.43297C3.13689 1.82647 2.89359 1.47122 2.34617 1.47122C1.79875 1.47122 1.52939 1.83513 1.52939 2.55428V4.07055C1.60636 3.85031 1.75312 3.66102 1.9475 3.53129C2.14187 3.40155 2.37331 3.33841 2.60685 3.3514C3.47576 3.3514 3.85807 3.97524 3.85807 4.93699V5.95939C3.85807 6.98179 3.35411 7.69227 2.3201 7.69227C1.2861 7.69227 0.773438 7.02511 0.773438 5.95939V2.49363C0.773438 1.4279 1.26003 0.760742 2.3201 0.760742C3.38018 0.760742 3.8407 1.47122 3.8407 2.4763ZM1.52939 4.98898V5.99405C1.52939 6.60056 1.77269 6.96446 2.3201 6.96446C2.86752 6.96446 3.1195 6.60056 3.1195 5.99405V4.98898C3.1195 4.38247 2.85883 4.01856 2.3201 4.01856C1.78138 4.01856 1.52939 4.38247 1.52939 4.98898Z" fill="#263238"/>
</svg>
