<svg width="20" height="20" viewBox="0 0 20 20" fill="none" xmlns="http://www.w3.org/2000/svg">
<path d="M4 7.99989C3.99945 6.75324 4.38723 5.53739 5.10945 4.52126C5.83167 3.50513 6.85247 2.7392 8.03 2.32989C7.9844 2.0442 8.00132 1.75201 8.0796 1.4735C8.15788 1.19498 8.29565 0.936768 8.48341 0.716665C8.67117 0.496562 8.90444 0.319813 9.16714 0.198613C9.42983 0.0774136 9.71569 0.0146484 10.005 0.0146484C10.2943 0.0146484 10.5802 0.0774136 10.8429 0.198613C11.1056 0.319813 11.3388 0.496562 11.5266 0.716665C11.7143 0.936768 11.8521 1.19498 11.9304 1.4735C12.0087 1.75201 12.0256 2.0442 11.98 2.32989C13.1557 2.74088 14.1743 3.50753 14.8946 4.52351C15.615 5.5395 16.0013 6.75446 16 7.99989V13.9999L19 15.9999V16.9999H1V15.9999L4 13.9999V7.99989ZM12 17.9999C12 18.5303 11.7893 19.039 11.4142 19.4141C11.0391 19.7892 10.5304 19.9999 10 19.9999C9.46957 19.9999 8.96086 19.7892 8.58579 19.4141C8.21071 19.039 8 18.5303 8 17.9999H12Z" fill="black"/>
</svg>
